SplineFontDB: 3.0
FontName: Copse
FullName: Copse
FamilyName: Copse
Weight: Book
Copyright: "Copyright (c) 2010, Daniel Rhatigan\n(sparky@ultrasparky.org) with Reserved Font Name Copse"
Version: 1.000
ItalicAngle: 0
UnderlinePosition: -205
UnderlineWidth: 102
Ascent: 1638
Descent: 410
LayerCount: 2
Layer: 0 1 "Back"  1
Layer: 1 1 "Fore"  0
NeedsXUIDChange: 1
XUID: [1021 298 1767659720 11499382]
FSType: 0
OS2Version: 3
OS2_WeightWidthSlopeOnly: 0
OS2_UseTypoMetrics: 1
CreationTime: 1291723200
ModificationTime: 1292661981
PfmFamily: 17
TTFWeight: 400
TTFWidth: 5
LineGap: 57
VLineGap: 0
Panose: 2 0 5 3 8 0 0 2 0 4
OS2TypoAscent: -55
OS2TypoAOffset: 1
OS2TypoDescent: -29
OS2TypoDOffset: 1
OS2TypoLinegap: 113
OS2WinAscent: 0
OS2WinAOffset: 1
OS2WinDescent: 0
OS2WinDOffset: 1
HheadAscent: 0
HheadAOffset: 1
HheadDescent: 0
HheadDOffset: 1
OS2SubXSize: 1475
OS2SubYSize: 1229
OS2SubXOff: 0
OS2SubYOff: 0
OS2SupXSize: 1475
OS2SupYSize: 1229
OS2SupXOff: 0
OS2SupYOff: 731
OS2StrikeYSize: 102
OS2StrikeYPos: 512
OS2Vendor: '    '
OS2CodePages: 00000001.00000000
OS2UnicodeRanges: 80000003.00000000.00000000.00000000
Lookup: 258 0 0 "'kern' Horizontal Kerning in Latin lookup 0"  {"'kern' Horizontal Kerning in Latin lookup 0 subtable"  } ['kern' ('DFLT' <'dflt' > 'latn' <'dflt' > ) ]
DEI: 91125
TtTable: prep
PUSHW_1
 0
CALL
SVTCA[y-axis]
PUSHW_3
 1
 5
 2
CALL
SVTCA[x-axis]
PUSHW_3
 6
 6
 2
CALL
SVTCA[x-axis]
PUSHW_8
 6
 58
 44
 34
 25
 18
 0
 8
CALL
PUSHW_8
 7
 54
 44
 34
 25
 18
 0
 8
CALL
PUSHW_8
 8
 55
 44
 34
 25
 18
 0
 8
CALL
PUSHW_8
 9
 49
 44
 34
 25
 18
 0
 8
CALL
PUSHW_8
 10
 74
 58
 46
 33
 18
 0
 8
CALL
PUSHW_8
 11
 69
 58
 46
 33
 18
 0
 8
CALL
SVTCA[y-axis]
PUSHW_8
 1
 74
 58
 46
 33
 18
 0
 8
CALL
PUSHW_8
 2
 80
 66
 46
 33
 22
 0
 8
CALL
PUSHW_8
 3
 65
 58
 46
 33
 18
 0
 8
CALL
PUSHW_8
 4
 76
 58
 46
 33
 18
 0
 8
CALL
PUSHW_8
 5
 69
 58
 46
 33
 18
 0
 8
CALL
SVTCA[y-axis]
PUSHW_3
 12
 4
 7
CALL
PUSHW_1
 0
DUP
RCVT
RDTG
ROUND[Black]
RTG
WCVTP
EndTTInstrs

StartChar: .notdef
Encoding: 65536 -1 0
Width: 1333
Flags: HW
HStem: 0 115<186 1147> 1294 115<186 1147>
VStem: 72 114<115 1294> 1147 115<115 1294>
LayerCount: 2
Fore
SplineSet
72 0 m 1,0,-1
 72 1409 l 1,1,-1
 1262 1409 l 1,2,-1
 1262 0 l 1,3,-1
 72 0 l 1,0,-1
186 115 m 1,4,-1
 1147 115 l 1,5,-1
 1147 1294 l 1,6,-1
 186 1294 l 1,7,-1
 186 115 l 1,4,-1
EndSplineSet
EndChar

StartChar: exclam
Encoding: 33 33 4
Width: 596
Flags: HW
HStem: -20 279<196.476 399.671> 1505 20G<231.75 365.25>
VStem: 163 275<17.5391 220.462 1220.64 1517.73> 213 169<396.598 735.923>
LayerCount: 2
Fore
SplineSet
296 -20 m 0,0,1
 207 -20 207 -20 173 63 c 0,2,3
 163 87 163 87 163 118 c 0,4,5
 163 148 163 148 173 174 c 0,6,7
 182 200 182 200 200 218 c 0,8,9
 238 258 238 258 296 259 c 256,10,11
 354 258 354 258 396 218 c 0,12,13
 438 179 438 179 438 134 c 128,-1,14
 438 89 438 89 427 63.5 c 128,-1,15
 416 38 416 38 396 20 c 0,16,17
 354 -20 354 -20 296 -20 c 0,0,1
165 1494 m 1,18,19
 165 1525 165 1525 298.5 1525 c 128,-1,20
 432 1525 432 1525 432 1492 c 1,21,-1
 382 432 l 1,22,23
 382 405 382 405 327 394 c 0,24,25
 312 391 312 391 287 391 c 0,26,27
 284 391 284 391 282 391 c 0,28,29
 260 391 260 391 243 398 c 0,30,31
 215 409 215 409 213 435 c 1,32,-1
 165 1494 l 1,18,19
EndSplineSet
EndChar

StartChar: quotedbl
Encoding: 34 34 5
Width: 760
Flags: HW
HStem: 1110 472<119.067 264.891 494.2 641.625>
VStem: 67 233<1425.38 1574.91> 459 233<1425.38 1573.62>
LayerCount: 2
Fore
SplineSet
557 1110 m 0,0,1
 541 1110 541 1110 525 1115 c 0,2,3
 496 1124 496 1124 494 1140 c 2,4,-1
 459 1538 l 1,5,6
 460 1570 460 1570 536 1580 c 0,7,8
 554 1582 554 1582 568.5 1582 c 128,-1,9
 583 1582 583 1582 604 1582 c 0,10,11
 624 1580 624 1580 644 1576 c 0,12,13
 692 1565 692 1565 692 1534 c 1,14,-1
 640 1140 l 2,15,16
 636 1110 636 1110 557 1110 c 0,0,1
67 1534 m 1,17,18
 67 1583 67 1583 191 1583 c 0,19,20
 253 1583 253 1583 276.5 1566.5 c 128,-1,21
 300 1550 300 1550 300 1538 c 1,22,-1
 265 1140 l 2,23,24
 262 1110 262 1110 196 1110 c 2,25,-1
 186 1110 l 2,26,27
 163 1110 163 1110 142 1119.5 c 128,-1,28
 121 1129 121 1129 119 1140 c 2,29,-1
 67 1534 l 1,17,18
EndSplineSet
EndChar

StartChar: numbersign
Encoding: 35 35 6
Width: 1190
Flags: HW
HStem: 442 154<64.4148 263 430 694 861 1042.85> 906 154<159.468 331 497 762 928 1124.69> 1505 20G<483.25 493.75 914.25 924.75>
LayerCount: 2
Fore
SplineSet
198 0 m 1,0,-1
 263 442 l 1,1,-1
 101 442 l 2,2,3
 72 442 72 442 62 494 c 0,4,5
 60 507 60 507 60 518.5 c 128,-1,6
 60 530 60 530 62 544 c 0,7,8
 64 556 64 556 70 568 c 0,9,10
 82 596 82 596 101 596 c 2,11,-1
 285 596 l 1,12,-1
 331 906 l 1,13,-1
 185 906 l 2,14,15
 156 906 156 906 146 958 c 0,16,17
 144 971 144 971 144 982 c 256,18,19
 144 1028 144 1028 159 1044 c 128,-1,20
 174 1060 174 1060 185 1060 c 2,21,-1
 353 1060 l 1,22,-1
 419 1505 l 2,23,24
 422 1523 422 1523 450 1524 c 128,-1,25
 478 1525 478 1525 488.5 1525 c 128,-1,26
 499 1525 499 1525 511.5 1524.5 c 128,-1,27
 524 1524 524 1524 535 1522 c 0,28,29
 561 1518 561 1518 561 1505 c 1,30,-1
 497 1060 l 1,31,-1
 784 1060 l 1,32,-1
 850 1505 l 2,33,34
 853 1523 853 1523 881 1524 c 128,-1,35
 909 1525 909 1525 919.5 1525 c 128,-1,36
 930 1525 930 1525 942.5 1524.5 c 128,-1,37
 955 1524 955 1524 966 1522 c 0,38,39
 992 1518 992 1518 992 1505 c 1,40,-1
 928 1060 l 1,41,-1
 1090 1060 l 2,42,43
 1116 1060 1116 1060 1126 1009 c 0,44,45
 1129 992 1129 992 1129 981 c 0,46,47
 1128 971 1128 971 1126 960 c 0,48,49
 1124 946 1124 946 1120 934 c 0,50,51
 1110 906 1110 906 1090 906 c 2,52,-1
 906 906 l 1,53,-1
 861 596 l 1,54,-1
 1009 596 l 2,55,56
 1036 596 1036 596 1046 546 c 0,57,58
 1048 533 1048 533 1048 521.5 c 128,-1,59
 1048 510 1048 510 1046 496 c 0,60,61
 1042 482 1042 482 1038 470 c 0,62,63
 1028 442 1028 442 1009 442 c 2,64,-1
 839 442 l 1,65,-1
 776 0 l 2,66,67
 774 -18 774 -18 742 -19 c 128,-1,68
 710 -20 710 -20 700.5 -20 c 128,-1,69
 691 -20 691 -20 679 -20 c 0,70,71
 668 -20 668 -20 656 -18 c 0,72,73
 630 -15 630 -15 629 0 c 1,74,-1
 694 442 l 1,75,-1
 408 442 l 1,76,-1
 345 0 l 2,77,78
 343 -18 343 -18 311 -19 c 128,-1,79
 279 -20 279 -20 269.5 -20 c 128,-1,80
 260 -20 260 -20 248 -20 c 128,-1,81
 236 -20 236 -20 224 -18 c 0,82,83
 198 -14 198 -14 198 0 c 1,0,-1
430 596 m 1,84,-1
 716 596 l 1,85,-1
 762 906 l 1,86,-1
 475 906 l 1,87,-1
 430 596 l 1,84,-1
EndSplineSet
EndChar

StartChar: dollar
Encoding: 36 36 7
Width: 1130
Flags: HW
HStem: 21 154<357.486 490 632 733.672> 101 355<141.577 304.062> 1043 359<809.969 965.25> 1327 154<391.803 490 632 763.675>
VStem: 65 307<223.219 409.558> 100 211<1021.37 1255.88> 490 142<-168.66 25.2407 184 619 919 1318 1477.26 1634.66> 737 307<1088.44 1289.19> 846 211<274.715 509.18>
LayerCount: 2
Fore
SplineSet
632 -142 m 2,0,1
 632 -170 632 -170 561 -170 c 128,-1,2
 490 -170 490 -170 490 -142 c 2,3,-1
 490 21 l 1,4,5
 330 32 330 32 206 101 c 256,6,7
 65 179 65 179 65 300 c 0,8,9
 65 366 65 366 110 411 c 128,-1,10
 155 456 155 456 219 456 c 256,11,12
 284 456 284 456 328 411 c 0,13,14
 372 365 372 365 372 300 c 0,15,16
 372 292 372 292 370 282 c 2,17,-1
 364 261 l 2,18,19
 361 250 361 250 357.5 240 c 128,-1,20
 354 230 354 230 352 223 c 1,21,22
 410 180 410 180 490 175 c 1,23,-1
 490 681 l 1,24,25
 305 761 305 761 236.5 822.5 c 128,-1,26
 168 884 168 884 134 949 c 128,-1,27
 100 1014 100 1014 100 1100.5 c 128,-1,28
 100 1187 100 1187 130.5 1251.5 c 128,-1,29
 161 1316 161 1316 214 1362 c 0,30,31
 317 1452 317 1452 490 1475 c 1,32,-1
 490 1608 l 2,33,34
 490 1636 490 1636 561 1636 c 128,-1,35
 632 1636 632 1636 632 1608 c 2,36,-1
 632 1481 l 1,37,38
 785 1472 785 1472 904 1402 c 0,39,40
 1044 1321 1044 1321 1044 1197 c 0,41,42
 1044 1133 1044 1133 1000 1087 c 0,43,44
 957 1043 957 1043 891 1043 c 256,45,46
 826 1043 826 1043 782 1087 c 0,47,48
 737 1132 737 1132 737 1182.5 c 128,-1,49
 737 1233 737 1233 766 1291 c 1,50,51
 711 1323 711 1323 632 1327 c 1,52,-1
 632 850 l 1,53,-1
 784 777 l 1,54,55
 1057 640 1057 640 1057 436 c 0,56,57
 1057 262 1057 262 936 152 c 0,58,59
 824 49 824 49 632 26 c 1,60,-1
 632 -142 l 2,0,1
632 184 m 1,61,62
 784 213 784 213 830 321 c 0,63,64
 846 358 846 358 846 400 c 128,-1,65
 846 442 846 442 830 472 c 128,-1,66
 814 502 814 502 784 528 c 0,67,68
 737 570 737 570 632 619 c 1,69,-1
 632 184 l 1,61,62
490 1318 m 1,70,71
 311 1286 311 1286 311 1135 c 0,72,73
 311 1015 311 1015 490 919 c 1,74,-1
 490 1318 l 1,70,71
EndSplineSet
EndChar

StartChar: percent
Encoding: 37 37 8
Width: 1281
Flags: HW
HStem: -20 112<826.112 1004.37> 494 108<820.63 1000.36> 883 109<279.636 457.232> 1394 111<273.092 451.599>
VStem: 81 157<1032.69 1357.88> 494 160<1030.06 1352.41> 627 158<132.442 454.373> 1042 158<127.242 452.43>
LayerCount: 2
Fore
SplineSet
785 301 m 0,0,1
 785 257 785 257 794 211 c 128,-1,2
 803 165 803 165 832 128.5 c 128,-1,3
 861 92 861 92 903.5 92 c 128,-1,4
 946 92 946 92 971 106.5 c 128,-1,5
 996 121 996 121 1012 146 c 0,6,7
 1042 195 1042 195 1042 259.5 c 128,-1,8
 1042 324 1042 324 1034 363 c 0,9,10
 1028 402 1028 402 1012 431 c 0,11,12
 978 494 978 494 912 494 c 256,13,14
 785 494 785 494 785 301 c 0,0,1
348 883 m 0,15,16
 280 883 280 883 230 908 c 0,17,18
 182 933 182 933 148 974 c 0,19,20
 82 1055 82 1055 81 1182 c 0,21,22
 81 1322 81 1322 166 1413 c 0,23,24
 252 1505 252 1505 386 1505 c 256,25,26
 515 1505 515 1505 588 1414 c 0,27,28
 654 1332 654 1332 654 1206 c 0,29,30
 654 1066 654 1066 569 975 c 0,31,32
 483 883 483 883 348 883 c 0,15,16
730 34 m 0,33,34
 627 115 627 115 627 276 c 0,35,36
 627 420 627 420 712 510 c 0,37,38
 798 602 798 602 932 602 c 256,39,40
 1061 602 1061 602 1134 511 c 0,41,42
 1200 429 1200 429 1200 303 c 0,43,44
 1200 163 1200 163 1115 72 c 0,45,46
 1029 -20 1029 -20 895 -20 c 0,47,48
 798 -20 798 -20 730 34 c 0,33,34
67 0 m 1,49,-1
 1059 1505 l 2,50,51
 1079 1537 1079 1537 1155 1537 c 0,52,53
 1217 1537 1217 1537 1217 1505 c 1,54,-1
 233 0 l 1,55,56
 211 -30 211 -30 130 -30 c 0,57,58
 67 -30 67 -30 67 0 c 1,49,-1
238 1205 m 0,59,60
 238 1059 238 1059 307 1009 c 0,61,62
 332 992 332 992 365.5 992 c 128,-1,63
 399 992 399 992 424 1006 c 0,64,65
 448 1020 448 1020 464 1046 c 0,66,67
 494 1096 494 1096 494 1160 c 0,68,69
 494 1164 494 1164 495 1167 c 0,70,71
 496 1226 496 1226 488 1263 c 0,72,73
 480 1302 480 1302 464 1331 c 0,74,75
 430 1394 430 1394 365 1394 c 256,76,77
 238 1394 238 1394 238 1205 c 0,59,60
EndSplineSet
EndChar

StartChar: ampersand
Encoding: 38 38 9
Width: 1354
Flags: HW
HStem: -20 154<399.623 714.159> 0 141<1084.24 1247.05> 666 141<878.042 1052 1220.3 1321.44> 1370 154<448.276 702.402>
VStem: 74 233<233.18 573.381> 197 202<1056.56 1321.57> 753 205<1010.49 1319.92> 874 449<666.017 807> 1052 175<511.625 665.996>
LayerCount: 2
Fore
SplineSet
885 103 m 1,0,1
 717 -20 717 -20 506 -20 c 0,2,3
 318 -20 318 -20 196 89 c 1,4,5
 74 200 74 200 74 376 c 0,6,7
 74 501 74 501 134 604 c 0,8,9
 186 693 186 693 330 837 c 1,10,-1
 286 909 l 1,11,12
 197 1060 197 1060 197 1200 c 0,13,14
 198 1336 198 1336 298 1427 c 0,15,16
 405 1524 405 1524 586 1524 c 0,17,-1
 590 1524 l 0,18,19
 785 1523 785 1523 883 1414 c 0,20,21
 958 1329 958 1329 958 1205 c 0,22,23
 958 1085 958 1085 895 976 c 0,24,25
 836 874 836 874 680 714 c 1,26,-1
 935 376 l 1,27,28
 1052 545 1052 545 1052 650 c 0,29,30
 1052 666 1052 666 1039 666 c 2,31,-1
 915 666 l 2,32,33
 886 666 886 666 876 720 c 0,34,35
 874 734 874 734 874 748 c 0,36,37
 874 807 874 807 900 807 c 2,38,-1
 1298 807 l 2,39,40
 1323 807 1323 807 1323 736.5 c 128,-1,41
 1323 666 1323 666 1288 666 c 2,42,-1
 1227 666 l 1,43,44
 1205 481 1205 481 1025 263 c 1,45,-1
 1046 230 l 2,46,47
 1077 181 1077 181 1122.5 161 c 128,-1,48
 1168 141 1168 141 1238 141 c 0,49,50
 1262 141 1262 141 1262 76 c 0,51,52
 1262 29 1262 29 1247.5 14.5 c 128,-1,53
 1233 0 1233 0 1223 0 c 2,54,-1
 1053 0 l 2,55,56
 977 0 977 0 885 103 c 1,0,1
424 712 m 1,57,58
 307 595 307 595 307 423 c 0,59,60
 307 250 307 250 402 176 c 0,61,62
 455 134 455 134 508 134 c 128,-1,63
 561 134 561 134 597 140 c 0,64,65
 634 146 634 146 668 159 c 0,66,67
 742 185 742 185 793 225 c 1,68,-1
 424 712 l 1,57,58
588 840 m 1,69,70
 753 986 753 986 753 1187 c 0,71,72
 752 1312 752 1312 660 1356 c 0,73,74
 630 1370 630 1370 586 1370 c 0,75,-1
 583 1371 l 0,76,77
 542 1371 542 1371 508 1359 c 0,78,79
 472 1347 472 1347 448 1326 c 0,80,81
 399 1283 399 1283 399 1228 c 0,82,83
 399 1225 399 1225 399 1222 c 0,84,85
 399 1171 399 1171 414 1126 c 0,86,87
 430 1080 430 1080 456 1032 c 0,88,89
 500 952 500 952 588 840 c 1,69,70
EndSplineSet
EndChar

StartChar: quotesingle
Encoding: 39 39 10
Width: 379
Flags: HW
HStem: 1110 473<117.105 262.891>
VStem: 73 233<1405.63 1567.53>
LayerCount: 2
Fore
SplineSet
73 1534 m 1,0,1
 73 1583 73 1583 189 1583 c 0,2,3
 260 1583 260 1583 283 1568 c 128,-1,4
 306 1553 306 1553 306 1538 c 1,5,-1
 263 1140 l 2,6,7
 260 1110 260 1110 194 1110 c 2,8,-1
 171 1110 l 1,9,10
 120 1115 120 1115 117 1140 c 2,11,-1
 73 1534 l 1,0,1
EndSplineSet
EndChar

StartChar: parenleft
Encoding: 40 40 11
Width: 636
Flags: HW
VStem: 92 212<358.239 1090.78>
LayerCount: 2
Fore
SplineSet
439 -227 m 1,0,1
 172 63 172 63 108 506 c 0,2,3
 92 613 92 613 92 746.5 c 128,-1,4
 92 880 92 880 119.5 1018 c 128,-1,5
 147 1156 147 1156 194 1276 c 0,6,7
 284 1506 284 1506 439 1675 c 1,8,9
 449 1684 449 1684 481.5 1684 c 128,-1,10
 514 1684 514 1684 537 1662.5 c 128,-1,11
 560 1641 560 1641 560 1614 c 1,12,13
 352 1260 352 1260 316 955 c 0,14,15
 304 849 304 849 304 730 c 128,-1,16
 304 611 304 611 316 503 c 0,17,18
 328 396 328 396 358 288 c 0,19,20
 417 78 417 78 560 -166 c 1,21,22
 560 -212 560 -212 512 -233 c 0,23,24
 498 -239 498 -239 488 -239 c 0,25,26
 460 -239 460 -239 439 -227 c 1,0,1
EndSplineSet
EndChar

StartChar: parenright
Encoding: 41 41 12
Width: 637
Flags: HW
VStem: 332 212<352.867 1091.06>
LayerCount: 2
Fore
SplineSet
76 -166 m 1,0,1
 284 187 284 187 320 503 c 0,2,3
 332 611 332 611 332 730 c 0,4,5
 332 735 332 735 333 739 c 0,6,7
 332 853 332 853 320 955 c 0,8,9
 308 1061 308 1061 278 1166 c 0,10,11
 220 1370 220 1370 76 1614 c 1,12,13
 76 1641 76 1641 99 1662.5 c 128,-1,14
 122 1684 122 1684 146 1684 c 0,15,16
 187 1684 187 1684 197 1675 c 1,17,18
 438 1414 438 1414 516 1018 c 0,19,20
 544 880 544 880 544 727 c 256,21,22
 544 294 544 294 331 -50 c 0,23,24
 268 -152 268 -152 197 -227 c 1,25,26
 175 -239 175 -239 155.5 -239 c 128,-1,27
 136 -239 136 -239 123 -233 c 0,28,29
 110 -228 110 -228 100 -218 c 0,30,31
 76 -196 76 -196 76 -166 c 1,0,1
EndSplineSet
EndChar

StartChar: asterisk
Encoding: 42 42 13
Width: 676
Flags: HW
HStem: 1324 153<83.1309 129 530.936 590.214>
VStem: 66 544<1325.13 1408.28>
LayerCount: 2
Fore
SplineSet
124 1479 m 1,0,-1
 129 1478 l 1,1,-1
 276 1411 l 1,2,-1
 259 1569 l 1,3,4
 259 1590 259 1590 311 1598 c 0,5,6
 324 1600 324 1600 335.5 1600 c 128,-1,7
 347 1600 347 1600 362 1598 c 0,8,9
 378 1598 378 1598 390 1594 c 0,10,11
 420 1586 420 1586 419 1569 c 1,12,-1
 399 1409 l 1,13,-1
 544 1476 l 2,14,15
 545 1477 545 1477 553.5 1477 c 128,-1,16
 562 1477 562 1477 573 1462.5 c 128,-1,17
 584 1448 584 1448 592 1428 c 0,18,19
 610 1387 610 1387 610 1358.5 c 128,-1,20
 610 1330 610 1330 596 1324 c 1,21,-1
 435 1291 l 1,22,-1
 549 1175 l 1,23,24
 552 1170 552 1170 552 1160.5 c 128,-1,25
 552 1151 552 1151 539 1134.5 c 128,-1,26
 526 1118 526 1118 508 1104 c 0,27,28
 464 1070 464 1070 445.5 1070 c 128,-1,29
 427 1070 427 1070 423 1077 c 2,30,-1
 334 1222 l 1,31,-1
 257 1080 l 1,32,33
 251 1073 251 1073 239.5 1073 c 128,-1,34
 228 1073 228 1073 208.5 1081.5 c 128,-1,35
 189 1090 189 1090 170 1104 c 0,36,37
 124 1137 124 1137 124 1163 c 0,38,39
 124 1168 124 1168 127 1173 c 1,40,-1
 236 1295 l 1,41,-1
 80 1325 l 2,42,43
 66 1329 66 1329 66 1348.5 c 128,-1,44
 66 1368 66 1368 70 1388.5 c 128,-1,45
 74 1409 74 1409 82 1429 c 0,46,47
 100 1479 100 1479 124 1479 c 1,0,-1
EndSplineSet
EndChar

StartChar: plus
Encoding: 43 43 14
Width: 1042
Flags: HW
HStem: 575 154<63.6724 448 592 966.048>
VStem: 448 144<142.154 575 729 1118>
LayerCount: 2
Fore
SplineSet
518 141 m 256,0,1
 448 141 448 141 448 162 c 2,2,-1
 448 575 l 1,3,-1
 100 575 l 2,4,5
 72 575 72 575 62 627 c 0,6,7
 59 644 59 644 59 655 c 0,8,9
 60 664 60 664 62 676 c 0,10,11
 64 690 64 690 69 702 c 0,12,13
 81 730 81 730 100 729 c 2,14,-1
 448 729 l 1,15,-1
 448 1098 l 2,16,17
 448 1119 448 1119 520 1119 c 128,-1,18
 592 1119 592 1119 592 1098 c 2,19,-1
 592 729 l 1,20,-1
 942 729 l 2,21,22
 968 729 968 729 978 679 c 0,23,24
 980 666 980 666 981 655 c 256,25,26
 981 610 981 610 966.5 592.5 c 128,-1,27
 952 575 952 575 942 575 c 2,28,-1
 592 575 l 1,29,-1
 592 162 l 2,30,31
 592 141 592 141 518 141 c 256,0,1
EndSplineSet
EndChar

StartChar: comma
Encoding: 44 44 15
Width: 505
Flags: HW
HStem: -270 522
LayerCount: 2
Fore
SplineSet
180 -16 m 1,0,1
 106 23 106 23 106 113 c 0,2,3
 106 172 106 172 148 212 c 128,-1,4
 190 252 190 252 235 252 c 128,-1,5
 280 252 280 252 307 241 c 128,-1,6
 334 230 334 230 354 212 c 0,7,8
 398 172 398 172 399 113 c 0,9,10
 399 -63 399 -63 134 -270 c 1,11,12
 105 -270 105 -270 89.5 -254 c 128,-1,13
 74 -238 74 -238 74 -211 c 1,14,15
 180 -92 180 -92 180 -16 c 1,0,1
EndSplineSet
EndChar

StartChar: hyphen
Encoding: 45 45 16
Width: 750
Flags: HW
HStem: 513 176<118.418 623.048>
VStem: 112 526<533.117 688.96>
LayerCount: 2
Fore
SplineSet
153 513 m 2,0,1
 152 513 l 0,2,3
 124 513 124 513 114 574 c 0,4,5
 112 588 112 588 112 600 c 128,-1,6
 112 612 112 612 114.5 627 c 128,-1,7
 117 642 117 642 122 656 c 0,8,9
 134 689 134 689 153 689 c 2,10,-1
 599 689 l 2,11,12
 600 689 l 0,13,14
 626 689 626 689 636 630 c 0,15,16
 638 616 638 616 638 604 c 256,17,18
 638 552 638 552 623.5 532.5 c 128,-1,19
 609 513 609 513 599 513 c 2,20,-1
 153 513 l 2,0,1
EndSplineSet
EndChar

StartChar: period
Encoding: 46 46 17
Width: 487
Flags: HW
HStem: -20 274<142.176 345.571>
VStem: 106 275<14.7937 218.436>
LayerCount: 2
Fore
SplineSet
299 -10 m 0,0,1
 274 -20 274 -20 230 -20 c 128,-1,2
 186 -20 186 -20 157 8 c 0,3,4
 106 55 106 55 106 115 c 256,5,6
 106 210 106 210 190 244 c 0,7,8
 216 254 216 254 245 254 c 128,-1,9
 274 254 274 254 299 244 c 0,10,11
 324 232 324 232 342 214 c 0,12,13
 381 174 381 174 381 115 c 256,14,15
 381 23 381 23 299 -10 c 0,0,1
EndSplineSet
EndChar

StartChar: slash
Encoding: 47 47 18
Width: 913
Flags: HW
LayerCount: 2
Fore
SplineSet
34 -141 m 1,0,-1
 707 1606 l 1,1,2
 756 1638 756 1638 781.5 1638 c 128,-1,3
 807 1638 807 1638 820 1637 c 0,4,5
 832 1636 832 1636 844 1632 c 0,6,7
 872 1624 872 1624 872 1606 c 1,8,-1
 206 -141 l 1,9,10
 166 -170 166 -170 109 -170 c 0,11,12
 63 -170 63 -170 48.5 -160 c 128,-1,13
 34 -150 34 -150 34 -141 c 1,0,-1
EndSplineSet
EndChar

StartChar: zero
Encoding: 48 48 19
Width: 1200
Flags: HW
HStem: -20 165<481.704 719.095> 1360 166<472.686 729.326>
VStem: 94 233<391.554 1110.37> 873 233<415.518 1144.17>
LayerCount: 2
Fore
SplineSet
574 -20 m 0,0,1
 412 -20 412 -20 295 99 c 1,2,3
 146 254 146 254 106 544 c 0,4,5
 94 628 94 628 94 706 c 0,6,7
 94 1338 94 1338 401 1480 c 0,8,9
 500 1526 500 1526 628 1526 c 128,-1,10
 756 1526 756 1526 846 1469 c 0,11,12
 936 1414 936 1414 995 1314 c 0,13,14
 1106 1124 1106 1124 1106 778 c 0,15,16
 1106 411 1106 411 964 197 c 0,17,18
 820 -20 820 -20 574 -20 c 0,0,1
327 753 m 0,19,20
 327 326 327 326 480 191 c 0,21,22
 532 145 532 145 601.5 145 c 128,-1,23
 671 145 671 145 722 191 c 0,24,25
 772 237 772 237 806 318 c 0,26,27
 872 479 872 479 873 753 c 256,28,29
 873 1192 873 1192 733 1314 c 0,30,31
 681 1360 681 1360 602 1360 c 256,32,33
 384 1360 384 1360 340 996 c 0,34,35
 327 891 327 891 327 770 c 0,36,37
 327 762 327 762 327 753 c 0,19,20
EndSplineSet
EndChar

StartChar: one
Encoding: 49 49 20
Width: 1200
Flags: HW
HStem: 0 141<322.25 591.544 807 1075.44> 1505 20G<683.86 761.5>
VStem: 596 211<166.25 1211.99>
LayerCount: 2
Fore
SplineSet
318 0 m 2,0,1
 295 0 295 0 295 58 c 0,2,3
 295 105 295 105 322 133 c 0,4,5
 330 141 330 141 338 141 c 2,6,-1
 487 141 l 2,7,8
 578 141 578 141 592 166 c 0,9,10
 596 174 596 174 596 184 c 2,11,-1
 596 1151 l 2,12,13
 596 1212 596 1212 575 1212 c 0,14,15
 568 1212 568 1212 548 1204 c 2,16,-1
 502 1186 l 2,17,18
 476 1176 476 1176 447 1163 c 128,-1,19
 418 1150 418 1150 391 1140 c 0,20,21
 325 1114 325 1114 311 1114 c 128,-1,22
 297 1114 297 1114 285 1123 c 0,23,24
 274 1132 274 1132 264 1146 c 0,25,26
 242 1177 242 1177 242 1203.5 c 128,-1,27
 242 1230 242 1230 258 1240 c 2,28,-1
 716 1525 l 1,29,30
 807 1525 807 1525 807 1505 c 2,31,-1
 807 141 l 1,32,-1
 1052 141 l 2,33,34
 1077 141 1077 141 1077 70.5 c 128,-1,35
 1077 0 1077 0 1041 0 c 2,36,-1
 318 0 l 2,0,1
EndSplineSet
EndChar

StartChar: two
Encoding: 50 50 21
Width: 1200
Flags: HW
HStem: 0 211<338 891> 1009 21G<264.5 330> 1371 154<405.95 729.313>
VStem: 143 307<1054.41 1278.5> 806 233<994.006 1298.42> 931 134<298.899 363.791>
LayerCount: 2
Fore
SplineSet
173 0 m 1,0,-1
 173 75 l 2,1,2
 173 354 173 354 373 574 c 0,3,4
 430 636 430 636 490 692 c 2,5,6
 606 802 l 2,7,8
 731 920 731 920 779 1028 c 0,9,10
 806 1089 806 1089 806 1178 c 128,-1,11
 806 1267 806 1267 741 1319 c 128,-1,12
 676 1371 676 1371 561 1371 c 0,13,14
 436 1371 436 1371 376 1300 c 1,15,16
 408 1284 408 1284 429 1246 c 128,-1,17
 450 1208 450 1208 450 1169 c 128,-1,18
 450 1130 450 1130 438 1102 c 128,-1,19
 426 1074 426 1074 406 1053 c 0,20,21
 363 1009 363 1009 297 1009 c 256,22,23
 232 1009 232 1009 188 1053 c 0,24,25
 143 1098 143 1098 143 1174 c 128,-1,26
 143 1250 143 1250 183.5 1317 c 128,-1,27
 224 1384 224 1384 288 1430 c 0,28,29
 419 1524 419 1524 595 1525 c 0,30,31
 794 1525 794 1525 916 1436 c 0,32,33
 1039 1346 1039 1346 1039 1195 c 0,34,35
 1038 958 1038 958 852 782 c 0,36,37
 798 730 798 730 738 682 c 2,38,-1
 618 584 l 1,39,40
 398 405 398 405 338 211 c 1,41,-1
 891 211 l 1,42,-1
 931 348 l 1,43,44
 958 370 958 370 986 370 c 0,45,46
 1041 370 1041 370 1065 319 c 1,47,-1
 1019 0 l 1,48,-1
 173 0 l 1,0,-1
EndSplineSet
EndChar

StartChar: three
Encoding: 51 51 22
Width: 1200
Flags: HW
HStem: -20 154<408.055 716.028> 731 93<545 650.656> 1009 21G<266.5 332> 1371 154<407.95 715.604>
VStem: 145 305<234.176 450.589 1054.41 1280.17> 808 211<981.288 1279.49> 826 233<249.25 580.16>
LayerCount: 2
Fore
SplineSet
378 205 m 1,0,1
 438 134 438 134 563 134 c 256,2,3
 680 134 680 134 752 210 c 0,4,5
 826 287 826 287 826 416 c 0,6,7
 826 532 826 532 755 620 c 0,8,9
 678 716 678 716 545 731 c 1,10,-1
 545 824 l 1,11,12
 718 873 718 873 782 1013 c 0,13,14
 808 1068 808 1068 808 1130 c 128,-1,15
 808 1192 808 1192 791 1233 c 128,-1,16
 774 1274 774 1274 742 1305 c 0,17,18
 675 1371 675 1371 563 1371 c 0,19,20
 438 1371 438 1371 378 1300 c 1,21,22
 410 1284 410 1284 431 1246 c 128,-1,23
 452 1208 452 1208 452 1169 c 128,-1,24
 452 1130 452 1130 440 1102 c 128,-1,25
 428 1074 428 1074 408 1053 c 0,26,27
 365 1009 365 1009 299 1009 c 256,28,29
 234 1009 234 1009 190 1053 c 0,30,31
 145 1098 145 1098 145 1174 c 128,-1,32
 145 1250 145 1250 185.5 1317 c 128,-1,33
 226 1384 226 1384 290 1430 c 0,34,35
 421 1524 421 1524 597 1525 c 0,36,37
 791 1525 791 1525 907 1420 c 0,38,39
 1019 1318 1019 1318 1019 1159 c 0,40,41
 1019 973 1019 973 862 856 c 0,42,43
 818 823 818 823 771 802 c 1,44,45
 896 739 896 739 951 679 c 0,46,47
 1059 560 1059 560 1059 403 c 0,48,49
 1059 238 1059 238 928 113 c 0,50,51
 789 -20 789 -20 582 -20 c 0,52,53
 419 -20 419 -20 288 74 c 1,54,55
 145 183 145 183 145 342 c 0,56,57
 145 407 145 407 190 452 c 0,58,59
 234 496 234 496 299 496 c 0,60,61
 359 496 359 496 404 454 c 0,62,63
 450 411 450 411 450 341 c 128,-1,64
 450 271 450 271 378 205 c 1,0,1
EndSplineSet
EndChar

StartChar: four
Encoding: 52 52 23
Width: 1200
Flags: HW
HStem: 0 141<422.25 691.544 907 1077.44> 416 154<314 696 907 1097.47> 1000 20G<801.5 907> 1505 20G<546.173 642.5>
VStem: 696 211<166.25 416 570 962.625>
LayerCount: 2
Fore
SplineSet
418 0 m 2,0,1
 395 0 395 0 395 58 c 0,2,3
 395 105 395 105 422 133 c 0,4,5
 430 141 430 141 438 141 c 2,6,-1
 587 141 l 2,7,8
 678 141 678 141 692 166 c 0,9,10
 696 174 696 174 696 184 c 2,11,-1
 696 416 l 1,12,-1
 143 416 l 1,13,14
 102 440 102 440 96 485 c 1,15,-1
 555 1525 l 1,16,17
 730 1525 730 1525 730 1393 c 1,18,-1
 314 570 l 1,19,-1
 696 570 l 1,20,-1
 696 918 l 2,21,22
 696 1020 696 1020 907 1020 c 1,23,-1
 907 570 l 1,24,-1
 1090 570 l 2,25,26
 1115 570 1115 570 1115 508 c 0,27,28
 1115 456 1115 456 1098 436 c 128,-1,29
 1081 416 1081 416 1070 416 c 2,30,-1
 907 416 l 1,31,-1
 907 141 l 1,32,-1
 1054 141 l 2,33,34
 1079 141 1079 141 1079 70.5 c 128,-1,35
 1079 0 1079 0 1043 0 c 2,36,-1
 418 0 l 2,0,1
EndSplineSet
EndChar

StartChar: five
Encoding: 53 53 24
Width: 1200
Flags: HW
HStem: -20 154<407.563 721.292> 760 154<399 677.342> 1294 211<399 979.938>
VStem: 145 307<236.765 449.558> 245 154<914 1294> 840 233<255.19 604.896>
LayerCount: 2
Fore
SplineSet
378 205 m 1,0,1
 438 134 438 134 575 134 c 0,2,3
 686 134 686 134 760 210 c 0,4,5
 840 292 840 292 840 428 c 0,6,7
 840 581 840 581 743 672 c 0,8,9
 649 760 649 760 489 760 c 2,10,-1
 245 760 l 1,11,-1
 245 1505 l 1,12,-1
 1003 1505 l 1,13,14
 1003 1395 1003 1395 991 1362 c 0,15,16
 966 1294 966 1294 893 1294 c 2,17,-1
 399 1294 l 1,18,-1
 399 914 l 1,19,-1
 553 914 l 2,20,21
 801 914 801 914 944 768 c 0,22,23
 1073 636 1073 636 1073 439 c 0,24,25
 1073 230 1073 230 934 104 c 0,26,27
 797 -19 797 -19 579 -20 c 0,28,29
 417 -20 417 -20 288 74 c 256,30,31
 145 178 145 178 145 340 c 0,32,33
 145 406 145 406 190 451 c 128,-1,34
 235 496 235 496 299 496 c 256,35,36
 364 496 364 496 408 451 c 0,37,38
 452 405 452 405 452 339 c 128,-1,39
 452 273 452 273 378 205 c 1,0,1
EndSplineSet
EndChar

StartChar: six
Encoding: 54 54 25
Width: 1200
Flags: HW
HStem: -20 154<492.486 756.394> 765 154<465.346 758.819> 1009 21G<886 950> 1371 154<533.561 810.022>
VStem: 109 233<349.048 651.496 809 1058.21> 765 307<1055.44 1278.95> 882 233<271.119 631.748>
LayerCount: 2
Fore
SplineSet
839 1300 m 1,0,1
 779 1371 779 1371 662 1371 c 0,2,3
 660 1371 l 0,4,5
 534 1371 534 1371 443 1226 c 0,6,7
 342 1066 342 1066 342 809 c 1,8,9
 411 881 411 881 546 909 c 0,10,11
 595 919 595 919 675.5 919 c 128,-1,12
 756 919 756 919 841 887 c 0,13,14
 926 856 926 856 987 794 c 0,15,16
 1115 665 1115 665 1115 443 c 0,17,18
 1115 237 1115 237 959 104 c 0,19,20
 813 -20 813 -20 628 -20 c 0,21,22
 434 -20 434 -20 310 85 c 1,23,24
 109 261 109 261 109 710 c 0,25,26
 109 1114 109 1114 291 1334 c 0,27,28
 448 1525 448 1525 658 1525 c 0,29,-1
 660 1525 l 0,30,31
 959 1524 959 1524 1044 1320 c 0,32,33
 1072 1252 1072 1252 1072 1192 c 128,-1,34
 1072 1132 1072 1132 1060 1103.5 c 128,-1,35
 1048 1075 1048 1075 1027 1054 c 0,36,37
 982 1009 982 1009 918 1009 c 256,38,39
 854 1009 854 1009 810 1054 c 0,40,41
 766 1100 766 1100 765 1165 c 0,42,43
 765 1262 765 1262 839 1300 c 1,0,1
342 577 m 1,44,45
 342 410 342 410 412 278 c 1,46,47
 491 134 491 134 614 134 c 0,48,49
 730 134 730 134 805 222 c 0,50,51
 882 313 882 313 882 459 c 0,52,53
 882 582 882 582 812 670 c 0,54,55
 736 764 736 764 621 765 c 0,56,57
 518 764 518 764 438 702 c 0,58,59
 370 648 370 648 342 577 c 1,44,45
EndSplineSet
EndChar

StartChar: seven
Encoding: 55 55 26
Width: 1200
Flags: HW
HStem: 1310 195<262 899>
VStem: 91 134<1172.17 1234.04> 375 233<-16.9482 297.473>
LayerCount: 2
Fore
SplineSet
608 0 m 1,0,1
 608 -20 608 -20 491.5 -20 c 128,-1,2
 375 -20 375 -20 375 0 c 1,3,4
 412 396 412 396 551 714 c 0,5,6
 639 914 639 914 734 1062 c 1,7,-1
 899 1310 l 1,8,-1
 262 1310 l 1,9,-1
 225 1186 l 2,10,11
 219 1167 219 1167 181 1167 c 0,12,13
 97 1167 97 1167 91 1215 c 1,14,-1
 129 1505 l 1,15,-1
 1101 1505 l 2,16,17
 1136 1505 1136 1505 1136 1440 c 1,18,-1
 988 1182 l 1,19,20
 776 805 776 805 694 508 c 0,21,22
 630 279 630 279 608 0 c 1,0,1
EndSplineSet
EndChar

StartChar: eight
Encoding: 56 56 27
Width: 1200
Flags: HW
HStem: -20 154<446.041 760.308> 1371 154<444.826 757.162>
VStem: 93 233<253.294 578.141> 164 202<1071.81 1298.22> 847 205<1007.06 1285.02> 880 233<250.012 510.856>
LayerCount: 2
Fore
SplineSet
93 392 m 0,0,1
 93 626 93 626 357 836 c 1,2,3
 270 908 270 908 235 964 c 0,4,5
 164 1076 164 1076 164 1200 c 0,6,7
 164 1332 164 1332 288 1427 c 0,8,9
 415 1525 415 1525 604 1525 c 0,10,11
 809 1525 809 1525 937 1424 c 0,12,13
 1052 1333 1052 1333 1052 1205 c 0,14,15
 1052 1015 1052 1015 912 858 c 0,16,17
 874 815 874 815 836 778 c 1,18,19
 975 703 975 703 1023.5 646 c 128,-1,20
 1072 589 1072 589 1092.5 533 c 128,-1,21
 1113 477 1113 477 1113 391.5 c 128,-1,22
 1113 306 1113 306 1072.5 228 c 128,-1,23
 1032 150 1032 150 964 95 c 0,24,25
 823 -20 823 -20 625 -20 c 0,26,27
 367 -20 367 -20 226 96 c 1,28,29
 93 207 93 207 93 392 c 0,0,1
487 761 m 1,30,31
 326 591 326 591 326 413 c 0,32,33
 326 258 326 258 442 180 c 0,34,35
 510 134 510 134 593 134 c 128,-1,36
 676 134 676 134 726 158 c 0,37,38
 776 184 776 184 811 220 c 0,39,40
 880 294 880 294 880 365 c 128,-1,41
 880 436 880 436 851.5 486 c 128,-1,42
 823 536 823 536 771 582 c 0,43,44
 693 650 693 650 487 761 c 1,30,31
702 850 m 1,45,46
 847 1037 847 1037 847 1160 c 0,47,48
 847 1254 847 1254 774 1314 c 0,49,50
 706 1371 706 1371 604 1371 c 0,51,52
 493 1370 493 1370 427 1314 c 0,53,54
 366 1262 366 1262 366 1189 c 0,55,56
 366 1061 366 1061 573 928 c 0,57,58
 634 889 634 889 702 850 c 1,45,46
EndSplineSet
EndChar

StartChar: nine
Encoding: 57 57 28
Width: 1200
Flags: HW
HStem: -20 154<397.181 698.599> 586 154<445.538 743.765> 1371 154<450.606 720.158>
VStem: 92 233<874.632 1233.77> 135 307<228.364 449.558> 865 233<398.969 696 853.437 1147.88>
LayerCount: 2
Fore
SplineSet
368 205 m 1,0,1
 428 134 428 134 566 134 c 0,2,3
 695 134 695 134 775 268 c 0,4,5
 865 419 865 419 865 696 c 1,6,7
 799 622 799 622 661 596 c 0,8,9
 612 586 612 586 531.5 586 c 128,-1,10
 451 586 451 586 366 618 c 128,-1,11
 281 650 281 650 220 712 c 0,12,13
 92 841 92 841 92 1062 c 0,14,15
 92 1268 92 1268 248 1401 c 0,16,17
 394 1525 394 1525 579 1525 c 0,18,19
 1098 1525 1098 1525 1098 795 c 0,20,21
 1098 174 1098 174 780 26 c 0,22,23
 680 -20 680 -20 578 -20 c 0,24,25
 389 -20 389 -20 268 71 c 1,26,27
 135 173 135 173 135 340 c 0,28,29
 135 406 135 406 180 451 c 128,-1,30
 225 496 225 496 289 496 c 256,31,32
 354 496 354 496 398 451 c 0,33,34
 442 405 442 405 442 340 c 0,35,36
 442 243 442 243 368 205 c 1,0,1
865 928 m 1,37,38
 864 1125 864 1125 794 1246 c 0,39,40
 721 1371 721 1371 593 1371 c 0,41,42
 477 1370 477 1370 402 1282 c 0,43,44
 325 1191 325 1191 325 1057.5 c 128,-1,45
 325 924 325 924 397.5 832 c 128,-1,46
 470 740 470 740 579 740 c 128,-1,47
 688 740 688 740 763 798 c 128,-1,48
 838 856 838 856 865 928 c 1,37,38
EndSplineSet
EndChar

StartChar: colon
Encoding: 58 58 29
Width: 559
Flags: HW
HStem: 26 276<191.883 376.807> 635 274<181.197 382.84>
VStem: 142 275<65.2544 266.842 675.739 874.604>
LayerCount: 2
Fore
SplineSet
142 772 m 256,0,1
 142 830 142 830 181 870 c 0,2,3
 218 908 218 908 264 909 c 0,4,5
 268 909 268 909 271 909 c 0,6,7
 311 909 311 909 334 899 c 0,8,9
 360 888 360 888 378 870 c 0,10,11
 418 830 418 830 417 772 c 256,12,13
 418 714 418 714 378 674 c 0,14,15
 340 636 340 636 294 635 c 0,16,17
 218 635 218 635 180 674.5 c 128,-1,18
 142 714 142 714 142 772 c 256,0,1
191 54 m 0,19,20
 142 104 142 104 142 162 c 256,21,22
 142 222 142 222 181 262 c 0,23,24
 219 302 219 302 264 302 c 128,-1,25
 309 302 309 302 334 290 c 0,26,27
 360 280 360 280 378 262 c 0,28,29
 418 222 418 222 417 162 c 256,30,31
 418 104 418 104 378 64 c 0,32,33
 340 26 340 26 279.5 26 c 128,-1,34
 219 26 219 26 191 54 c 0,19,20
EndSplineSet
EndChar

StartChar: semicolon
Encoding: 59 59 30
Width: 573
Flags: HW
HStem: 635 264<186.712 386.84>
VStem: 142 293<5.76782 211.992 683.461 860.3>
LayerCount: 2
Fore
SplineSet
185.5 673.5 m 128,-1,1
 147 712 147 712 147 772 c 256,2,3
 147 866 147 866 229 899 c 0,4,5
 254 909 254 909 283.5 909 c 128,-1,6
 313 909 313 909 338 899 c 0,7,8
 364 888 364 888 382 870 c 0,9,10
 422 830 422 830 421 772 c 256,11,12
 422 714 422 714 382 674 c 0,13,14
 344 636 344 636 298 635 c 0,15,0
 224 635 224 635 185.5 673.5 c 128,-1,1
216 -16 m 1,16,17
 142 23 142 23 142 113 c 0,18,19
 142 172 142 172 184 212 c 128,-1,20
 226 252 226 252 271 252 c 128,-1,21
 316 252 316 252 343 241 c 128,-1,22
 370 230 370 230 390 212 c 0,23,24
 434 172 434 172 435 113 c 0,25,26
 435 -63 435 -63 170 -270 c 1,27,28
 141 -270 141 -270 125.5 -254 c 128,-1,29
 110 -238 110 -238 110 -211 c 1,30,31
 216 -92 216 -92 216 -16 c 1,16,17
EndSplineSet
EndChar

StartChar: less
Encoding: 60 60 31
Width: 1075
Flags: HW
LayerCount: 2
Fore
SplineSet
106 558 m 2,0,1
 56 588 56 588 56 641 c 256,2,3
 56 701 56 701 109 731 c 2,4,-1
 900 1174 l 1,5,6
 933 1163 933 1163 950 1132 c 128,-1,7
 967 1101 967 1101 967 1068 c 1,8,-1
 331 642 l 1,9,-1
 967 196 l 1,10,11
 967 120 967 120 905 96 c 1,12,-1
 106 558 l 2,0,1
EndSplineSet
EndChar

StartChar: equal
Encoding: 61 61 32
Width: 1165
Flags: HW
HStem: 389 154<126.415 1038.85> 762 154<133.468 1038.85>
LayerCount: 2
Fore
SplineSet
159 762 m 2,0,1
 130 762 130 762 120 814 c 0,2,3
 118 827 118 827 118 838 c 256,4,5
 118 884 118 884 133 900 c 128,-1,6
 148 916 148 916 159 916 c 2,7,-1
 1005 916 l 2,8,9
 1032 916 1032 916 1042 865 c 0,10,11
 1044 852 1044 852 1044 841 c 128,-1,12
 1044 830 1044 830 1042 816 c 0,13,14
 1038 802 1038 802 1034 790 c 0,15,16
 1024 762 1024 762 1005 762 c 2,17,-1
 159 762 l 2,0,1
163 389 m 2,18,19
 134 389 134 389 124 441 c 0,20,21
 122 454 122 454 122 465.5 c 128,-1,22
 122 477 122 477 124.5 490.5 c 128,-1,23
 127 504 127 504 132 516 c 0,24,25
 144 543 144 543 162 543 c 0,26,27
 163 543 l 2,28,-1
 1005 543 l 2,29,30
 1032 543 1032 543 1042 493 c 0,31,32
 1044 480 1044 480 1044 468.5 c 128,-1,33
 1044 457 1044 457 1042 443 c 0,34,35
 1038 429 1038 429 1034 417 c 0,36,37
 1024 389 1024 389 1005 389 c 2,38,-1
 163 389 l 2,18,19
EndSplineSet
EndChar

StartChar: greater
Encoding: 62 62 33
Width: 1074
Flags: HW
LayerCount: 2
Fore
SplineSet
170 96 m 1,0,1
 108 120 108 120 108 196 c 1,2,-1
 744 642 l 1,3,-1
 108 1068 l 1,4,5
 108 1125 108 1125 146 1158 c 0,6,7
 158 1169 158 1169 175 1174 c 1,8,-1
 966 731 l 2,9,10
 1019 701 1019 701 1019 641 c 256,11,12
 1019 588 1019 588 969 558 c 2,13,-1
 170 96 l 1,0,1
EndSplineSet
EndChar

StartChar: question
Encoding: 63 63 34
Width: 947
Flags: HW
HStem: -20 279<343.067 523.492> 1371 154<315.428 582.6>
VStem: 56 280<1170.68 1358.72> 281 280<16.667 221.322> 326 195<391.613 692> 666 217<997.823 1289.67>
LayerCount: 2
Fore
SplineSet
420 382 m 0,0,1
 326 382 326 382 326 445 c 2,2,-1
 326 715 l 1,3,4
 362 748 362 748 402 778 c 2,5,-1
 479 838 l 1,6,7
 569 911 569 911 603 960 c 0,8,9
 666 1053 666 1053 666 1147 c 0,10,11
 666 1248 666 1248 603 1310 c 0,12,13
 541 1370 541 1370 437 1371 c 0,14,15
 356 1371 356 1371 313 1360 c 1,16,17
 336 1319 336 1319 336 1281 c 128,-1,18
 336 1243 336 1243 325 1217.5 c 128,-1,19
 314 1192 314 1192 295 1174 c 0,20,21
 254 1134 254 1134 210 1134 c 128,-1,22
 166 1134 166 1134 140 1144 c 0,23,24
 114 1156 114 1156 96 1174 c 0,25,26
 56 1213 56 1213 56 1266.5 c 128,-1,27
 56 1320 56 1320 78 1356.5 c 128,-1,28
 100 1393 100 1393 136 1420.5 c 128,-1,29
 172 1448 172 1448 216.5 1468 c 128,-1,30
 261 1488 261 1488 307 1500 c 0,31,32
 396 1524 396 1524 482 1525 c 0,33,34
 485 1525 485 1525 488 1525 c 0,35,36
 570 1524 570 1524 646 1496 c 0,37,38
 724 1466 724 1466 776 1418 c 0,39,40
 883 1318 883 1318 883 1165 c 0,41,42
 883 967 883 967 650 792 c 1,43,-1
 521 692 l 1,44,-1
 521 445 l 2,45,46
 522 400 522 400 458 386 c 0,47,48
 440 382 440 382 420 382 c 0,0,1
342 3 m 0,49,50
 281 44 281 44 281 120 c 0,51,52
 282 212 282 212 366 248 c 0,53,54
 392 259 392 259 421 259 c 128,-1,55
 450 259 450 259 476 248 c 0,56,57
 502 236 502 236 520 218 c 0,58,59
 561 178 561 178 561 133.5 c 128,-1,60
 561 89 561 89 550 63.5 c 128,-1,61
 539 38 539 38 520 20 c 0,62,63
 479 -20 479 -20 427.5 -20 c 128,-1,64
 376 -20 376 -20 342 3 c 0,49,50
EndSplineSet
EndChar

StartChar: at
Encoding: 64 64 35
Width: 1843
Flags: HW
HStem: -350 150<633.626 1194.81> -20 154<758.57 1020.54 1306.44 1470.93> 870 154<782.21 1071.42> 1201 154<664.613 1193.58>
VStem: 68 165<195.24 747.537> 460 205<242.457 729.975> 1102 195<200.016 822.041> 1598 162<296.697 790.392>
LayerCount: 2
Fore
SplineSet
1435 -202 m 1,0,1
 1218 -350 1218 -350 912 -350 c 0,2,3
 523 -350 523 -350 298 -139 c 1,4,5
 68 74 68 74 68 459 c 0,6,7
 68 857 68 857 317 1109 c 0,8,9
 473 1267 473 1267 698 1326 c 0,10,11
 809 1355 809 1355 964 1355 c 128,-1,12
 1119 1355 1119 1355 1272.5 1292 c 128,-1,13
 1426 1229 1426 1229 1534 1118 c 0,14,15
 1760 887 1760 887 1760 529 c 0,16,17
 1760 304 1760 304 1631 148 c 0,18,19
 1500 -11 1500 -11 1301 -11 c 0,20,21
 1300 -11 1300 -11 1299 -11 c 0,22,23
 1196 -11 1196 -11 1156 41 c 0,24,25
 1142 59 1142 59 1132 85 c 1,26,27
 1049 18 1049 18 921 -10 c 0,28,29
 875 -20 875 -20 826 -20 c 0,30,31
 460 -20 460 -20 460 512 c 0,32,33
 460 740 460 740 598 885 c 0,34,35
 730 1024 730 1024 924 1024 c 0,36,37
 1029 1024 1029 1024 1162 987 c 1,38,-1
 1202 1038 l 1,39,40
 1207 1040 1207 1040 1222.5 1040 c 128,-1,41
 1238 1040 1238 1040 1259 1036 c 128,-1,42
 1280 1032 1280 1032 1298 1024 c 0,43,44
 1339 1007 1339 1007 1352 981 c 1,45,-1
 1297 766 l 1,46,-1
 1297 196 l 2,47,48
 1296 155 1296 155 1306 145 c 0,49,50
 1320 130 1320 130 1359 130 c 128,-1,51
 1398 130 1398 130 1439.5 155 c 128,-1,52
 1481 180 1481 180 1516 230 c 0,53,54
 1598 348 1598 348 1598 508.5 c 128,-1,55
 1598 669 1598 669 1553 791.5 c 128,-1,56
 1508 914 1508 914 1422 1005 c 0,57,58
 1238 1201 1238 1201 930 1201 c 0,59,60
 620 1200 620 1200 431 1006 c 0,61,62
 233 803 233 803 233 448 c 0,63,64
 234 162 234 162 416 -17 c 0,65,66
 602 -200 602 -200 887 -200 c 128,-1,67
 1172 -200 1172 -200 1348 -84 c 1,68,69
 1394 -104 1394 -104 1424 -168 c 0,70,71
 1432 -186 1432 -186 1435 -202 c 1,0,1
1102 805 m 1,72,73
 1019 870 1019 870 914 870 c 0,74,75
 756 870 756 870 690 686 c 0,76,77
 665 616 665 616 665 510.5 c 128,-1,78
 665 405 665 405 685 316 c 128,-1,79
 705 227 705 227 753.5 180.5 c 128,-1,80
 802 134 802 134 867 134 c 0,81,82
 982 134 982 134 1102 234 c 1,83,-1
 1102 805 l 1,72,73
EndSplineSet
EndChar

StartChar: A
Encoding: 65 65 36
Width: 1424
Flags: HW
HStem: 0 141<-7.40625 138.453 287 471.079 910.468 1059.97 1301 1429.05> 499 154<485 874> 1505 20G<685.5 733.5>
LayerCount: 2
Fore
SplineSet
459 141 m 2,0,1
 485 141 485 141 485 83 c 0,2,3
 485 31 485 31 471.5 15.5 c 128,-1,4
 458 0 458 0 449 0 c 2,5,-1
 13 0 l 2,6,7
 -12 0 -12 0 -12 57 c 0,8,9
 -12 109 -12 109 12 133 c 0,10,11
 20 141 20 141 48 141 c 0,12,13
 122 141 122 141 145 198 c 2,14,-1
 654 1505 l 2,15,16
 662 1525 662 1525 709 1525 c 0,17,18
 758 1525 758 1525 768 1505 c 1,19,-1
 1301 141 l 1,20,-1
 1418 141 l 2,21,22
 1444 141 1444 141 1444 81 c 0,23,24
 1444 31 1444 31 1429.5 15.5 c 128,-1,25
 1415 0 1415 0 1405 0 c 2,26,-1
 920 0 l 2,27,28
 895 0 895 0 895 55 c 0,29,30
 895 107 895 107 910 124 c 128,-1,31
 925 141 925 141 936 141 c 0,32,33
 1060 141 1060 141 1060 165 c 0,34,35
 1060 174 1060 174 1052 190 c 1,36,-1
 933 499 l 1,37,-1
 426 499 l 1,38,-1
 287 141 l 1,39,-1
 459 141 l 2,0,1
485 653 m 1,40,-1
 874 653 l 1,41,-1
 681 1157 l 1,42,-1
 485 653 l 1,40,-1
EndSplineSet
EndChar

StartChar: B
Encoding: 66 66 37
Width: 1329
Flags: HW
HStem: 0 142<128.255 291 542.748 905.391> 733 154<502 834.899> 1364 141<78.042 291 502 784.615>
VStem: 291 211<182.682 733 887 1350.86> 924 233<982.939 1263.47> 1016 233<245.151 581.44>
LayerCount: 2
Fore
SplineSet
125 0 m 2,0,1
 100 0 100 0 100 57 c 0,2,3
 100 106 100 106 128 134 c 0,4,5
 136 142 136 142 162.5 142 c 128,-1,6
 189 142 189 142 218 144 c 128,-1,7
 247 146 247 146 263 151 c 0,8,9
 291 160 291 160 291 184 c 2,10,-1
 291 1348 l 2,11,12
 291 1364 291 1364 278 1364 c 2,13,-1
 115 1364 l 2,14,15
 86 1364 86 1364 76 1418 c 0,16,17
 74 1432 74 1432 74 1446 c 0,18,19
 74 1505 74 1505 100 1505 c 2,20,-1
 614 1505 l 2,21,22
 1157 1505 1157 1505 1157 1137 c 0,23,24
 1157 1023 1157 1023 1075 932 c 0,25,26
 996 845 996 845 881 814 c 1,27,28
 1050 790 1050 790 1150 690 c 0,29,30
 1249 590 1249 590 1249 438 c 0,31,32
 1249 120 1249 120 933 23 c 0,33,34
 825 -10 825 -10 678 -10 c 1,35,-1
 427 0 l 1,36,-1
 125 0 l 2,0,1
502 298 m 2,37,38
 502 219 502 219 541.5 181.5 c 128,-1,39
 581 144 581 144 674.5 144 c 128,-1,40
 768 144 768 144 832 158 c 128,-1,41
 896 172 896 172 937 206 c 0,42,43
 1016 271 1016 271 1016 437 c 0,44,45
 1016 580 1016 580 884 662 c 0,46,47
 771 733 771 733 610 733 c 0,48,49
 608 733 608 733 606 733 c 2,50,-1
 502 733 l 1,51,-1
 502 298 l 2,37,38
502 887 m 1,52,-1
 655 887 l 2,53,54
 841 887 841 887 901 1005 c 0,55,56
 924 1050 924 1050 924 1123 c 128,-1,57
 924 1196 924 1196 896 1242 c 128,-1,58
 868 1288 868 1288 814 1312 c 0,59,60
 727 1351 727 1351 502 1351 c 1,61,-1
 502 887 l 1,52,-1
EndSplineSet
EndChar

StartChar: C
Encoding: 67 67 38
Width: 1274
Flags: HW
HStem: -20 164<584.016 963.515> 1371 154<584.812 922.994>
VStem: 102 233<462.433 1060.33> 903 307<1132.44 1333.81>
LayerCount: 2
Fore
SplineSet
925 1335 m 1,0,1
 866 1371 866 1371 770 1371 c 128,-1,2
 674 1371 674 1371 594 1332 c 0,3,4
 516 1293 516 1293 458 1221 c 0,5,6
 336 1068 336 1068 335 823 c 0,7,8
 335 316 335 316 584 186 c 0,9,10
 664 144 664 144 746.5 144 c 0,11,12
 830 144 830 144 878 158 c 128,-1,13
 926 172 926 172 964 190 c 0,14,15
 1004 208 1004 208 1034 228 c 0,16,17
 1093 268 1093 268 1107 268 c 128,-1,18
 1121 268 1121 268 1135 257 c 128,-1,19
 1149 246 1149 246 1161 230 c 0,20,21
 1188 195 1188 195 1188 167.5 c 128,-1,22
 1188 140 1188 140 1170 124 c 0,23,24
 1150 108 1150 108 1112 84 c 128,-1,25
 1074 60 1074 60 1018 36 c 0,26,27
 885 -19 885 -19 741 -20 c 0,28,29
 455 -20 455 -20 287 162 c 1,30,31
 102 367 102 367 102 734 c 0,32,33
 102 1120 102 1120 296 1330 c 0,34,35
 476 1525 476 1525 774 1525 c 0,36,-1
 777 1525 l 0,37,38
 934 1525 934 1525 1065 1449 c 0,39,40
 1210 1365 1210 1365 1210 1241 c 0,41,42
 1210 1177 1210 1177 1166 1131 c 0,43,44
 1123 1087 1123 1087 1057 1087 c 256,45,46
 992 1087 992 1087 948 1131 c 0,47,48
 903 1176 903 1176 903 1236.5 c 128,-1,49
 903 1297 903 1297 925 1335 c 1,0,1
EndSplineSet
EndChar

StartChar: D
Encoding: 68 68 39
Width: 1517
Flags: HW
HStem: 0 154<127.224 290 501 867.872> 1351 154<81.2363 290 501 896.053>
VStem: 290 211<154.179 1350.86> 1180 233<477.662 1033.25>
LayerCount: 2
Fore
SplineSet
128 0 m 2,0,1
 101 0 101 0 101 57 c 0,2,3
 101 103 101 103 127 133 c 0,4,5
 134 141 134 141 160 141 c 0,6,7
 186 142 186 142 216 144 c 0,8,9
 246 146 246 146 262 151 c 0,10,11
 290 160 290 160 290 184 c 2,12,-1
 290 1350 l 2,13,14
 290 1364 290 1364 278 1364 c 2,15,-1
 114 1364 l 2,16,17
 86 1364 86 1364 76 1416 c 0,18,19
 74 1430 74 1430 73 1442 c 0,20,21
 73 1505 73 1505 99 1505 c 2,22,-1
 681 1505 l 2,23,24
 1076 1505 1076 1505 1250 1315 c 0,25,26
 1413 1137 1413 1137 1413 755 c 0,27,28
 1413 375 1413 375 1184 176 c 0,29,30
 982 1 982 1 681 0 c 2,31,-1
 128 0 l 2,0,1
501 154 m 1,32,-1
 648 154 l 2,33,34
 862 154 862 154 1012 293 c 0,35,36
 1180 450 1180 450 1180 723 c 0,37,38
 1180 1191 1180 1191 888 1312 c 0,39,40
 794 1351 794 1351 673 1351 c 2,41,-1
 501 1351 l 1,42,-1
 501 154 l 1,32,-1
EndSplineSet
EndChar

StartChar: E
Encoding: 69 69 40
Width: 1288
Flags: HW
HStem: 0 134<104.19 289.665> 694 154<501 808.741> 1002 20G<852 908> 1180 325<1058.02 1199> 1351 154<81.2363 290 501 1034.77>
VStem: 290 211<154.179 694 848 1350.86> 820 144<517.962 694 871.016 1007.56> 1058 141<1181.4 1309.24>
LayerCount: 2
Fore
SplineSet
128 0 m 2,0,1
 101 0 101 0 101 59 c 0,2,3
 102 110 102 110 126 134 c 0,4,5
 134 142 134 142 161 141.5 c 128,-1,6
 188 141 188 141 217 143.5 c 128,-1,7
 246 146 246 146 262 151 c 0,8,9
 290 160 290 160 290 184 c 2,10,-1
 290 1350 l 2,11,12
 290 1364 290 1364 278 1364 c 2,13,-1
 114 1364 l 2,14,15
 86 1364 86 1364 76 1416 c 0,16,17
 74 1430 74 1430 73 1442 c 0,18,19
 73 1505 73 1505 99 1505 c 2,20,-1
 1199 1505 l 1,21,-1
 1199 1214 l 2,22,23
 1199 1180 1199 1180 1128.5 1180 c 128,-1,24
 1058 1180 1058 1180 1058 1202 c 0,25,26
 1058 1286 1058 1286 1036 1310 c 0,27,28
 997 1351 997 1351 894 1351 c 2,29,-1
 501 1351 l 1,30,-1
 501 848 l 1,31,-1
 755 848 l 2,32,33
 801 848 801 848 809 870 c 0,34,35
 822 902 822 902 822 999 c 0,36,37
 822 1022 822 1022 882 1022 c 0,38,39
 934 1022 934 1022 949 1008 c 128,-1,40
 964 994 964 994 964 985 c 2,41,-1
 964 557 l 2,42,43
 964 516 964 516 892 516 c 128,-1,44
 820 516 820 516 820 543 c 2,45,-1
 820 694 l 1,46,-1
 501 694 l 1,47,-1
 501 154 l 1,48,-1
 1031 154 l 1,49,-1
 1107 303 l 2,50,51
 1117 322 1117 322 1144.5 322 c 128,-1,52
 1172 322 1172 322 1187 319 c 128,-1,53
 1202 316 1202 316 1214 311 c 0,54,55
 1241 300 1241 300 1241 281 c 0,56,57
 1241 275 1241 275 1240 274 c 2,58,-1
 1148 0 l 1,59,-1
 128 0 l 2,0,1
EndSplineSet
EndChar

StartChar: F
Encoding: 70 70 41
Width: 1236
Flags: HW
HStem: 0 141<105.805 290 501 726.017> 694 154<501 808.741> 1002 20G<852 908> 1180 325<1058.02 1199> 1351 154<81.2363 290 501 1034.77>
VStem: 290 211<147.104 694 848 1350.86> 820 144<517.962 694 871.016 1007.56> 1058 141<1181.4 1309.24>
LayerCount: 2
Fore
SplineSet
128 0 m 2,0,1
 101 0 101 0 101 59 c 0,2,3
 102 110 102 110 126 134 c 0,4,5
 134 142 134 142 161 141.5 c 128,-1,6
 188 141 188 141 217 143.5 c 128,-1,7
 246 146 246 146 262 151 c 0,8,9
 290 160 290 160 290 184 c 2,10,-1
 290 1350 l 2,11,12
 290 1364 290 1364 278 1364 c 2,13,-1
 114 1364 l 2,14,15
 86 1364 86 1364 76 1416 c 0,16,17
 74 1430 74 1430 73 1442 c 0,18,19
 73 1505 73 1505 99 1505 c 2,20,-1
 1199 1505 l 1,21,-1
 1199 1214 l 2,22,23
 1199 1180 1199 1180 1128.5 1180 c 128,-1,24
 1058 1180 1058 1180 1058 1202 c 0,25,26
 1058 1286 1058 1286 1036 1310 c 0,27,28
 997 1351 997 1351 894 1351 c 2,29,-1
 501 1351 l 1,30,-1
 501 848 l 1,31,-1
 755 848 l 2,32,33
 801 848 801 848 809 870 c 0,34,35
 822 902 822 902 822 999 c 0,36,37
 822 1022 822 1022 882 1022 c 0,38,39
 934 1022 934 1022 949 1008 c 128,-1,40
 964 994 964 994 964 985 c 2,41,-1
 964 557 l 2,42,43
 964 516 964 516 892 516 c 128,-1,44
 820 516 820 516 820 543 c 2,45,-1
 820 694 l 1,46,-1
 501 694 l 1,47,-1
 501 141 l 1,48,-1
 716 141 l 2,49,50
 742 141 742 141 742 80 c 0,51,52
 742 31 742 31 726.5 15.5 c 128,-1,53
 711 0 711 0 701 0 c 2,54,-1
 128 0 l 2,0,1
EndSplineSet
EndChar

StartChar: G
Encoding: 71 71 42
Width: 1363
Flags: HW
HStem: -20 164<580.141 983.841> 491 141<774.415 987 1198 1302.44> 1371 154<588.604 939.589>
VStem: 100 233<465.703 1056.21> 926 307<1132.44 1334.84> 987 211<170 490.996>
LayerCount: 2
Fore
SplineSet
1279 632 m 2,0,1
 1304 632 1304 632 1304 561.5 c 128,-1,2
 1304 491 1304 491 1269 491 c 2,3,-1
 1198 491 l 1,4,-1
 1198 147 l 1,5,6
 1108 72 1108 72 1041 43 c 0,7,8
 897 -20 897 -20 746 -20 c 0,9,10
 465 -20 465 -20 284 186 c 1,11,12
 100 402 100 402 100 734 c 0,13,14
 100 1118 100 1118 293 1330 c 0,15,16
 471 1525 471 1525 770 1525 c 0,17,-1
 773 1525 l 0,18,-1
 778 1525 l 0,19,20
 961 1525 961 1525 1091 1450 c 0,21,22
 1233 1369 1233 1369 1233 1241 c 0,23,24
 1232 1177 1232 1177 1188 1131 c 0,25,26
 1145 1087 1145 1087 1080 1087 c 256,27,28
 1015 1087 1015 1087 971 1131 c 0,29,30
 926 1176 926 1176 926 1237.5 c 128,-1,31
 926 1299 926 1299 942 1336 c 1,32,33
 865 1371 865 1371 768.5 1371 c 128,-1,34
 672 1371 672 1371 592 1332 c 0,35,36
 514 1293 514 1293 456 1221 c 0,37,38
 333 1067 333 1067 333 819 c 0,39,40
 333 316 333 316 580 186 c 0,41,42
 660 144 660 144 773 144 c 128,-1,43
 886 144 886 144 987 186 c 1,44,-1
 987 475 l 2,45,46
 987 491 987 491 974 491 c 2,47,-1
 811 491 l 2,48,49
 782 492 782 492 772 546 c 0,50,51
 770 560 770 560 770 573 c 0,52,53
 770 632 770 632 796 632 c 2,54,-1
 1279 632 l 2,0,1
EndSplineSet
EndChar

StartChar: H
Encoding: 72 72 43
Width: 1612
Flags: HW
HStem: 0 141<126.255 290 501 679.017 948.255 1111 1322 1501.02> 694 154<501 1111> 1364 141<77.9766 290 501 714.438 897.797 1111 1322 1535.44>
VStem: 290 211<147.104 694 848 1364> 1111 211<147.104 694 848 1364>
LayerCount: 2
Fore
SplineSet
122 0 m 2,0,1
 99 0 99 0 99 60 c 0,2,3
 99 107 99 107 126 134 c 0,4,5
 134 142 134 142 161 141.5 c 128,-1,6
 188 141 188 141 217 143.5 c 128,-1,7
 246 146 246 146 262 151 c 0,8,9
 290 160 290 160 290 184 c 2,10,-1
 290 1348 l 2,11,12
 290 1364 290 1364 277 1364 c 2,13,-1
 114 1364 l 2,14,15
 86 1364 86 1364 76 1417 c 0,16,17
 74 1431 74 1431 73 1444 c 0,18,19
 73 1505 73 1505 99 1505 c 2,20,-1
 691 1505 l 2,21,22
 716 1505 716 1505 716 1434.5 c 128,-1,23
 716 1364 716 1364 681 1364 c 2,24,-1
 501 1364 l 1,25,-1
 501 848 l 1,26,-1
 1111 848 l 1,27,-1
 1111 1348 l 2,28,29
 1111 1364 1111 1364 1099 1364 c 2,30,-1
 935 1364 l 2,31,32
 906 1364 906 1364 896 1417 c 0,33,34
 894 1431 894 1431 894 1444 c 0,35,36
 894 1505 894 1505 921 1505 c 2,37,-1
 1512 1505 l 2,38,39
 1537 1505 1537 1505 1537 1434.5 c 128,-1,40
 1537 1364 1537 1364 1502 1364 c 2,41,-1
 1322 1364 l 1,42,-1
 1322 141 l 1,43,-1
 1490 141 l 2,44,45
 1517 141 1517 141 1517 80 c 0,46,47
 1517 31 1517 31 1501.5 15.5 c 128,-1,48
 1486 0 1486 0 1476 0 c 2,49,-1
 945 0 l 2,50,51
 921 0 921 0 921 57 c 0,52,53
 921 108 921 108 948 134 c 0,54,55
 956 142 956 142 983 141.5 c 128,-1,56
 1010 141 1010 141 1038.5 143.5 c 128,-1,57
 1067 146 1067 146 1083 151 c 0,58,59
 1111 160 1111 160 1111 184 c 2,60,-1
 1111 694 l 1,61,-1
 501 694 l 1,62,-1
 501 141 l 1,63,-1
 669 141 l 2,64,65
 695 141 695 141 695 80 c 0,66,67
 695 31 695 31 679.5 15.5 c 128,-1,68
 664 0 664 0 654 0 c 2,69,-1
 122 0 l 2,0,1
EndSplineSet
EndChar

StartChar: I
Encoding: 73 73 44
Width: 791
Flags: HW
HStem: 0 141<128.255 291 502 680.017> 1364 141<78.042 291 502 715.438>
VStem: 291 211<147.104 1364>
LayerCount: 2
Fore
SplineSet
123 0 m 2,0,1
 100 0 100 0 100 57 c 0,2,3
 100 106 100 106 128 134 c 0,4,5
 136 142 136 142 162.5 141.5 c 128,-1,6
 189 141 189 141 218 143.5 c 128,-1,7
 247 146 247 146 263 151 c 0,8,9
 291 160 291 160 291 184 c 2,10,-1
 291 1348 l 2,11,12
 291 1364 291 1364 278 1364 c 2,13,-1
 115 1364 l 2,14,15
 86 1364 86 1364 76 1418 c 0,16,17
 74 1432 74 1432 74 1446 c 0,18,19
 74 1505 74 1505 100 1505 c 2,20,-1
 692 1505 l 2,21,22
 717 1505 717 1505 717 1434.5 c 128,-1,23
 717 1364 717 1364 682 1364 c 2,24,-1
 502 1364 l 1,25,-1
 502 141 l 1,26,-1
 670 141 l 2,27,28
 696 141 696 141 696 80 c 0,29,30
 696 31 696 31 680.5 15.5 c 128,-1,31
 665 0 665 0 655 0 c 2,32,-1
 123 0 l 2,0,1
EndSplineSet
EndChar

StartChar: J
Encoding: 74 74 45
Width: 756
Flags: HW
HStem: -440 276<-17.2549 183.601> 1364 141<60.042 273 484 697.438>
VStem: 273 211<-162.364 1364>
LayerCount: 2
Fore
SplineSet
674 1505 m 2,0,1
 699 1505 699 1505 699 1434.5 c 128,-1,2
 699 1364 699 1364 664 1364 c 2,3,-1
 484 1364 l 1,4,-1
 484 68 l 2,5,6
 484 -119 484 -119 384 -271 c 0,7,8
 314 -375 314 -375 206 -418 c 0,9,10
 150 -440 150 -440 102.5 -440 c 128,-1,11
 55 -440 55 -440 30 -430 c 0,12,13
 4 -420 4 -420 -14 -402 c 0,14,15
 -53 -363 -53 -363 -53 -313 c 0,16,17
 -53 -213 -53 -213 30 -174 c 1,18,19
 54 -164 54 -164 84 -164 c 0,20,21
 159 -164 159 -164 201 -231 c 1,22,23
 273 -186 273 -186 273 0 c 2,24,-1
 273 1348 l 2,25,26
 273 1364 273 1364 260 1364 c 2,27,-1
 97 1364 l 2,28,29
 68 1364 68 1364 58 1418 c 0,30,31
 56 1432 56 1432 56 1446 c 0,32,33
 56 1505 56 1505 82 1505 c 2,34,-1
 674 1505 l 2,0,1
EndSplineSet
EndChar

StartChar: K
Encoding: 75 75 46
Width: 1487
Flags: HW
HStem: 0 141<128.255 291 502 680.017 1310.06 1469.05> 1364 141<78.042 291 502 663.438 949.921 1094 1285.01 1429.41>
VStem: 291 211<147.104 1364>
LayerCount: 2
Fore
SplineSet
123 0 m 2,0,1
 100 0 100 0 100 57 c 0,2,3
 100 106 100 106 128 134 c 0,4,5
 136 142 136 142 162.5 141.5 c 128,-1,6
 189 141 189 141 218 143.5 c 128,-1,7
 247 146 247 146 263 151 c 0,8,9
 291 160 291 160 291 184 c 2,10,-1
 291 1348 l 2,11,12
 291 1364 291 1364 278 1364 c 2,13,-1
 115 1364 l 2,14,15
 86 1364 86 1364 76 1418 c 0,16,17
 74 1432 74 1432 74 1446 c 0,18,19
 74 1505 74 1505 100 1505 c 2,20,-1
 640 1505 l 2,21,22
 665 1505 665 1505 665 1434.5 c 128,-1,23
 665 1364 665 1364 630 1364 c 2,24,-1
 502 1364 l 1,25,-1
 502 141 l 1,26,-1
 670 141 l 2,27,28
 696 141 696 141 696 80 c 0,29,30
 696 31 696 31 680.5 15.5 c 128,-1,31
 665 0 665 0 655 0 c 2,32,-1
 123 0 l 2,0,1
1460 141 m 0,33,34
 1484 141 1484 141 1484 76 c 0,35,36
 1484 29 1484 29 1469.5 14.5 c 128,-1,37
 1455 0 1455 0 1445 0 c 2,38,-1
 1275 0 l 2,39,40
 1206 0 1206 0 1136 62 c 0,41,42
 1116 80 1116 80 1100 102 c 2,43,-1
 569 796 l 1,44,-1
 1094 1364 l 1,45,-1
 962 1364 l 2,46,47
 936 1364 936 1364 936 1422 c 0,48,49
 936 1474 936 1474 949.5 1489.5 c 128,-1,50
 963 1505 963 1505 972 1505 c 2,51,-1
 1409 1505 l 2,52,53
 1434 1505 1434 1505 1434 1448 c 0,54,55
 1434 1396 1434 1396 1410 1372 c 0,56,57
 1402 1364 1402 1364 1374 1364 c 0,58,59
 1323 1364 1323 1364 1285 1321 c 2,60,-1
 828 803 l 1,61,-1
 1268 230 l 2,62,63
 1303 184 1303 184 1346.5 162.5 c 128,-1,64
 1390 141 1390 141 1460 141 c 0,33,34
EndSplineSet
EndChar

StartChar: L
Encoding: 76 76 47
Width: 1183
Flags: HW
HStem: 0 154<126.255 290 501 970> 1364 141<78.0332 290 501 714.438>
VStem: 290 211<154.179 1364>
LayerCount: 2
Fore
SplineSet
122 0 m 2,0,1
 99 0 99 0 99 62 c 0,2,3
 99 107 99 107 126 134 c 0,4,5
 134 142 134 142 161 141.5 c 128,-1,6
 188 141 188 141 217 143.5 c 128,-1,7
 246 146 246 146 262 151 c 0,8,9
 290 160 290 160 290 184 c 2,10,-1
 290 1348 l 2,11,12
 290 1364 290 1364 277 1364 c 2,13,-1
 114 1364 l 2,14,15
 86 1364 86 1364 76 1418 c 0,16,17
 74 1432 74 1432 74 1444 c 0,18,19
 74 1447 74 1447 73 1449 c 0,20,21
 72 1458 72 1458 74 1466 c 0,22,23
 76 1476 76 1476 79 1484 c 0,24,25
 86 1504 86 1504 99 1505 c 2,26,-1
 691 1505 l 2,27,28
 716 1505 716 1505 716 1434.5 c 128,-1,29
 716 1364 716 1364 681 1364 c 2,30,-1
 501 1364 l 1,31,-1
 501 154 l 1,32,-1
 970 154 l 1,33,-1
 1047 303 l 2,34,35
 1057 322 1057 322 1084.5 322 c 128,-1,36
 1112 322 1112 322 1127 319 c 128,-1,37
 1142 316 1142 316 1154 311 c 0,38,39
 1182 299 1182 299 1182 281 c 0,40,41
 1182 275 1182 275 1181 274 c 2,42,-1
 1088 0 l 1,43,-1
 122 0 l 2,0,1
EndSplineSet
EndChar

StartChar: M
Encoding: 77 77 48
Width: 1969
Flags: HW
HStem: 0 141<128.255 291 445 622.017 1306.25 1469 1680 1858.02> 1364 141<78.042 291 1680 1893.44>
VStem: 291 154<147.104 1023> 1469 211<147.104 1119>
LayerCount: 2
Fore
SplineSet
125 0 m 2,0,1
 100 0 100 0 100 57 c 0,2,3
 100 106 100 106 128 134 c 0,4,5
 136 142 136 142 162.5 141.5 c 128,-1,6
 189 141 189 141 218 143.5 c 128,-1,7
 247 146 247 146 263 151 c 0,8,9
 291 160 291 160 291 184 c 2,10,-1
 291 1348 l 2,11,12
 291 1364 291 1364 278 1364 c 2,13,-1
 115 1364 l 2,14,15
 86 1364 86 1364 76 1418 c 0,16,17
 74 1432 74 1432 74 1446 c 0,18,19
 74 1505 74 1505 100 1505 c 2,20,-1
 398 1505 l 2,21,22
 426 1505 426 1505 439 1476 c 2,23,-1
 988 320 l 1,24,-1
 1469 1485 l 2,25,26
 1478 1505 1478 1505 1495 1505 c 2,27,-1
 1870 1505 l 2,28,29
 1895 1505 1895 1505 1895 1434.5 c 128,-1,30
 1895 1364 1895 1364 1860 1364 c 2,31,-1
 1680 1364 l 1,32,-1
 1680 141 l 1,33,-1
 1848 141 l 2,34,35
 1874 141 1874 141 1874 80 c 0,36,37
 1874 31 1874 31 1858.5 15.5 c 128,-1,38
 1843 0 1843 0 1833 0 c 2,39,-1
 1303 0 l 2,40,41
 1278 0 1278 0 1278 57 c 0,42,43
 1278 106 1278 106 1306 134 c 0,44,45
 1314 142 1314 142 1340.5 141.5 c 128,-1,46
 1367 141 1367 141 1396 143.5 c 128,-1,47
 1425 146 1425 146 1441 151 c 0,48,49
 1469 160 1469 160 1469 184 c 2,50,-1
 1469 1119 l 1,51,-1
 1020 0 l 1,52,53
 1008 -12 1008 -12 980 -12 c 0,54,55
 926 -12 926 -12 905 0 c 1,56,-1
 445 1023 l 1,57,-1
 445 141 l 1,58,-1
 612 141 l 2,59,60
 638 141 638 141 638 80 c 0,61,62
 638 31 638 31 622.5 15.5 c 128,-1,63
 607 0 607 0 597 0 c 2,64,-1
 125 0 l 2,0,1
EndSplineSet
EndChar

StartChar: N
Encoding: 78 78 49
Width: 1667
Flags: HW
HStem: 0 141<128.255 291 445 624.532> 1364 141<78.042 291 1028.04 1241 1395 1607.44>
VStem: 291 154<147.104 1127> 1241 154<345 1364>
LayerCount: 2
Fore
SplineSet
125 0 m 2,0,1
 100 0 100 0 100 57 c 0,2,3
 100 106 100 106 128 134 c 0,4,5
 136 142 136 142 162.5 141.5 c 128,-1,6
 189 141 189 141 218 143.5 c 128,-1,7
 247 146 247 146 263 151 c 0,8,9
 291 160 291 160 291 184 c 2,10,-1
 291 1348 l 2,11,12
 291 1364 291 1364 278 1364 c 2,13,-1
 115 1364 l 2,14,15
 86 1364 86 1364 76 1418 c 0,16,17
 74 1432 74 1432 74 1446 c 0,18,19
 74 1505 74 1505 100 1505 c 2,20,-1
 448 1505 l 1,21,-1
 1241 345 l 1,22,-1
 1241 1348 l 2,23,24
 1241 1364 1241 1364 1228 1364 c 2,25,-1
 1065 1364 l 2,26,27
 1036 1364 1036 1364 1026 1418 c 0,28,29
 1024 1432 1024 1432 1024 1446 c 0,30,31
 1024 1505 1024 1505 1050 1505 c 2,32,-1
 1584 1505 l 2,33,34
 1609 1505 1609 1505 1609 1434.5 c 128,-1,35
 1609 1364 1609 1364 1574 1364 c 2,36,-1
 1395 1364 l 1,37,-1
 1395 -2 l 2,38,39
 1395 -20 1395 -20 1321 -20 c 0,40,41
 1250 -20 1250 -20 1239 -2 c 1,42,-1
 445 1127 l 1,43,-1
 445 141 l 1,44,-1
 613 141 l 2,45,46
 640 141 640 141 640 80 c 0,47,48
 640 30 640 30 625 15 c 128,-1,49
 610 0 610 0 598 0 c 2,50,-1
 125 0 l 2,0,1
EndSplineSet
EndChar

StartChar: O
Encoding: 79 79 50
Width: 1501
Flags: HW
HStem: -20 164<580.769 943.105> 1360 165<566.622 901.393>
VStem: 102 230<467.79 1061.78> 1168 230<422.508 1011.35>
LayerCount: 2
Fore
SplineSet
287 161 m 1,0,1
 102 363 102 363 102 731 c 0,2,3
 102 1117 102 1117 294 1328 c 0,4,5
 473 1525 473 1525 774 1525 c 0,6,7
 1077 1524 1077 1524 1239 1310 c 0,8,9
 1398 1100 1398 1100 1398 716 c 0,10,11
 1398 350 1398 350 1198 154 c 0,12,13
 1020 -20 1020 -20 738 -20 c 0,14,15
 737 -20 l 0,16,17
 456 -20 456 -20 287 161 c 1,0,1
332 823 m 0,18,19
 332 488 332 488 445 313 c 1,20,21
 557 145 557 145 763 144 c 0,22,23
 1044 145 1044 145 1135 454 c 0,24,25
 1168 566 1168 566 1168 713 c 128,-1,26
 1168 860 1168 860 1136 975 c 128,-1,27
 1104 1090 1104 1090 1046 1176 c 0,28,29
 922 1360 922 1360 741 1360 c 0,30,31
 566 1360 566 1360 452 1215 c 0,32,33
 332 1064 332 1064 332 823 c 0,18,19
EndSplineSet
EndChar

StartChar: P
Encoding: 80 80 51
Width: 1221
Flags: HW
HStem: 0 141<126.255 290 501 734.017> 629 154<501 790.987> 1364 141<78.168 290 501 769.035>
VStem: 290 211<147.104 629 783 1350.82> 927 233<903.875 1238.25>
LayerCount: 2
Fore
SplineSet
123 0 m 2,0,1
 99 0 99 0 99 59 c 0,2,3
 99 107 99 107 126 134 c 0,4,5
 134 142 134 142 161 141.5 c 128,-1,6
 188 141 188 141 217 143.5 c 128,-1,7
 246 146 246 146 262 151 c 0,8,9
 290 160 290 160 290 184 c 2,10,-1
 290 1349 l 2,11,12
 290 1364 290 1364 277 1364 c 2,13,-1
 114 1364 l 2,14,15
 86 1364 86 1364 76 1418 c 0,16,17
 74 1432 74 1432 73 1446 c 0,18,19
 73 1505 73 1505 100 1505 c 2,20,-1
 656 1505 l 2,21,22
 887 1504 887 1504 1023 1394 c 0,23,24
 1160 1283 1160 1283 1160 1090 c 0,25,26
 1160 858 1160 858 990.5 743.5 c 128,-1,27
 821 629 821 629 501 629 c 1,28,-1
 501 141 l 1,29,-1
 724 141 l 2,30,31
 750 141 750 141 750 80 c 0,32,33
 750 31 750 31 734.5 15.5 c 128,-1,34
 719 0 719 0 709 0 c 2,35,-1
 123 0 l 2,0,1
501 783 m 1,36,37
 711 784 711 784 805 834 c 0,38,39
 927 899 927 899 927 1067 c 0,40,41
 927 1232 927 1232 828 1294 c 0,42,43
 736 1351 736 1351 501 1351 c 1,44,-1
 501 783 l 1,36,37
EndSplineSet
EndChar

StartChar: Q
Encoding: 81 81 52
Width: 1502
Flags: HW
HStem: -439 154<1227.6 1559.78> -20 165<578.061 764.327> 1360 165<567.224 902.026>
VStem: 103 230<470.258 1059.68> 1169 230<422.492 1011.35>
LayerCount: 2
Fore
SplineSet
1360 -439 m 0,0,1
 997 -439 997 -439 740 -20 c 1,2,-1
 732 -20 l 2,3,4
 457 -20 457 -20 288 161 c 1,5,6
 103 366 103 366 103 731 c 0,7,8
 103 1117 103 1117 295 1328 c 0,9,10
 474 1525 474 1525 775 1525 c 0,11,12
 1078 1524 1078 1524 1240 1310 c 0,13,14
 1399 1100 1399 1100 1399 716 c 0,15,16
 1399 306 1399 306 1157 116 c 0,17,18
 1083 58 1083 58 996 25 c 1,19,20
 1161 -285 1161 -285 1388 -285 c 0,21,22
 1496 -285 1496 -285 1636 -201 c 0,23,24
 1644 -197 1644 -197 1654 -197 c 0,25,26
 1664 -196 1664 -196 1678 -206 c 0,27,28
 1694 -216 1694 -216 1706 -231 c 0,29,30
 1734 -265 1734 -265 1734 -295.5 c 128,-1,31
 1734 -326 1734 -326 1712 -342 c 128,-1,32
 1690 -358 1690 -358 1656 -374 c 0,33,34
 1622 -392 1622 -392 1578 -406 c 0,35,36
 1479 -439 1479 -439 1367 -439 c 0,37,38
 1363 -439 1363 -439 1360 -439 c 0,0,1
446 313 m 1,39,40
 558 145 558 145 764 145 c 0,41,42
 1045 146 1045 146 1136 454 c 0,43,44
 1169 566 1169 566 1169 713 c 128,-1,45
 1169 860 1169 860 1136.5 975 c 128,-1,46
 1104 1090 1104 1090 1046 1176 c 0,47,48
 922 1360 922 1360 742 1360 c 0,49,50
 566 1360 566 1360 452 1215 c 0,51,52
 333 1065 333 1065 333 827 c 0,53,54
 333 488 333 488 446 313 c 1,39,40
EndSplineSet
EndChar

StartChar: R
Encoding: 82 82 53
Width: 1355
Flags: HW
HStem: 0 141<126.255 290 501 734.017 1186.6 1350.05> 629 154<501 651.025> 1364 141<78.168 290 501 769.035>
VStem: 290 211<147.104 629 783 1350.82> 927 233<905.084 1238.25>
LayerCount: 2
Fore
SplineSet
123 0 m 2,0,1
 99 0 99 0 99 59 c 0,2,3
 99 107 99 107 126 134 c 0,4,5
 134 142 134 142 161 141.5 c 128,-1,6
 188 141 188 141 217 143.5 c 128,-1,7
 246 146 246 146 262 151 c 0,8,9
 290 160 290 160 290 184 c 2,10,-1
 290 1349 l 2,11,12
 290 1364 290 1364 277 1364 c 2,13,-1
 114 1364 l 2,14,15
 86 1364 86 1364 76 1418 c 0,16,17
 74 1432 74 1432 73 1446 c 0,18,19
 73 1505 73 1505 100 1505 c 2,20,-1
 656 1505 l 2,21,22
 887 1504 887 1504 1023 1394 c 0,23,24
 1160 1283 1160 1283 1160 1090 c 0,25,26
 1160 787 1160 787 869 682 c 1,27,-1
 1149 230 l 2,28,29
 1179 181 1179 181 1225 161 c 128,-1,30
 1271 141 1271 141 1341 141 c 0,31,32
 1365 141 1365 141 1365 76 c 0,33,34
 1365 29 1365 29 1350.5 14.5 c 128,-1,35
 1336 0 1336 0 1326 0 c 2,36,-1
 1156 0 l 2,37,38
 1080 0 1080 0 1015 60 c 0,39,40
 995 78 995 78 981 102 c 2,41,-1
 653 636 l 1,42,43
 590 629 590 629 501 629 c 1,44,-1
 501 141 l 1,45,-1
 724 141 l 2,46,47
 750 141 750 141 750 80 c 0,48,49
 750 31 750 31 734.5 15.5 c 128,-1,50
 719 0 719 0 709 0 c 2,51,-1
 123 0 l 2,0,1
501 783 m 1,52,53
 711 784 711 784 805 834 c 0,54,55
 927 899 927 899 927 1067 c 0,56,57
 927 1232 927 1232 828 1294 c 0,58,59
 736 1351 736 1351 501 1351 c 1,60,-1
 501 783 l 1,52,53
EndSplineSet
EndChar

StartChar: S
Encoding: 83 83 54
Width: 1177
Flags: HW
HStem: -20 154<365.324 741.82> 1087 369<801.38 973.125> 1371 154<432.887 782.151>
VStem: 84 306<170.563 370.991> 118 211<1046.2 1278.06> 755 307<1132.44 1333.72> 865 211<247.111 491.035>
LayerCount: 2
Fore
SplineSet
784 1335 m 1,0,1
 724 1371 724 1371 642 1371 c 0,2,3
 560 1370 560 1370 506 1356 c 128,-1,4
 452 1342 452 1342 412 1314 c 0,5,6
 329 1256 329 1256 329 1149 c 0,7,8
 329 1071 329 1071 416 1008 c 0,9,10
 458 976 458 976 520 944 c 2,11,-1
 655 874 l 1,12,13
 873 764 873 764 965 670 c 0,14,15
 1076 556 1076 556 1076 395 c 0,16,17
 1076 211 1076 211 932 95.5 c 128,-1,18
 788 -20 788 -20 567 -20 c 0,19,20
 402 -20 402 -20 252 52 c 0,21,22
 150 102 150 102 106 176 c 0,23,24
 83 215 83 215 83 257 c 0,25,26
 83 294 83 294 95 322 c 0,27,28
 107 350 107 350 128 371 c 0,29,30
 173 416 173 416 237 416 c 256,31,32
 302 416 302 416 346 371 c 0,33,34
 390 325 390 325 390 272 c 128,-1,35
 390 219 390 219 362 169 c 1,36,37
 427 134 427 134 523 134 c 128,-1,38
 619 134 619 134 677 152 c 0,39,40
 734 168 734 168 776 200 c 0,41,42
 865 267 865 267 865 378 c 0,43,44
 865 503 865 503 660 622 c 0,45,46
 602 656 602 656 534 689 c 1,47,-1
 391 762 l 1,48,49
 118 906 118 906 118 1147 c 0,50,51
 118 1332 118 1332 268 1434 c 0,52,53
 402 1525 402 1525 609 1525 c 0,54,-1
 614 1525 l 0,55,-1
 618 1525 l 0,56,57
 771 1525 771 1525 904 1456 c 0,58,59
 1062 1375 1062 1375 1062 1241 c 0,60,61
 1062 1177 1062 1177 1018 1131 c 0,62,63
 975 1087 975 1087 909 1087 c 256,64,65
 844 1087 844 1087 800 1131 c 0,66,67
 755 1176 755 1176 755 1241 c 256,68,69
 755 1294 755 1294 784 1335 c 1,0,1
EndSplineSet
EndChar

StartChar: T
Encoding: 84 84 55
Width: 1275
Flags: HW
HStem: 0 141<368.255 531 742 921.017> 1177 328<56 151.711 1121.29 1217> 1351 154<196 531 742 1077>
VStem: 18 134<1208.31 1251.22> 531 211<146.862 1351> 1121 134<1182.91 1251.22>
CounterMasks: 1 1c
LayerCount: 2
Fore
SplineSet
365 0 m 2,0,1
 341 0 341 0 341 57 c 0,2,3
 341 108 341 108 368 134 c 0,4,5
 376 142 376 142 403 141.5 c 128,-1,6
 430 141 430 141 459 143.5 c 128,-1,7
 488 146 488 146 504 151 c 0,8,9
 531 159 531 159 531 184 c 2,10,-1
 531 1351 l 1,11,-1
 196 1351 l 1,12,-1
 152 1203 l 1,13,14
 143 1177 143 1177 102 1177 c 0,15,16
 52 1178 52 1178 26 1208 c 0,17,18
 18 1218 18 1218 18 1228 c 1,19,-1
 56 1505 l 1,20,-1
 1217 1505 l 1,21,-1
 1255 1228 l 1,22,23
 1255 1192 1255 1192 1200 1180 c 0,24,25
 1185 1176 1185 1176 1169 1177 c 0,26,27
 1130 1177 1130 1177 1121 1203 c 1,28,-1
 1077 1351 l 1,29,-1
 742 1351 l 1,30,-1
 742 141 l 1,31,-1
 910 141 l 2,32,33
 937 141 937 141 937 74 c 0,34,35
 937 31 937 31 921.5 15.5 c 128,-1,36
 906 0 906 0 896 0 c 2,37,-1
 365 0 l 2,0,1
EndSplineSet
EndChar

StartChar: U
Encoding: 85 85 56
Width: 1545
Flags: HW
HStem: -20 165<618.603 978.415> 1364 141<46.0332 257.997 469 662.438 932.042 1126 1291 1482.08>
VStem: 258 211<317.858 1364> 1126 165<317.054 1364>
LayerCount: 2
Fore
SplineSet
1291 555 m 2,0,1
 1291 -20 1291 -20 772 -20 c 0,2,3
 492 -20 492 -20 370 131 c 1,4,5
 258 271 258 271 258 569 c 2,6,-1
 258 1348 l 2,7,8
 258 1364 258 1364 245 1364 c 2,9,-1
 82 1364 l 2,10,11
 54 1364 54 1364 44 1418 c 0,12,13
 42 1432 42 1432 41 1444 c 0,14,15
 41 1505 41 1505 67 1505 c 2,16,-1
 639 1505 l 2,17,18
 664 1505 664 1505 664 1434.5 c 128,-1,19
 664 1364 664 1364 629 1364 c 2,20,-1
 469 1364 l 1,21,-1
 469 578 l 2,22,23
 469 237 469 237 663 167 c 0,24,25
 724 145 724 145 804 145 c 128,-1,26
 884 145 884 145 946 170.5 c 128,-1,27
 1008 196 1008 196 1048 249 c 0,28,29
 1126 352 1126 352 1126 575 c 2,30,-1
 1126 1348 l 2,31,32
 1126 1364 1126 1364 1113 1364 c 2,33,-1
 969 1364 l 2,34,35
 940 1364 940 1364 930 1418 c 0,36,37
 928 1432 928 1432 928 1446 c 0,38,39
 928 1505 928 1505 954 1505 c 2,40,-1
 1470 1505 l 2,41,42
 1496 1505 1496 1505 1496 1441 c 0,43,44
 1496 1393 1496 1393 1482.5 1378.5 c 128,-1,45
 1469 1364 1469 1364 1460 1364 c 2,46,-1
 1291 1364 l 1,47,-1
 1291 555 l 2,0,1
EndSplineSet
EndChar

StartChar: V
Encoding: 86 86 57
Width: 1426
Flags: HW
HStem: 1364 141<-4.56323 117 365.03 514.017 953.921 1119 1285.88 1432.41>
LayerCount: 2
Fore
SplineSet
1412 1505 m 2,0,1
 1437 1505 1437 1505 1437 1448 c 0,2,3
 1437 1396 1437 1396 1413 1372 c 0,4,5
 1404 1364 1404 1364 1376 1364 c 0,6,7
 1300 1364 1300 1364 1280 1307 c 2,8,-1
 777 0 l 2,9,10
 769 -20 769 -20 734 -20 c 0,11,12
 666 -20 666 -20 657 0 c 1,13,-1
 117 1364 l 1,14,-1
 7 1364 l 2,15,16
 -19 1364 -19 1364 -19 1424 c 0,17,18
 -19 1473 -19 1473 -5 1489 c 128,-1,19
 9 1505 9 1505 20 1505 c 2,20,-1
 505 1505 l 2,21,22
 530 1505 530 1505 530 1450 c 0,23,24
 530 1397 530 1397 514.5 1380.5 c 128,-1,25
 499 1364 499 1364 489 1364 c 0,26,27
 365 1364 365 1364 365 1340 c 0,28,29
 365 1331 365 1331 373 1315 c 1,30,-1
 744 348 l 1,31,-1
 1119 1364 l 1,32,-1
 966 1364 l 2,33,34
 940 1364 940 1364 940 1422 c 0,35,36
 940 1474 940 1474 953.5 1489.5 c 128,-1,37
 967 1505 967 1505 976 1505 c 2,38,-1
 1412 1505 l 2,0,1
EndSplineSet
EndChar

StartChar: W
Encoding: 87 87 58
Width: 2059
Flags: HW
HStem: 1364 141<-22.5632 98 347.03 496.017 699.437 828 1069.03 1218.02 1564.92 1733 1897.55 2043.41>
LayerCount: 2
Fore
SplineSet
2023 1505 m 2,0,1
 2048 1505 2048 1505 2048 1448 c 0,2,3
 2048 1396 2048 1396 2024 1372 c 0,4,5
 2016 1364 2016 1364 1988 1364 c 0,6,7
 1914 1364 1914 1364 1891 1307 c 1,8,-1
 1481 0 l 2,9,10
 1475 -20 1475 -20 1420 -20 c 0,11,12
 1371 -20 1371 -20 1361 0 c 1,13,-1
 1030 848 l 1,14,-1
 753 0 l 2,15,16
 747 -20 747 -20 714 -20 c 0,17,18
 648 -20 648 -20 639 0 c 1,19,-1
 98 1364 l 1,20,-1
 -11 1364 l 2,21,22
 -37 1364 -37 1364 -37 1424 c 0,23,24
 -37 1473 -37 1473 -23 1489 c 128,-1,25
 -9 1505 -9 1505 2 1505 c 2,26,-1
 487 1505 l 2,27,28
 512 1505 512 1505 512 1450 c 0,29,30
 512 1397 512 1397 496.5 1380.5 c 128,-1,31
 481 1364 481 1364 471 1364 c 0,32,33
 347 1364 347 1364 347 1340 c 0,34,35
 347 1331 347 1331 355 1315 c 1,36,-1
 715 376 l 1,37,-1
 944 1067 l 1,38,-1
 828 1364 l 1,39,-1
 711 1364 l 2,40,41
 685 1364 685 1364 685 1424 c 0,42,43
 685 1473 685 1473 699 1489 c 128,-1,44
 713 1505 713 1505 724 1505 c 2,45,-1
 1209 1505 l 2,46,47
 1234 1505 1234 1505 1234 1450 c 0,48,49
 1234 1397 1234 1397 1218.5 1380.5 c 128,-1,50
 1203 1364 1203 1364 1193 1364 c 0,51,52
 1069 1364 1069 1364 1069 1340 c 0,53,54
 1069 1331 1069 1331 1077 1315 c 1,55,-1
 1436 376 l 1,56,-1
 1733 1364 l 1,57,-1
 1577 1364 l 2,58,59
 1551 1364 1551 1364 1551 1422 c 0,60,61
 1551 1474 1551 1474 1564.5 1489.5 c 128,-1,62
 1578 1505 1578 1505 1587 1505 c 2,63,-1
 2023 1505 l 2,0,1
EndSplineSet
EndChar

StartChar: X
Encoding: 88 88 59
Width: 1383
Flags: HW
HStem: 0 141<43.2222 196.91 364.004 497.017 802.25 945 1170.21 1354.02> 1364 141<44.952 179 450.027 587.017 856.921 1034 1195.2 1328.53>
LayerCount: 2
Fore
SplineSet
43 0 m 2,0,1
 17 0 17 0 17 61 c 0,2,3
 17 108 17 108 43 134 c 0,4,5
 50 141 50 141 71 141 c 128,-1,6
 92 141 92 141 116.5 145.5 c 128,-1,7
 141 150 141 150 158 158 c 0,8,9
 186 170 186 170 205 196 c 1,10,-1
 554 765 l 1,11,-1
 179 1364 l 1,12,-1
 57 1364 l 2,13,14
 30 1364 30 1364 30 1422 c 0,15,16
 30 1472 30 1472 44.5 1488.5 c 128,-1,17
 59 1505 59 1505 69 1505 c 2,18,-1
 580 1505 l 2,19,20
 603 1505 603 1505 603 1448 c 0,21,22
 603 1395 603 1395 587.5 1379.5 c 128,-1,23
 572 1364 572 1364 561 1364 c 0,24,25
 450 1364 450 1364 450 1342 c 0,26,27
 450 1335 450 1335 459 1317 c 1,28,-1
 716 906 l 1,29,-1
 1034 1364 l 1,30,-1
 869 1364 l 2,31,32
 843 1364 843 1364 843 1423 c 0,33,34
 843 1474 843 1474 856.5 1489.5 c 128,-1,35
 870 1505 870 1505 879 1505 c 2,36,-1
 1320 1505 l 2,37,38
 1344 1505 1344 1505 1344 1447 c 0,39,40
 1344 1396 1344 1396 1329 1380 c 128,-1,41
 1314 1364 1314 1364 1304 1364 c 0,42,43
 1232 1364 1232 1364 1194 1321 c 1,44,-1
 807 761 l 1,45,-1
 1156 204 l 2,46,47
 1192 146 1192 146 1290 142 c 0,48,49
 1318 141 1318 141 1344 141 c 128,-1,50
 1370 141 1370 141 1370 80 c 0,51,52
 1370 31 1370 31 1354.5 15.5 c 128,-1,53
 1339 0 1339 0 1329 0 c 2,54,-1
 801 0 l 2,55,56
 774 0 774 0 774 61 c 0,57,58
 774 108 774 108 802 134 c 0,59,60
 810 141 810 141 816 141 c 2,61,-1
 945 141 l 1,62,-1
 646 618 l 1,63,-1
 371 171 l 2,64,65
 364 161 364 161 364 154 c 256,66,67
 364 141 364 141 382 141 c 2,68,-1
 487 141 l 2,69,70
 513 141 513 141 513 81 c 0,71,72
 513 31 513 31 497.5 15.5 c 128,-1,73
 482 0 482 0 472 0 c 2,74,-1
 43 0 l 2,0,1
EndSplineSet
EndChar

StartChar: Y
Encoding: 89 89 60
Width: 1284
Flags: HW
HStem: 0 141<270.25 539.544 755 1010.02> 1364 141<-16.5632 107 379.026 510.532 817.921 986 1152 1296.41>
VStem: 544 211<166.25 559>
LayerCount: 2
Fore
SplineSet
268 0 m 2,0,1
 243 0 243 0 243 60 c 0,2,3
 243 107 243 107 270 134 c 0,4,5
 278 142 278 142 286 141 c 2,6,-1
 435 141 l 2,7,8
 526 141 526 141 540 166 c 0,9,10
 544 174 544 174 544 184 c 2,11,-1
 544 559 l 1,12,-1
 107 1364 l 1,13,-1
 -5 1364 l 2,14,15
 -31 1364 -31 1364 -31 1424 c 0,16,17
 -31 1473 -31 1473 -17 1489 c 128,-1,18
 -3 1505 -3 1505 8 1505 c 2,19,-1
 501 1505 l 2,20,21
 526 1505 526 1505 526 1448 c 0,22,23
 526 1396 526 1396 511 1380 c 128,-1,24
 496 1364 496 1364 485 1364 c 0,25,26
 379 1364 379 1364 379 1329 c 0,27,28
 379 1319 379 1319 385 1307 c 2,29,-1
 670 735 l 1,30,-1
 986 1364 l 1,31,-1
 830 1364 l 2,32,33
 804 1364 804 1364 804 1422 c 0,34,35
 804 1474 804 1474 817.5 1489.5 c 128,-1,36
 831 1505 831 1505 840 1505 c 2,37,-1
 1276 1505 l 2,38,39
 1301 1505 1301 1505 1301 1448 c 0,40,41
 1301 1396 1301 1396 1277 1372 c 0,42,43
 1268 1364 1268 1364 1240 1364 c 0,44,45
 1174 1364 1174 1364 1152 1321 c 2,46,-1
 755 559 l 1,47,-1
 755 141 l 1,48,-1
 1000 141 l 2,49,50
 1026 141 1026 141 1026 80 c 0,51,52
 1026 31 1026 31 1010.5 15.5 c 128,-1,53
 995 0 995 0 985 0 c 2,54,-1
 268 0 l 2,0,1
EndSplineSet
EndChar

StartChar: Z
Encoding: 90 90 61
Width: 1280
Flags: HW
HStem: 0 154<374 1000> 1351 154<258 902>
VStem: 80 134<1208.31 1251.22>
LayerCount: 2
Fore
SplineSet
80 0 m 1,0,-1
 80 75 l 1,1,-1
 902 1351 l 1,2,-1
 258 1351 l 1,3,-1
 214 1203 l 1,4,5
 205 1177 205 1177 164 1177 c 0,6,7
 114 1178 114 1178 88 1208 c 0,8,9
 80 1218 80 1218 80 1228 c 1,10,-1
 118 1505 l 1,11,-1
 1202 1505 l 1,12,-1
 1202 1437 l 1,13,-1
 374 154 l 1,14,-1
 1000 154 l 1,15,-1
 1077 303 l 2,16,17
 1087 322 1087 322 1114.5 322 c 128,-1,18
 1142 322 1142 322 1157 319 c 128,-1,19
 1172 316 1172 316 1184 311 c 0,20,21
 1212 299 1212 299 1212 281 c 0,22,23
 1212 275 1212 275 1211 274 c 2,24,-1
 1118 0 l 1,25,-1
 80 0 l 1,0,-1
EndSplineSet
EndChar

StartChar: bracketleft
Encoding: 91 91 62
Width: 654
Flags: HW
HStem: -160 141<380 642.762> 1530 141<380 645.638>
VStem: 185 459<-160 -19.0172 1530.02 1671> 185 195<-19 1530>
LayerCount: 2
Fore
SplineSet
614 -19 m 2,0,1
 644 -19 644 -19 644 -89.5 c 128,-1,2
 644 -160 644 -160 614 -160 c 2,3,-1
 185 -160 l 1,4,-1
 185 1671 l 1,5,-1
 614 1671 l 2,6,7
 647 1671 647 1671 647 1600.5 c 128,-1,8
 647 1530 647 1530 614 1530 c 2,9,-1
 380 1530 l 1,10,-1
 380 -19 l 1,11,-1
 614 -19 l 2,0,1
EndSplineSet
EndChar

StartChar: backslash
Encoding: 92 92 63
Width: 913
Flags: HW
LayerCount: 2
Fore
SplineSet
879 -141 m 1,0,1
 879 -170 879 -170 804 -170 c 0,2,3
 747 -170 747 -170 707 -141 c 1,4,-1
 41 1606 l 1,5,6
 41 1638 41 1638 116 1638 c 0,7,8
 157 1638 157 1638 206 1606 c 1,9,-1
 879 -141 l 1,0,1
EndSplineSet
EndChar

StartChar: bracketright
Encoding: 93 93 64
Width: 654
Flags: HW
HStem: -160 141<11.2378 274> 1530 141<8.36157 274>
VStem: 10 459<-160 -19.0172 1530.02 1671> 274 195<-19 1530>
LayerCount: 2
Fore
SplineSet
40 -160 m 2,0,1
 10 -160 10 -160 10 -89.5 c 128,-1,2
 10 -19 10 -19 40 -19 c 2,3,-1
 274 -19 l 1,4,-1
 274 1530 l 1,5,-1
 40 1530 l 2,6,7
 7 1530 7 1530 7 1600.5 c 128,-1,8
 7 1671 7 1671 40 1671 c 2,9,-1
 469 1671 l 1,10,-1
 469 -160 l 1,11,-1
 40 -160 l 2,0,1
EndSplineSet
EndChar

StartChar: asciicircum
Encoding: 94 94 65
Width: 1180
Flags: HW
HStem: 834 610
LayerCount: 2
Fore
SplineSet
135 834 m 1,0,1
 59 834 59 834 59 920 c 1,2,-1
 512 1409 l 1,3,4
 542 1444 542 1444 576 1444 c 0,5,6
 626 1444 626 1444 659 1409 c 2,7,-1
 1118 918 l 1,8,9
 1118 880 1118 880 1098 857 c 128,-1,10
 1078 834 1078 834 1042 834 c 1,11,-1
 580 1239 l 1,12,-1
 135 834 l 1,0,1
EndSplineSet
EndChar

StartChar: underscore
Encoding: 95 95 66
Width: 1178
Flags: HW
HStem: -287 123<0 1178>
LayerCount: 2
Fore
SplineSet
0 -164 m 1,0,-1
 1178 -164 l 1,1,-1
 1178 -287 l 1,2,-1
 0 -287 l 1,3,-1
 0 -164 l 1,0,-1
EndSplineSet
EndChar

StartChar: grave
Encoding: 96 96 67
Width: 1065
Flags: HW
HStem: 1188 393
VStem: 211 422
LayerCount: 2
Fore
SplineSet
535 1188 m 1,0,-1
 211 1423 l 1,1,2
 211 1532 211 1532 301 1570 c 0,3,4
 326 1581 326 1581 355 1581 c 0,5,6
 357 1581 357 1581 360 1581 c 1,7,-1
 633 1296 l 1,8,9
 632 1253 632 1253 612 1230 c 0,10,11
 576 1188 576 1188 535 1188 c 1,0,-1
EndSplineSet
EndChar

StartChar: a
Encoding: 97 97 68
Width: 1045
Flags: HW
HStem: -20 154<309.623 593.553 871 1025.99> 0 141<871.479 1060.83> 429 150<341.23 676> 880 141<378.977 618.25>
VStem: 69 202<172.967 381.525> 116 274<716.314 879.186> 676 195<202.579 429 579 792.955>
LayerCount: 2
Fore
SplineSet
688 69 m 1,0,1
 567 -20 567 -20 394 -20 c 0,2,3
 243 -20 243 -20 152 62 c 1,4,5
 69 139 69 139 69 264 c 0,6,7
 69 417 69 417 182 503 c 0,8,9
 281 579 281 579 429 579 c 2,10,-1
 676 579 l 1,11,12
 676 746 676 746 648.5 794.5 c 128,-1,13
 621 843 621 843 582.5 861.5 c 128,-1,14
 544 880 544 880 480 880 c 2,15,-1
 378 880 l 1,16,17
 390 854 390 854 390 821 c 128,-1,18
 390 788 390 788 380 763 c 0,19,20
 368 738 368 738 350 720 c 0,21,22
 312 682 312 682 253 681 c 256,23,24
 160 681 160 681 126 763 c 0,25,26
 116 788 116 788 116 824.5 c 128,-1,27
 116 861 116 861 137 893 c 128,-1,28
 158 925 158 925 192.5 948 c 128,-1,29
 227 971 227 971 270.5 985 c 128,-1,30
 314 999 314 999 359 1007 c 0,31,32
 438 1021 438 1021 531.5 1021 c 128,-1,33
 625 1021 625 1021 693.5 991 c 128,-1,34
 762 961 762 961 802 910 c 0,35,36
 872 820 872 820 871 653 c 2,37,-1
 871 141 l 1,38,-1
 1039 141 l 2,39,40
 1066 141 1066 141 1066 82 c 0,41,42
 1066 56 1066 56 1056 30 c 128,-1,43
 1046 4 1046 4 1028 0 c 0,44,45
 964 -16 964 -16 862 -16 c 128,-1,46
 760 -16 760 -16 748 -12.5 c 128,-1,47
 736 -9 736 -9 726 0 c 0,48,49
 707 17 707 17 688 69 c 1,0,1
430 134 m 0,50,51
 556 134 556 134 676 234 c 1,52,-1
 676 429 l 1,53,-1
 464 429 l 2,54,55
 461 429 461 429 458 429 c 0,56,57
 377 429 377 429 340 402 c 0,58,59
 271 354 271 354 271 291 c 0,60,61
 271 250 271 250 287 212.5 c 128,-1,62
 303 175 303 175 342 154.5 c 128,-1,63
 381 134 381 134 430 134 c 0,50,51
EndSplineSet
EndChar

StartChar: b
Encoding: 98 98 69
Width: 1099
Flags: HW
HStem: -14 154<389.552 685.391> 847 174<413.614 698.209> 1409 174<-42.6676 147> 1409 136<-66.2734 145.978>
VStem: -70 412<1409.01 1545.16> 147 195<179.274 792.155 939 1409> 812 205<281.228 719>
LayerCount: 2
Fore
SplineSet
342 207 m 1,0,1
 437 140 437 140 530 140 c 0,2,3
 720 140 720 140 786 322 c 0,4,5
 812 394 812 394 812 503 c 128,-1,6
 812 612 812 612 787 678 c 0,7,8
 762 742 762 742 725 780 c 0,9,10
 659 846 659 846 565 847 c 0,11,12
 478 847 478 847 396 798 c 0,13,14
 366 780 366 780 342 753 c 1,15,-1
 342 207 l 1,0,1
342 939 m 1,16,17
 480 1021 480 1021 588 1021 c 0,18,19
 591 1021 591 1021 594 1021 c 0,20,21
 699 1021 699 1021 772 986 c 0,22,23
 848 950 848 950 902 884 c 0,24,25
 1018 743 1018 743 1017 506 c 0,26,27
 1018 262 1018 262 878 119 c 0,28,29
 748 -14 748 -14 542 -14 c 0,30,31
 462 -14 462 -14 362 46 c 0,32,33
 338 60 338 60 321 69 c 1,34,-1
 251 -16 l 1,35,36
 241 -22 241 -22 226 -22 c 0,37,38
 193 -22 193 -22 138 8 c 0,39,40
 106 25 106 25 102 44 c 1,41,-1
 147 225 l 1,42,-1
 147 1409 l 1,43,-1
 -29 1409 l 2,44,45
 -58 1409 -58 1409 -68 1461 c 0,46,47
 -70 1475 -70 1475 -70 1491 c 0,48,49
 -70 1535 -70 1535 -43.5 1545.5 c 128,-1,50
 -17 1556 -17 1556 27 1563 c 128,-1,51
 71 1570 71 1570 120 1574 c 0,52,53
 213 1582 213 1582 297 1583 c 0,54,55
 340 1583 340 1583 342 1498 c 0,56,57
 342 1473 342 1473 342 1446 c 2,58,-1
 342 939 l 1,16,17
EndSplineSet
EndChar

StartChar: c
Encoding: 99 99 70
Width: 1004
Flags: HW
HStem: -20 154<408.855 721.931> 880 141<426.297 653.863>
VStem: 82 205<272.321 725.068> 646 274<726.429 878.875>
LayerCount: 2
Fore
SplineSet
655 880 m 1,0,-1
 562 880 l 2,1,2
 458 880 458 880 383 801 c 0,3,4
 287 700 287 700 287 510 c 0,5,6
 287 232 287 232 442 158 c 0,7,8
 491 134 491 134 542.5 134 c 128,-1,9
 594 134 594 134 634.5 145 c 128,-1,10
 675 156 675 156 714 174 c 0,11,12
 754 192 754 192 790 214 c 2,13,-1
 861 256 l 2,14,15
 865 259 865 259 874.5 259 c 128,-1,16
 884 259 884 259 898 247.5 c 128,-1,17
 912 236 912 236 924 220 c 0,18,19
 950 182 950 182 950 157 c 128,-1,20
 950 132 950 132 939 123 c 0,21,22
 748 -20 748 -20 523 -20 c 0,23,24
 316 -20 316 -20 196 125 c 256,25,26
 82 263 82 263 82 510 c 0,27,28
 82 750 82 750 227 890 c 0,29,30
 363 1020 363 1020 574 1021 c 0,31,32
 800 1020 800 1020 887 922 c 0,33,34
 920 884 920 884 920 841 c 128,-1,35
 920 798 920 798 910 773 c 0,36,37
 898 748 898 748 880 730 c 0,38,39
 840 691 840 691 783 691 c 256,40,41
 726 691 726 691 686 730 c 0,42,43
 646 768 646 768 646 806 c 128,-1,44
 646 844 646 844 655 880 c 1,0,-1
EndSplineSet
EndChar

StartChar: d
Encoding: 100 100 71
Width: 1147
Flags: HW
HStem: -20 154<397.618 676.328 954 1109.78> 0 140<954.752 1132.02> 867 154<416.474 729.585> 1409 174<569.848 759> 1409 137<544.979 757.737>
VStem: 83 205<273.349 722.506> 542 412<1409.01 1545.68> 759 195<202.579 830.438 1001 1409>
LayerCount: 2
Fore
SplineSet
770 69 m 1,0,1
 649 -20 649 -20 483 -20 c 0,2,3
 291 -20 291 -20 184 125 c 1,4,5
 83 264 83 264 83 515 c 0,6,7
 83 755 83 755 232 894 c 0,8,9
 368 1021 368 1021 583 1021 c 0,10,11
 682 1021 682 1021 759 1001 c 1,12,-1
 759 1409 l 1,13,-1
 583 1409 l 2,14,15
 554 1409 554 1409 544 1458 c 0,16,17
 542 1472 542 1472 542 1488 c 0,18,19
 542 1536 542 1536 569 1546 c 128,-1,20
 596 1556 596 1556 640 1563 c 128,-1,21
 684 1570 684 1570 732 1574 c 0,22,23
 824 1582 824 1582 909 1583 c 0,24,25
 910 1583 l 0,26,27
 952 1583 952 1583 954 1498 c 0,28,29
 954 1474 954 1474 954 1448 c 2,30,-1
 954 140 l 1,31,-1
 1122 140 l 2,32,33
 1148 140 1148 140 1148 80 c 0,34,35
 1148 34 1148 34 1132.5 17.5 c 128,-1,36
 1117 1 1117 1 1110 0.5 c 128,-1,37
 1103 0 1103 0 1082.5 -2.5 c 128,-1,38
 1062 -5 1062 -5 1030 -8 c 0,39,40
 943 -16 943 -16 894.5 -16 c 128,-1,41
 846 -16 846 -16 832 -12 c 128,-1,42
 818 -8 818 -8 808 0 c 0,43,44
 790 16 790 16 770 69 c 1,0,1
759 802 m 1,45,46
 676 867 676 867 571 867 c 0,47,48
 384 867 384 867 314 686 c 0,49,50
 288 617 288 617 288 512 c 128,-1,51
 288 407 288 407 306 344 c 0,52,53
 326 281 326 281 348 243 c 0,54,55
 370 204 370 204 396 180 c 0,56,57
 446 134 446 134 510 134 c 0,58,59
 639 134 639 134 759 234 c 1,60,-1
 759 802 l 1,45,46
EndSplineSet
EndChar

StartChar: e
Encoding: 101 101 72
Width: 1041
Flags: HW
HStem: -20 154<408.542 721.287> 455 150<286 757> 867 154<411.842 688.373>
VStem: 81 205<279.145 455 605 743.08> 757 205<605 796.562>
LayerCount: 2
Fore
SplineSet
962 569 m 0,0,1
 962 522 962 522 919 488 c 0,2,3
 877 455 877 455 813 455 c 0,4,5
 811 455 811 455 809 455 c 2,6,-1
 286 455 l 1,7,8
 298 299 298 299 368.5 216.5 c 128,-1,9
 439 134 439 134 550 134 c 0,10,11
 628 134 628 134 689.5 163 c 128,-1,12
 751 192 751 192 786 214 c 0,13,14
 859 260 859 260 872 260 c 0,15,16
 884 260 884 260 898 248 c 1,17,18
 910 236 910 236 922 220 c 0,19,20
 948 182 948 182 948.5 156 c 128,-1,21
 949 130 949 130 938 122 c 0,22,23
 755 -20 755 -20 535.5 -20 c 128,-1,24
 316 -20 316 -20 198.5 123 c 128,-1,25
 81 266 81 266 78 509.5 c 128,-1,26
 75 753 75 753 223.5 891 c 132,-1,27
 372 1029 372 1029 565.5 1025 c 128,-1,28
 759 1021 759 1021 860.5 904 c 128,-1,29
 962 787 962 787 962 569 c 0,0,1
286 605 m 1,30,-1
 757 605 l 1,31,32
 758 807 758 807 642 853 c 0,33,34
 606 867 606 867 562 867 c 128,-1,35
 518 867 518 867 470 851 c 0,36,37
 422 834 422 834 382 802 c 0,38,39
 292 728 292 728 286 605 c 1,30,-1
EndSplineSet
EndChar

StartChar: f
Encoding: 102 102 73
Width: 792
Flags: HW
HStem: 0 141<81.4678 248.442 450 687.017> 847 154<77.9225 248.442 450 719.749> 1280 303<572.225 760.317> 1449 134<475.644 540>
VStem: 255 195<164.251 847 1024.25 1407.25> 540 274<1319.25 1446.55>
LayerCount: 2
Fore
SplineSet
93 0 m 2,0,1
 66 0 66 0 66 61 c 0,2,3
 66 109 66 109 81 125 c 128,-1,4
 96 141 96 141 107 141 c 0,5,6
 112 141 112 141 117 141 c 0,7,8
 233 141 233 141 249 164 c 0,9,10
 255 172 255 172 255 184 c 2,11,-1
 255 847 l 1,12,-1
 64 847 l 1,13,14
 64 957 64 957 77.5 979 c 128,-1,15
 91 1001 91 1001 107 1001 c 0,16,17
 112 1001 112 1001 117 1001 c 0,18,19
 233 1001 233 1001 249 1024 c 0,20,21
 255 1032 255 1032 255 1044 c 2,22,-1
 255 1167 l 2,23,24
 254 1457 254 1457 434 1549 c 0,25,26
 500 1583 500 1583 569 1583 c 128,-1,27
 638 1583 638 1583 676 1576 c 128,-1,28
 714 1569 714 1569 744 1550 c 0,29,30
 814 1507 814 1507 814 1417 c 0,31,32
 814 1358 814 1358 774 1318 c 0,33,34
 736 1280 736 1280 677 1280 c 256,35,36
 584 1280 584 1280 550 1362 c 0,37,38
 540 1387 540 1387 540 1417 c 2,39,-1
 540 1449 l 1,40,-1
 539 1449 l 0,41,42
 458 1449 458 1449 452 1280 c 0,43,44
 450 1232 450 1232 450 1184 c 2,45,-1
 450 1001 l 1,46,-1
 719 1001 l 2,47,48
 744 1001 744 1001 744 942 c 0,49,50
 744 884 744 884 720 856 c 0,51,52
 712 846 712 846 699 847 c 2,53,-1
 450 847 l 1,54,-1
 450 141 l 1,55,-1
 676 141 l 2,56,57
 703 141 703 141 703 80 c 0,58,59
 703 31 703 31 687.5 15.5 c 128,-1,60
 672 0 672 0 662 0 c 2,61,-1
 93 0 l 2,0,1
EndSplineSet
EndChar

StartChar: g
Encoding: 103 103 74
Width: 1130
Flags: HW
HStem: -440 154<309.179 708.336> 45 150<394.584 807.147> 348 154<382.828 620.701> 804 198<932.484 1111.59> 886 130<383.496 634.121>
VStem: 63 195<-237.036 -30.0178> 108 210<555.137 821.483> 169 190<216.841 353.107> 691 211<574.829 829.154> 842 195<-178.305 7.78528>
LayerCount: 2
Fore
SplineSet
393 354 m 1,0,1
 359 312 359 312 359 278 c 128,-1,2
 359 244 359 244 393.5 219.5 c 128,-1,3
 428 195 428 195 485 195 c 2,4,-1
 683 195 l 2,5,6
 685 195 685 195 688 195 c 0,7,8
 884 195 884 195 970 110 c 0,9,10
 1037 44 1037 44 1037 -82 c 0,11,12
 1037 -218 1037 -218 909 -320 c 0,13,14
 758 -440 758 -440 493 -440 c 0,15,16
 276 -440 276 -440 156 -342 c 0,17,18
 106 -301 106 -301 84.5 -255 c 128,-1,19
 63 -209 63 -209 63 -166.5 c 128,-1,20
 63 -124 63 -124 76 -89 c 128,-1,21
 89 -54 89 -54 105.5 -29 c 128,-1,22
 122 -4 122 -4 142 20 c 0,23,24
 162 42 162 42 186 66 c 2,25,-1
 235 117 l 1,26,27
 223 132 223 132 211 146 c 128,-1,28
 199 160 199 160 190 176 c 0,29,30
 169 214 169 214 169 266.5 c 128,-1,31
 169 319 169 319 253 408 c 1,32,33
 108 503 108 503 108 680 c 0,34,35
 108 843 108 843 246 936 c 0,36,37
 365 1016 365 1016 528 1016 c 0,38,39
 587 1016 587 1016 645 1002 c 1,40,-1
 1008 1002 l 2,41,42
 1009 1002 1009 1002 1011 1002 c 0,43,44
 1101 1002 1101 1002 1122 940 c 0,45,46
 1128 922 1128 922 1128 901 c 128,-1,47
 1128 880 1128 880 1119 861 c 128,-1,48
 1110 842 1110 842 1096 830 c 0,49,50
 1066 804 1066 804 1030 803.5 c 128,-1,51
 994 803 994 803 976 814 c 0,52,53
 960 826 960 826 942 840 c 0,54,55
 892 882 892 882 826 892 c 1,56,57
 902 806 902 806 902 712 c 128,-1,58
 902 618 902 618 864.5 551 c 128,-1,59
 827 484 827 484 766 439 c 0,60,61
 643 348 643 348 468 348 c 0,62,63
 429 348 429 348 393 354 c 1,0,1
258 -137 m 0,64,65
 258 -286 258 -286 499 -286 c 0,66,67
 634 -286 634 -286 732 -229 c 0,68,69
 842 -166 842 -166 842 -72 c 0,70,71
 842 7 842 7 734 35 c 0,72,73
 696 45 696 45 641 45 c 2,74,-1
 369 45 l 1,75,76
 294 -33 294 -33 276 -71.5 c 128,-1,77
 258 -110 258 -110 258 -137 c 0,64,65
367 550 m 0,78,79
 415 502 415 502 477 502 c 128,-1,80
 539 502 539 502 576.5 519 c 128,-1,81
 614 536 614 536 640 566 c 0,82,83
 691 625 691 625 691 712 c 0,84,85
 691 784 691 784 642 834 c 0,86,87
 592 886 592 886 532 886 c 128,-1,88
 472 886 472 886 435 872 c 128,-1,89
 398 858 398 858 372 832 c 0,90,91
 318 778 318 778 318 690 c 0,92,93
 319 599 319 599 367 550 c 0,78,79
EndSplineSet
EndChar

StartChar: h
Encoding: 104 104 75
Width: 1249
Flags: HW
HStem: 0 141<37.4678 203.473 405 583.017 721.468 851 1046 1212.02> 833 188<542.922 783.243> 1409 174<20.8479 210> 1409 136<-2.54395 209.717>
VStem: -7 411<1409 1545.16> 210 195<164.251 753.266 911 1409> 851 195<146.081 773.927>
LayerCount: 2
Fore
SplineSet
48 0 m 2,0,1
 22 0 22 0 22 61 c 0,2,3
 22 109 22 109 37 125 c 128,-1,4
 52 141 52 141 63 141 c 0,5,6
 68 141 68 141 73 141 c 0,7,8
 189 141 189 141 204 164 c 0,9,10
 210 172 210 172 210 184 c 2,11,-1
 210 1409 l 1,12,-1
 34 1409 l 2,13,14
 6 1410 6 1410 -4 1460 c 0,15,16
 -6 1474 -6 1474 -7 1489 c 0,17,18
 -7 1535 -7 1535 20 1545.5 c 128,-1,19
 47 1556 47 1556 91 1563 c 0,20,21
 136 1570 136 1570 184 1574 c 0,22,23
 276 1582 276 1582 360 1583 c 0,24,25
 402 1583 402 1583 404 1498 c 0,26,27
 404 1473 404 1473 405 1446 c 2,28,-1
 405 911 l 1,29,30
 534 985 534 985 664 1013 c 0,31,32
 702 1021 702 1021 726 1021 c 0,33,34
 922 1021 922 1021 992 919 c 0,35,36
 1046 841 1046 841 1046 643 c 2,37,-1
 1046 141 l 1,38,-1
 1202 141 l 2,39,40
 1228 141 1228 141 1228 80 c 0,41,42
 1228 31 1228 31 1212.5 15.5 c 128,-1,43
 1197 0 1197 0 1187 0 c 2,44,-1
 733 0 l 2,45,46
 706 0 706 0 706 61 c 0,47,48
 706 109 706 109 721 125 c 128,-1,49
 736 141 736 141 747 141 c 0,50,51
 851 141 851 141 851 184 c 2,52,-1
 851 481 l 2,53,54
 851 673 851 673 829 729.5 c 128,-1,55
 807 786 807 786 772.5 809.5 c 128,-1,56
 738 833 738 833 679 833 c 0,57,58
 545 833 545 833 405 721 c 1,59,-1
 405 141 l 1,60,-1
 573 141 l 2,61,62
 599 141 599 141 599 80 c 0,63,64
 599 31 599 31 583.5 15.5 c 128,-1,65
 568 0 568 0 558 0 c 2,66,-1
 48 0 l 2,0,1
EndSplineSet
EndChar

StartChar: i
Encoding: 105 105 76
Width: 662
Flags: HW
HStem: 0 141<78.4678 245.473 446 624.017> 847 174<61.8479 251> 847 136<37.4871 249.737> 1272 276<222.422 422.807>
VStem: 34 412<847 983.163> 190 274<1311.25 1507.26> 251 195<164.251 847>
LayerCount: 2
Fore
SplineSet
327 1272 m 256,0,1
 234 1272 234 1272 200 1354 c 0,2,3
 190 1379 190 1379 190 1409 c 256,4,5
 190 1504 190 1504 273 1538 c 0,6,7
 298 1548 298 1548 327 1548 c 256,8,9
 385 1548 385 1548 424.5 1508.5 c 128,-1,10
 464 1469 464 1469 464 1409 c 256,11,12
 464 1350 464 1350 424 1310 c 0,13,14
 386 1272 386 1272 327 1272 c 256,0,1
89 0 m 2,15,16
 63 0 63 0 63 61 c 0,17,18
 63 109 63 109 78 125 c 128,-1,19
 93 141 93 141 104 141 c 0,20,21
 109 141 109 141 114 141 c 0,22,23
 231 141 231 141 246 164 c 0,24,25
 252 172 252 172 251 184 c 2,26,-1
 251 847 l 1,27,-1
 75 847 l 2,28,29
 46 848 46 848 36 898 c 0,30,31
 34 912 34 912 34 927 c 0,32,33
 34 973 34 973 61 983.5 c 128,-1,34
 88 994 88 994 132 1001 c 128,-1,35
 176 1008 176 1008 224 1012 c 0,36,37
 316 1020 316 1020 401 1021 c 0,38,-1
 402 1021 l 0,39,40
 444 1021 444 1021 446 936 c 0,41,42
 446 912 446 912 446 884 c 2,43,-1
 446 141 l 1,44,-1
 614 141 l 2,45,46
 640 141 640 141 640 80 c 0,47,48
 640 31 640 31 624.5 15.5 c 128,-1,49
 609 0 609 0 599 0 c 2,50,-1
 89 0 l 2,15,16
EndSplineSet
EndChar

StartChar: j
Encoding: 106 106 77
Width: 568
Flags: HW
HStem: -440 209<113.786 202.295> 847 174<44.3324 234> 847 136<20.7983 232.297> 1272 276<204.812 406.261>
VStem: 17 411<847 982.194> 172 275<1311.25 1507.26> 234 195<-174.301 847>
LayerCount: 2
Fore
SplineSet
144 -231 m 1,0,1
 234 -231 234 -231 234 0 c 2,2,-1
 234 847 l 1,3,-1
 58 847 l 2,4,5
 28 848 28 848 20 896 c 0,6,7
 18 910 18 910 17 925 c 0,8,9
 17 973 17 973 43.5 982.5 c 128,-1,10
 70 992 70 992 114 1000 c 128,-1,11
 158 1008 158 1008 207 1012 c 0,12,13
 301 1021 301 1021 370 1021 c 0,14,15
 377 1021 377 1021 384 1021 c 0,16,-1
 385 1021 l 0,17,18
 426 1021 426 1021 428 936 c 0,19,20
 428 912 428 912 429 884 c 2,21,-1
 429 68 l 2,22,23
 429 -123 429 -123 337 -271 c 0,24,25
 232 -440 232 -440 45 -440 c 0,26,27
 -48 -440 -48 -440 -82 -358 c 0,28,29
 -92 -333 -92 -333 -92 -295 c 128,-1,30
 -92 -257 -92 -257 -69 -224 c 0,31,32
 -27 -164 -27 -164 45.5 -164 c 128,-1,33
 118 -164 118 -164 144 -231 c 1,0,1
310 1272 m 256,34,35
 216 1272 216 1272 182 1354 c 0,36,37
 172 1379 172 1379 172 1409 c 256,38,39
 172 1504 172 1504 256 1538 c 0,40,41
 282 1548 282 1548 310 1548 c 256,42,43
 368 1548 368 1548 407.5 1508.5 c 128,-1,44
 447 1469 447 1469 447 1406 c 0,45,46
 447 1349 447 1349 408 1310 c 0,47,48
 370 1272 370 1272 310 1272 c 256,34,35
EndSplineSet
EndChar

StartChar: k
Encoding: 107 107 78
Width: 1209
Flags: HW
HStem: 0 141<37.4678 203.473 405 521.017 1017.25 1165.02> 860 141<863.003 1068.33> 1409 174<20.8479 210> 1409 136<-2.54395 209.717>
VStem: -7 411<1409 1545.16> 210 195<164.251 1409>
LayerCount: 2
Fore
SplineSet
48 0 m 2,0,1
 22 0 22 0 22 61 c 0,2,3
 22 109 22 109 37 125 c 128,-1,4
 52 141 52 141 63 141 c 0,5,6
 68 141 68 141 73 141 c 0,7,8
 189 141 189 141 204 164 c 0,9,10
 210 172 210 172 210 184 c 2,11,-1
 210 1409 l 1,12,-1
 34 1409 l 2,13,14
 6 1410 6 1410 -4 1460 c 0,15,16
 -6 1474 -6 1474 -7 1489 c 0,17,18
 -7 1535 -7 1535 20 1545.5 c 128,-1,19
 47 1556 47 1556 91 1563 c 0,20,21
 136 1570 136 1570 184 1574 c 0,22,23
 276 1582 276 1582 360 1583 c 0,24,25
 402 1583 402 1583 404 1498 c 0,26,27
 404 1473 404 1473 405 1446 c 2,28,-1
 405 141 l 1,29,-1
 510 141 l 2,30,31
 537 141 537 141 537 80 c 0,32,33
 537 31 537 31 521.5 15.5 c 128,-1,34
 506 0 506 0 496 0 c 2,35,-1
 48 0 l 2,0,1
1154 141 m 0,36,37
 1181 141 1181 141 1181 78 c 0,38,39
 1181 31 1181 31 1165.5 15.5 c 128,-1,40
 1150 0 1150 0 1140 0 c 2,41,-1
 879 0 l 1,42,-1
 417 600 l 1,43,-1
 820 1001 l 1,44,-1
 1032 1001 l 2,45,46
 1060 1001 1060 1001 1070 949 c 0,47,48
 1072 935 1072 935 1072 922 c 0,49,50
 1072 860 1072 860 1046 860 c 0,51,52
 949 860 949 860 914 845.5 c 128,-1,53
 879 831 879 831 863 815 c 2,54,-1
 644 593 l 1,55,-1
 993 208 l 2,56,57
 1054 141 1054 141 1154 141 c 0,36,37
EndSplineSet
EndChar

StartChar: l
Encoding: 108 108 79
Width: 621
Flags: HW
HStem: 0 141<37.4678 203.473 405 583.017> 1409 174<20.8479 210> 1409 136<-2.54395 209.717>
VStem: -7 411<1409 1545.16> 210 195<164.251 1409>
LayerCount: 2
Fore
SplineSet
48 0 m 2,0,1
 22 0 22 0 22 61 c 0,2,3
 22 109 22 109 37 125 c 128,-1,4
 52 141 52 141 63 141 c 0,5,6
 68 141 68 141 73 141 c 0,7,8
 189 141 189 141 204 164 c 0,9,10
 210 172 210 172 210 184 c 2,11,-1
 210 1409 l 1,12,-1
 34 1409 l 2,13,14
 6 1410 6 1410 -4 1460 c 0,15,16
 -6 1474 -6 1474 -7 1489 c 0,17,18
 -7 1535 -7 1535 20 1545.5 c 128,-1,19
 47 1556 47 1556 91 1563 c 0,20,21
 136 1570 136 1570 184 1574 c 0,22,23
 276 1582 276 1582 360 1583 c 0,24,25
 402 1583 402 1583 404 1498 c 0,26,27
 404 1473 404 1473 405 1446 c 2,28,-1
 405 141 l 1,29,-1
 573 141 l 2,30,31
 599 141 599 141 599 80 c 0,32,33
 599 31 599 31 583.5 15.5 c 128,-1,34
 568 0 568 0 558 0 c 2,35,-1
 48 0 l 2,0,1
EndSplineSet
EndChar

StartChar: m
Encoding: 109 109 80
Width: 1931
Flags: HW
HStem: 0 141<78.4678 244.443 446 624.017 772.25 892 1087 1267.31 1412.25 1533 1728 1908.31> 847 174<61.3317 251 595.397 821.958 1233.64 1463.91> 847 152<61.3317 250.49> 847 134<37.4225 250.49>
VStem: 251 195<164.251 751.73> 892 195<146.081 751.73> 1533 195<146.081 781.49>
CounterMasks: 1 0e
LayerCount: 2
Fore
SplineSet
91 0 m 2,0,1
 63 0 63 0 63 57 c 0,2,3
 63 109 63 109 78 125 c 128,-1,4
 93 141 93 141 104 141 c 0,5,6
 109 141 109 141 114 141 c 0,7,8
 229 141 229 141 245 164 c 0,9,10
 251 172 251 172 251 184 c 2,11,-1
 251 847 l 1,12,-1
 75 847 l 2,13,14
 46 848 46 848 36 898 c 0,15,16
 34 912 34 912 34 924 c 0,17,18
 34 971 34 971 60.5 981.5 c 128,-1,19
 87 992 87 992 128 999 c 0,20,21
 169 1007 169 1007 214 1012 c 0,22,23
 304 1022 304 1022 349 1022 c 0,24,25
 351 1022 351 1022 353 1022 c 128,-1,26
 355 1022 355 1022 357 1022 c 0,27,28
 397 1022 397 1022 406 1012 c 0,29,30
 416 1002 416 1002 420 986 c 0,31,32
 425 969 425 969 425 915 c 0,33,34
 425 906 425 906 425 896 c 1,35,36
 576 980 576 980 700 1011 c 0,37,38
 740 1021 740 1021 767 1021 c 0,39,40
 948 1021 948 1021 1033 880 c 1,41,42
 1182 968 1182 968 1334 1009 c 0,43,44
 1378 1021 1378 1021 1441 1021 c 128,-1,45
 1504 1021 1504 1021 1566 994.5 c 128,-1,46
 1628 968 1628 968 1664 918 c 0,47,48
 1728 830 1728 830 1728 638 c 2,49,-1
 1728 141 l 1,50,-1
 1883 141 l 2,51,52
 1910 141 1910 141 1910 70.5 c 128,-1,53
 1910 0 1910 0 1873 0 c 2,54,-1
 1414 0 l 2,55,56
 1388 0 1388 0 1388 61 c 0,57,58
 1388 110 1388 110 1412 134 c 0,59,60
 1420 142 1420 142 1429 141 c 0,61,62
 1533 141 1533 141 1533 184 c 2,63,-1
 1533 481 l 2,64,65
 1533 675 1533 675 1511 735.5 c 128,-1,66
 1489 796 1489 796 1454.5 821.5 c 128,-1,67
 1420 847 1420 847 1361 847 c 0,68,69
 1250 847 1250 847 1087 718 c 1,70,-1
 1087 141 l 1,71,-1
 1242 141 l 2,72,73
 1269 141 1269 141 1269 70.5 c 128,-1,74
 1269 0 1269 0 1228 0 c 2,75,-1
 773 0 l 2,76,77
 747 0 747 0 747 63 c 0,78,79
 747 109 747 109 772 134 c 0,80,81
 780 142 780 142 788 141 c 0,82,83
 892 141 892 141 892 184 c 2,84,-1
 892 481 l 2,85,86
 892 675 892 675 870 735.5 c 128,-1,87
 848 796 848 796 813.5 821.5 c 128,-1,88
 779 847 779 847 720 847 c 0,89,90
 609 847 609 847 446 718 c 1,91,-1
 446 141 l 1,92,-1
 614 141 l 2,93,94
 640 141 640 141 640 82 c 0,95,96
 640 33 640 33 624.5 16.5 c 128,-1,97
 609 0 609 0 599 0 c 2,98,-1
 91 0 l 2,0,1
EndSplineSet
EndChar

StartChar: n
Encoding: 110 110 81
Width: 1290
Flags: HW
HStem: 0 141<78.4678 244.443 446 624.017 762.468 892 1087 1253.02> 847 174<61.3317 251 595.397 822.349> 847 152<61.3317 250.49> 847 134<36.8531 250.49>
VStem: 251 195<164.251 751.73> 892 195<146.081 781.49>
LayerCount: 2
Fore
SplineSet
89 0 m 2,0,1
 63 0 63 0 63 61 c 0,2,3
 63 109 63 109 78 125 c 128,-1,4
 93 141 93 141 104 141 c 0,5,6
 109 141 109 141 114 141 c 0,7,8
 229 141 229 141 245 164 c 0,9,10
 251 172 251 172 251 184 c 2,11,-1
 251 847 l 1,12,-1
 75 847 l 2,13,14
 44 848 44 848 36 896 c 0,15,16
 34 910 34 910 34 925 c 0,17,18
 34 971 34 971 60.5 981.5 c 128,-1,19
 87 992 87 992 128 999 c 0,20,21
 169 1007 169 1007 214 1012 c 0,22,23
 304 1022 304 1022 349 1022 c 0,24,25
 351 1022 351 1022 353 1022 c 128,-1,26
 355 1022 355 1022 357 1022 c 0,27,28
 397 1022 397 1022 406 1012 c 0,29,30
 416 1002 416 1002 420 986 c 0,31,32
 425 969 425 969 425 915 c 0,33,34
 425 906 425 906 425 896 c 1,35,36
 576 980 576 980 700 1011 c 0,37,38
 740 1021 740 1021 801.5 1021 c 128,-1,39
 863 1021 863 1021 925 994.5 c 128,-1,40
 987 968 987 968 1023 918 c 0,41,42
 1087 830 1087 830 1087 638 c 2,43,-1
 1087 141 l 1,44,-1
 1242 141 l 2,45,46
 1269 141 1269 141 1269 80 c 0,47,48
 1269 31 1269 31 1253.5 15.5 c 128,-1,49
 1238 0 1238 0 1228 0 c 2,50,-1
 773 0 l 2,51,52
 747 0 747 0 747 61 c 0,53,54
 747 109 747 109 762 125 c 128,-1,55
 777 141 777 141 788 141 c 0,56,57
 892 141 892 141 892 184 c 2,58,-1
 892 481 l 2,59,60
 892 675 892 675 870 735.5 c 128,-1,61
 848 796 848 796 813.5 821.5 c 128,-1,62
 779 847 779 847 720 847 c 0,63,64
 609 847 609 847 446 718 c 1,65,-1
 446 141 l 1,66,-1
 614 141 l 2,67,68
 640 141 640 141 640 80 c 0,69,70
 640 31 640 31 624.5 15.5 c 128,-1,71
 609 0 609 0 599 0 c 2,72,-1
 89 0 l 2,0,1
EndSplineSet
EndChar

StartChar: o
Encoding: 111 111 82
Width: 1093
Flags: HW
HStem: -20 154<406.505 683.002> 867 154<404.471 685.205>
VStem: 80 206<272.086 731> 807 205<278.382 731.718>
LayerCount: 2
Fore
SplineSet
192 132 m 1,0,1
 80 279 80 279 80 512 c 0,2,3
 80 758 80 758 232 896 c 0,4,5
 370 1021 370 1021 580 1021 c 0,6,7
 583 1021 l 0,8,9
 779 1021 779 1021 898 872 c 0,10,11
 1012 730 1012 730 1012 504 c 0,12,13
 1012 252 1012 252 872 112 c 0,14,15
 740 -20 740 -20 526 -20 c 128,-1,16
 312 -20 312 -20 192 132 c 1,0,1
396 186 m 0,17,18
 458 134 458 134 536.5 134 c 128,-1,19
 615 134 615 134 663.5 163.5 c 128,-1,20
 712 193 712 193 744 244 c 0,21,22
 807 344 807 344 807 506 c 0,23,24
 806 777 806 777 648 846 c 0,25,26
 600 867 600 867 550.5 867 c 128,-1,27
 501 867 501 867 455.5 852 c 128,-1,28
 410 837 410 837 372 797 c 0,29,30
 285 706 285 706 285 494 c 0,31,32
 286 278 286 278 396 186 c 0,17,18
EndSplineSet
EndChar

StartChar: p
Encoding: 112 112 83
Width: 1177
Flags: HW
HStem: -438 141<51.4678 218.442 420 653.017> -14 154<450.056 764.235> 847 174<30.7216 225 499.369 776.266> 847 133<10.7983 223.542>
VStem: 225 195<-273.749 45 168.413 787.555> 890 205<279.154 719.763>
LayerCount: 2
Fore
SplineSet
63 -438 m 2,0,1
 36 -438 36 -438 36 -377 c 0,2,3
 36 -329 36 -329 51 -313 c 128,-1,4
 66 -297 66 -297 77 -297 c 0,5,6
 202 -297 202 -297 219 -274 c 0,7,8
 225 -266 225 -266 225 -254 c 2,9,-1
 225 847 l 1,10,-1
 48 847 l 2,11,12
 18 848 18 848 10 896 c 0,13,14
 8 910 8 910 7 925 c 0,15,16
 7 972 7 972 30 980 c 128,-1,17
 53 988 53 988 87.5 995 c 128,-1,18
 122 1002 122 1002 166 1008 c 0,19,20
 260 1021 260 1021 315.5 1021 c 128,-1,21
 371 1021 371 1021 380 1016 c 0,22,23
 390 1012 390 1012 394 1000 c 0,24,25
 399 988 399 988 399 941 c 0,26,27
 399 933 399 933 399 924 c 1,28,29
 540 1002 540 1002 595 1011.5 c 128,-1,30
 650 1021 650 1021 712 1021 c 128,-1,31
 774 1021 774 1021 849 985.5 c 128,-1,32
 924 950 924 950 979 884 c 0,33,34
 1095 744 1095 744 1095 506 c 0,35,36
 1095 258 1095 258 958 118 c 0,37,38
 829 -14 829 -14 620 -14 c 0,39,40
 538 -14 538 -14 450 31 c 0,41,42
 430 41 430 41 420 45 c 1,43,-1
 420 -297 l 1,44,-1
 642 -297 l 2,45,46
 669 -297 669 -297 669 -358 c 0,47,48
 669 -407 669 -407 653.5 -422.5 c 128,-1,49
 638 -438 638 -438 628 -438 c 2,50,-1
 63 -438 l 2,0,1
420 195 m 1,51,52
 489 140 489 140 608 140 c 0,53,54
 798 140 798 140 864 322 c 0,55,56
 890 394 890 394 890 502.5 c 128,-1,57
 890 611 890 611 865 676.5 c 128,-1,58
 840 742 840 742 802 780 c 0,59,60
 736 847 736 847 642 847 c 0,61,62
 640 847 640 847 639 847 c 0,63,64
 553 847 553 847 474 794 c 0,65,66
 444 774 444 774 420 746 c 1,67,-1
 420 195 l 1,51,52
EndSplineSet
EndChar

StartChar: q
Encoding: 113 113 84
Width: 1116
Flags: HW
HStem: -439 141<512.468 753.476 954 1128.02> -20 154<407.499 678.671> 867 154<416.14 728.421>
VStem: 83 205<279.69 722.506> 759 195<-273.749 64 200.016 808.214>
LayerCount: 2
Fore
SplineSet
524 -439 m 2,0,1
 497 -439 497 -439 497 -376 c 0,2,3
 497 -330 497 -330 512 -314 c 128,-1,4
 527 -298 527 -298 538 -298 c 2,5,-1
 622 -298 l 2,6,7
 738 -298 738 -298 754 -274 c 0,8,9
 760 -266 760 -266 759 -255 c 2,10,-1
 759 64 l 1,11,12
 692 9 692 9 566 -13 c 0,13,14
 526 -20 526 -20 454.5 -20 c 128,-1,15
 383 -20 383 -20 309 18 c 128,-1,16
 235 56 235 56 184 126 c 0,17,18
 83 264 83 264 83 515 c 0,19,20
 83 755 83 755 232 894 c 0,21,22
 368 1021 368 1021 581 1021 c 0,23,24
 686 1021 686 1021 819 984 c 1,25,-1
 882 1066 l 1,26,27
 887 1068 887 1068 902.5 1068 c 128,-1,28
 918 1068 918 1068 939 1064 c 128,-1,29
 960 1060 960 1060 978 1052 c 0,30,31
 1019 1035 1019 1035 1032 1009 c 1,32,-1
 954 763 l 1,33,-1
 954 -298 l 1,34,-1
 1118 -298 l 2,35,36
 1144 -298 1144 -298 1144 -357 c 0,37,38
 1144 -408 1144 -408 1128.5 -423.5 c 128,-1,39
 1113 -439 1113 -439 1103 -439 c 2,40,-1
 524 -439 l 2,0,1
759 802 m 1,41,42
 676 867 676 867 571 867 c 0,43,44
 384 867 384 867 314 686 c 0,45,46
 288 617 288 617 288 513 c 128,-1,47
 288 409 288 409 308 345 c 128,-1,48
 328 281 328 281 352 243 c 0,49,50
 378 204 378 204 406 180 c 0,51,52
 460 134 460 134 524 134 c 0,53,54
 639 134 639 134 759 234 c 1,55,-1
 759 802 l 1,41,42
EndSplineSet
EndChar

StartChar: r
Encoding: 114 114 85
Width: 901
Flags: HW
HStem: 0 141<65.9834 251 446 697.047> 734 286<660.76 850.418> 843 178<62.3007 251> 843 158<62.3007 249.051> 843 139<38.4375 249.051>
VStem: 251 195<147.104 665>
LayerCount: 2
Fore
SplineSet
89 0 m 2,0,1
 61 0 61 0 61 63 c 256,2,3
 62 109 62 109 88 134 c 0,4,5
 96 141 96 141 123 141 c 128,-1,6
 150 141 150 141 178.5 143.5 c 128,-1,7
 207 146 207 146 223 151 c 0,8,9
 251 160 251 160 251 184 c 2,10,-1
 251 843 l 1,11,-1
 75 843 l 2,12,13
 36 843 36 843 36 921 c 0,14,15
 36 971 36 971 61.5 982 c 128,-1,16
 87 993 87 993 128 1001 c 0,17,18
 170 1009 170 1009 214 1012 c 0,19,20
 298 1020 298 1020 346.5 1020 c 128,-1,21
 395 1020 395 1020 404 1016 c 0,22,23
 414 1012 414 1012 418 1002 c 0,24,25
 424 990 424 990 423.5 961.5 c 128,-1,26
 423 933 423 933 422 907 c 128,-1,27
 421 881 421 881 421 861 c 1,28,29
 538 968 538 968 656 1008 c 0,30,31
 694 1020 694 1020 734.5 1020 c 128,-1,32
 775 1020 775 1020 807 1005 c 128,-1,33
 839 990 839 990 858 968 c 0,34,35
 892 928 892 928 892 884.5 c 128,-1,36
 892 841 892 841 881 816 c 128,-1,37
 870 791 870 791 850 773 c 0,38,39
 808 734 808 734 766.5 734 c 128,-1,40
 725 734 725 734 703 745.5 c 128,-1,41
 681 757 681 757 664 775 c 0,42,43
 628 813 628 813 628 860 c 1,44,45
 569 832 569 832 539 797 c 0,46,47
 510 762 510 762 490 732 c 2,48,-1
 446 665 l 1,49,-1
 446 141 l 1,50,-1
 689 141 l 2,51,52
 712 141 712 141 712 80 c 0,53,54
 712 31 712 31 697.5 15.5 c 128,-1,55
 683 0 683 0 671 0 c 2,56,-1
 89 0 l 2,0,1
EndSplineSet
EndChar

StartChar: s
Encoding: 115 115 86
Width: 926
Flags: HW
HStem: -20 154<349.992 613.802> 880 141<330.402 565.749>
VStem: 76 275<135.681 281.807> 94 184<667.892 830.526> 556 264<713.031 878.136> 662 185<181.716 360.322>
LayerCount: 2
Fore
SplineSet
566 763 m 0,0,1
 556 788 556 788 556 804 c 128,-1,2
 556 820 556 820 568 880 c 1,3,-1
 469 880 l 2,4,5
 388 880 388 880 349 852 c 0,6,7
 278 803 278 803 278 744 c 0,8,9
 278 670 278 670 418 619 c 1,10,-1
 494 592 l 1,11,12
 687 528 687 528 742 483 c 128,-1,13
 797 438 797 438 822 385.5 c 128,-1,14
 847 333 847 333 847 264 c 128,-1,15
 847 195 847 195 820 145 c 0,16,17
 794 94 794 94 746 58 c 0,18,19
 643 -20 643 -20 478 -20 c 0,20,21
 256 -20 256 -20 144 63 c 256,22,23
 76 113 76 113 76 184 c 0,24,25
 76 279 76 279 160 312 c 0,26,27
 186 322 186 322 214 322 c 256,28,29
 272 322 272 322 312 283 c 0,30,31
 352 245 352 245 351 184 c 2,32,-1
 351 174 l 2,33,34
 351 146 351 146 347 134 c 1,35,-1
 461 134 l 2,36,37
 600 134 600 134 648 219 c 0,38,39
 662 245 662 245 662 276 c 128,-1,40
 662 307 662 307 647.5 329.5 c 128,-1,41
 633 352 633 352 602 371 c 0,42,43
 555 400 555 400 445.5 433.5 c 128,-1,44
 336 467 336 467 279 491.5 c 128,-1,45
 222 516 222 516 180 550 c 0,46,47
 94 622 94 622 94 748 c 0,48,49
 94 892 94 892 222 964 c 0,50,51
 321 1021 321 1021 464 1021 c 0,52,53
 466 1021 466 1021 469 1021 c 0,54,55
 706 1021 706 1021 798 914 c 0,56,57
 832 876 832 876 832 833 c 0,58,59
 832 789 832 789 820 763 c 0,60,61
 810 738 810 738 792 720 c 0,62,63
 754 682 754 682 694 681 c 256,64,65
 600 681 600 681 566 763 c 0,0,1
EndSplineSet
EndChar

StartChar: t
Encoding: 116 116 87
Width: 731
Flags: HW
HStem: -20 165<319.141 620.013> 847 154<40.9225 215.931 412 681.749>
VStem: 217 195<149.067 847> 282 130<1191.32 1290.34>
LayerCount: 2
Fore
SplineSet
422 -20 m 0,0,1
 217 -20 217 -20 217 257 c 2,2,-1
 217 847 l 1,3,-1
 27 847 l 1,4,5
 27 957 27 957 40.5 979 c 128,-1,6
 54 1001 54 1001 70 1001 c 0,7,8
 75 1001 75 1001 80 1001 c 0,9,10
 203 1001 203 1001 228 1024 c 0,11,12
 238 1032 238 1032 239 1044 c 2,13,-1
 282 1265 l 2,14,15
 294 1320 294 1320 412 1320 c 1,16,-1
 412 1001 l 1,17,-1
 682 1001 l 2,18,19
 707 1001 707 1001 707 942 c 0,20,21
 706 884 706 884 682 856 c 0,22,23
 674 846 674 846 662 847 c 2,24,-1
 412 847 l 1,25,-1
 412 257 l 2,26,27
 412 145 412 145 478 145 c 0,28,29
 553 145 553 145 584.5 156.5 c 128,-1,30
 616 168 616 168 627.5 168 c 128,-1,31
 639 168 639 168 650.5 160.5 c 128,-1,32
 662 153 662 153 670 141 c 0,33,34
 687 115 687 115 687 87 c 256,35,36
 687 57 687 57 668 48 c 0,37,38
 539 -20 539 -20 422 -20 c 0,0,1
EndSplineSet
EndChar

StartChar: u
Encoding: 117 117 88
Width: 1234
Flags: HW
HStem: -20 186<450.153 716.507> -16 157<1018 1205.7> 0 141<1018.15 1210.36> 847 174<672.331 823> 847 150<672.331 822.243> 847 131<23.1533 196.946 647.252 822.243>
VStem: 21 373<847.019 977.833> 199 195<222.677 847> 823 195<264 847>
LayerCount: 2
Fore
SplineSet
834 96 m 1,0,1
 675 -20 675 -20 547 -20 c 0,2,3
 296 -20 296 -20 223 182 c 0,4,5
 199 248 199 248 199 338 c 2,6,-1
 199 847 l 1,7,-1
 58 847 l 2,8,9
 21 847 21 847 21 923 c 0,10,11
 21 973 21 973 41 978 c 0,12,13
 209 1021 209 1021 348 1021 c 0,14,15
 392 1021 392 1021 394 941 c 0,16,17
 394 918 394 918 394 894 c 2,18,-1
 394 411 l 2,19,20
 394 216 394 216 494 178 c 0,21,22
 524 166 524 166 568.5 166 c 128,-1,23
 613 166 613 166 653.5 176 c 128,-1,24
 694 186 694 186 726 200 c 0,25,26
 756 214 756 214 780 232 c 2,27,-1
 823 264 l 1,28,-1
 823 847 l 1,29,-1
 686 847 l 2,30,31
 645 847 645 847 645 921 c 0,32,33
 645 968 645 968 671.5 978.5 c 128,-1,34
 698 989 698 989 736 997 c 0,35,36
 774 1004 774 1004 815 1010 c 0,37,38
 893 1020 893 1020 939.5 1020.5 c 128,-1,39
 986 1021 986 1021 996 1010 c 0,40,41
 1008 1000 1008 1000 1012 982 c 0,42,43
 1018 957 1018 957 1018 894 c 2,44,-1
 1018 141 l 1,45,-1
 1186 141 l 2,46,47
 1213 141 1213 141 1213 76 c 0,48,49
 1213 6 1213 6 1172 0 c 0,50,51
 1070 -16 1070 -16 990 -16 c 128,-1,52
 910 -16 910 -16 896 -8 c 0,53,54
 882 0 882 0 872 14 c 0,55,56
 856 36 856 36 834 96 c 1,0,1
EndSplineSet
EndChar

StartChar: v
Encoding: 118 118 89
Width: 1096
Flags: HW
HStem: 860 141<18.4368 142 373.021 486.532 669.921 813 963.002 1067.75>
LayerCount: 2
Fore
SplineSet
1067 1001 m 2,0,1
 1092 1001 1092 1001 1092 944 c 0,2,3
 1092 892 1092 892 1068 868 c 0,4,5
 1060 860 1060 860 1043.5 860 c 128,-1,6
 1027 860 1027 860 1012 858 c 0,7,8
 998 856 998 856 988 850 c 0,9,10
 972 841 972 841 963 817 c 2,11,-1
 629 0 l 2,12,13
 621 -20 621 -20 589 -20 c 2,14,-1
 545 -20 l 2,15,16
 485 -20 485 -20 477 0 c 2,17,-1
 142 860 l 1,18,-1
 30 860 l 2,19,20
 4 860 4 860 4 920 c 0,21,22
 4 969 4 969 18 985 c 128,-1,23
 32 1001 32 1001 43 1001 c 2,24,-1
 477 1001 l 2,25,26
 502 1001 502 1001 502 944 c 0,27,28
 502 892 502 892 487 876 c 128,-1,29
 472 860 472 860 461 860 c 0,30,31
 373 860 373 860 373 817 c 1,32,-1
 571 268 l 1,33,-1
 813 860 l 1,34,-1
 682 860 l 2,35,36
 656 860 656 860 656 918 c 0,37,38
 656 970 656 970 669.5 985.5 c 128,-1,39
 683 1001 683 1001 692 1001 c 2,40,-1
 1067 1001 l 2,0,1
EndSplineSet
EndChar

StartChar: w
Encoding: 119 119 90
Width: 1563
Flags: HW
HStem: 860 141<23.4673 162 377 490.532 1133.92 1277 1450.54 1553.31>
LayerCount: 2
Fore
SplineSet
1531 1001 m 2,0,1
 1555 1001 1555 1001 1555 930.5 c 128,-1,2
 1555 860 1555 860 1515 860 c 0,3,4
 1467 860 1467 860 1450 849.5 c 128,-1,5
 1433 839 1433 839 1427 817 c 2,6,-1
 1183 0 l 1,7,8
 1175 -20 1175 -20 1148 -20 c 2,9,-1
 1108 -20 l 2,10,11
 1045 -20 1045 -20 1036 0 c 2,12,-1
 801 587 l 1,13,-1
 562 0 l 2,14,15
 554 -20 554 -20 499 -20 c 2,16,-1
 478 -20 l 2,17,18
 406 -20 406 -20 403 0 c 1,19,-1
 162 860 l 1,20,-1
 33 860 l 2,21,22
 8 860 8 860 8 921 c 0,23,24
 8 969 8 969 23 985 c 128,-1,25
 38 1001 38 1001 47 1001 c 2,26,-1
 481 1001 l 2,27,28
 506 1001 506 1001 506 944 c 0,29,30
 506 892 506 892 491 876 c 128,-1,31
 476 860 476 860 465 860 c 0,32,33
 377 860 377 860 377 817 c 1,34,-1
 513 216 l 1,35,-1
 762 906 l 1,36,37
 771 925 771 925 812 925 c 256,38,39
 856 925 856 925 864 907 c 1,40,-1
 1118 202 l 1,41,-1
 1277 860 l 1,42,-1
 1146 860 l 2,43,44
 1120 860 1120 860 1120 919 c 0,45,46
 1120 968 1120 968 1133.5 984.5 c 128,-1,47
 1147 1001 1147 1001 1156 1001 c 2,48,-1
 1531 1001 l 2,0,1
EndSplineSet
EndChar

StartChar: x
Encoding: 120 120 91
Width: 1174
Flags: HW
HStem: 0 141<39.6274 209.312 367.004 452.017 674.25 771 955.828 1123.02> 860 141<57.952 192 436.016 526.017 699.921 836 980.007 1114.53>
LayerCount: 2
Fore
SplineSet
61 0 m 2,0,1
 35 0 35 0 35 61 c 0,2,3
 35 108 35 108 61 134 c 0,4,5
 68 141 68 141 99 141 c 128,-1,6
 130 141 130 141 166 158 c 128,-1,7
 202 175 202 175 219 196 c 2,8,-1
 465 520 l 1,9,-1
 192 860 l 1,10,-1
 70 860 l 2,11,12
 43 860 43 860 43 918 c 0,13,14
 43 968 43 968 57.5 984.5 c 128,-1,15
 72 1001 72 1001 82 1001 c 2,16,-1
 519 1001 l 2,17,18
 542 1001 542 1001 542 944 c 0,19,20
 542 891 542 891 526.5 875.5 c 128,-1,21
 511 860 511 860 500 860 c 0,22,23
 436 860 436 860 436 842 c 0,24,25
 436 834 436 834 443 826 c 2,26,-1
 633 588 l 1,27,-1
 836 860 l 1,28,-1
 712 860 l 2,29,30
 686 860 686 860 686 919 c 0,31,32
 686 970 686 970 699.5 985.5 c 128,-1,33
 713 1001 713 1001 722 1001 c 2,34,-1
 1106 1001 l 2,35,36
 1130 1001 1130 1001 1130 943 c 0,37,38
 1130 892 1130 892 1115 876 c 128,-1,39
 1100 860 1100 860 1090 860 c 0,40,41
 1014 860 1014 860 980 817 c 2,42,-1
 715 486 l 1,43,-1
 945 197 l 2,44,45
 986 148 986 148 1064 142 c 0,46,47
 1082 141 1082 141 1114 141 c 0,48,49
 1139 141 1139 141 1139 80 c 0,50,51
 1139 31 1139 31 1123.5 15.5 c 128,-1,52
 1108 0 1108 0 1098 0 c 2,53,-1
 673 0 l 2,54,55
 646 0 646 0 646 61 c 0,56,57
 646 108 646 108 674 134 c 0,58,59
 682 141 682 141 688 141 c 2,60,-1
 771 141 l 1,61,-1
 550 415 l 1,62,-1
 374 171 l 2,63,64
 367 161 367 161 367 154 c 256,65,66
 367 141 367 141 385 141 c 2,67,-1
 442 141 l 2,68,69
 468 141 468 141 468 81 c 0,70,71
 468 31 468 31 452.5 15.5 c 128,-1,72
 437 0 437 0 427 0 c 2,73,-1
 61 0 l 2,0,1
EndSplineSet
EndChar

StartChar: y
Encoding: 121 121 92
Width: 1098
Flags: HW
HStem: -440 154<317 378.103> 860 141<20.4368 144 375.021 488.017 671.921 815 965.003 1089.41>
VStem: 45 272<-285.438 -178.947>
LayerCount: 2
Fore
SplineSet
1069 1001 m 2,0,1
 1094 1001 1094 1001 1094 944 c 0,2,3
 1094 892 1094 892 1070 868 c 0,4,5
 1062 860 1062 860 1034 860 c 0,6,7
 981 860 981 860 965 817 c 1,8,-1
 543 -260 l 2,9,10
 510 -344 510 -344 439 -392 c 128,-1,11
 368 -440 368 -440 262 -440 c 0,12,13
 122 -440 122 -440 66 -348 c 0,14,15
 46 -314 46 -314 45 -276 c 0,16,17
 45 -208 45 -208 74 -178 c 0,18,19
 124 -127 124 -127 172 -127 c 0,20,21
 175 -127 175 -127 179 -127 c 0,22,23
 223 -127 223 -127 247 -140 c 0,24,25
 272 -154 272 -154 288 -176 c 0,26,27
 316 -217 316 -217 317 -286 c 1,28,29
 392 -286 392 -286 468 -20 c 0,30,31
 474 3 474 3 476 6 c 1,32,-1
 144 860 l 1,33,-1
 32 860 l 2,34,35
 6 860 6 860 6 920 c 0,36,37
 6 969 6 969 20 985 c 128,-1,38
 34 1001 34 1001 45 1001 c 2,39,-1
 479 1001 l 2,40,41
 504 1001 504 1001 504 944 c 0,42,43
 504 893 504 893 488.5 876.5 c 128,-1,44
 473 860 473 860 463 860 c 0,45,46
 375 860 375 860 375 817 c 1,47,-1
 578 223 l 1,48,-1
 815 860 l 1,49,-1
 684 860 l 2,50,51
 658 860 658 860 658 918 c 0,52,53
 658 970 658 970 671.5 985.5 c 128,-1,54
 685 1001 685 1001 694 1001 c 2,55,-1
 1069 1001 l 2,0,1
EndSplineSet
EndChar

StartChar: z
Encoding: 122 122 93
Width: 1007
Flags: HW
HStem: 0 150<354 769> 699 302<123 235.469> 851 150<265 658>
VStem: 75 160<703.522 793.565>
LayerCount: 2
Fore
SplineSet
75 736 m 0,0,1
 75 739 75 739 79 759 c 2,2,-1
 123 1001 l 1,3,-1
 923 1001 l 1,4,-1
 923 890 l 1,5,-1
 354 150 l 1,6,-1
 769 150 l 1,7,-1
 816 259 l 2,8,9
 826 280 826 280 851 280 c 128,-1,10
 876 280 876 280 890 277 c 0,11,12
 902 274 902 274 914 268 c 0,13,14
 940 256 940 256 940 238 c 0,15,16
 940 232 940 232 939 231 c 2,17,-1
 867 0 l 1,18,-1
 89 0 l 1,19,-1
 89 110 l 1,20,-1
 658 851 l 1,21,-1
 265 851 l 1,22,-1
 235 741 l 2,23,24
 223 699 223 699 149 699 c 128,-1,25
 75 699 75 699 75 736 c 0,0,1
EndSplineSet
EndChar

StartChar: braceleft
Encoding: 123 123 94
Width: 667
Flags: HW
HStem: -160 141<424.938 663.845> 611 139<63.593 177.456> 1530 141<428.946 663.66>
VStem: 206 195<6.31348 567.33 783.103 1500.93>
LayerCount: 2
Fore
SplineSet
637 -19 m 2,0,1
 665 -19 665 -19 665 -89.5 c 128,-1,2
 665 -160 665 -160 637 -160 c 2,3,-1
 473 -160 l 2,4,5
 372 -160 372 -160 310 -124.5 c 128,-1,6
 248 -89 248 -89 227 -15 c 128,-1,7
 206 59 206 59 206 150 c 2,8,-1
 206 471 l 2,9,10
 206 547 206 547 189 568 c 0,11,12
 162 601 162 601 91 611 c 0,13,14
 62 615 62 615 62 683 c 0,15,16
 62 744 62 744 91 750 c 1,17,18
 161 760 161 760 178 782 c 0,19,20
 206 817 206 817 206 891 c 2,21,-1
 206 1352 l 2,22,23
 206 1603 206 1603 356 1654 c 0,24,25
 406 1671 406 1671 473 1671 c 2,26,-1
 637 1671 l 2,27,28
 665 1671 665 1671 665 1602 c 256,29,30
 665 1530 665 1530 637 1530 c 2,31,-1
 558 1530 l 2,32,33
 458 1530 458 1530 426 1482 c 0,34,35
 401 1445 401 1445 401 1346 c 2,36,-1
 401 903 l 2,37,38
 402 778 402 778 304 716 c 0,39,40
 270 694 270 694 221 682 c 1,41,42
 401 628 401 628 401 457 c 2,43,-1
 401 157 l 2,44,45
 401 152 401 152 401 148 c 0,46,47
 401 56 401 56 420 30 c 0,48,49
 455 -19 455 -19 558 -19 c 2,50,-1
 637 -19 l 2,0,1
EndSplineSet
EndChar

StartChar: bar
Encoding: 124 124 95
Width: 516
Flags: HW
VStem: 181 154<-481.25 1634.25>
LayerCount: 2
Fore
SplineSet
335 -455 m 2,0,1
 335 -483 335 -483 258 -483 c 128,-1,2
 181 -483 181 -483 181 -455 c 2,3,-1
 181 1608 l 2,4,5
 181 1636 181 1636 258 1636 c 128,-1,6
 335 1636 335 1636 335 1608 c 2,7,-1
 335 -455 l 2,0,1
EndSplineSet
EndChar

StartChar: braceright
Encoding: 125 125 96
Width: 667
Flags: HW
HStem: -160 141<3.15527 241.859> 609 141<482.378 594.169> 1530 141<3.33984 238.509>
VStem: 266 195<8.00903 573.144 795.669 1500.88>
LayerCount: 2
Fore
SplineSet
30 -160 m 2,0,1
 2 -160 2 -160 2 -89.5 c 128,-1,2
 2 -19 2 -19 30 -19 c 2,3,-1
 109 -19 l 2,4,5
 111 -19 111 -19 113 -19 c 0,6,7
 210 -19 210 -19 242 24 c 0,8,9
 266 57 266 57 266 157 c 2,10,-1
 266 457 l 2,11,12
 266 628 266 628 446 682 c 1,13,14
 266 727 266 727 266 903 c 2,15,-1
 266 1346 l 2,16,17
 266 1446 266 1446 246 1476 c 0,18,19
 209 1530 209 1530 109 1530 c 2,20,-1
 30 1530 l 2,21,22
 2 1530 2 1530 2 1602 c 256,23,24
 2 1671 2 1671 30 1671 c 2,25,-1
 194 1671 l 2,26,-1
 198 1671 l 0,27,28
 331 1671 331 1671 394 1600 c 0,29,30
 460 1526 460 1526 461 1352 c 2,31,-1
 461 891 l 2,32,33
 461 887 461 887 461 883 c 0,34,35
 461 815 461 815 478 795 c 0,36,37
 506 760 506 760 576 750 c 1,38,39
 605 744 605 744 605 683 c 0,40,41
 605 641 605 641 594.5 626.5 c 128,-1,42
 584 612 584 612 562 609 c 128,-1,43
 540 606 540 606 518 598 c 0,44,45
 494 590 494 590 482 574 c 0,46,47
 461 548 461 548 461 478 c 0,48,49
 461 475 461 475 461 471 c 2,50,-1
 461 150 l 2,51,52
 461 -100 461 -100 311 -145 c 0,53,54
 261 -160 261 -160 194 -160 c 2,55,-1
 30 -160 l 2,0,1
EndSplineSet
EndChar

StartChar: asciitilde
Encoding: 126 126 97
Width: 1218
Flags: HW
HStem: 442 168<693.612 938.488> 574 182<267.056 534.043>
LayerCount: 2
Fore
SplineSet
203 465 m 1,0,1
 166 466 166 466 144 486 c 0,2,3
 109 520 109 520 109 557 c 1,4,5
 174 676 174 676 288 732 c 0,6,7
 336 756 336 756 380.5 756 c 128,-1,8
 425 756 425 756 462 745 c 128,-1,9
 499 734 499 734 540.5 718 c 128,-1,10
 582 702 582 702 626 683 c 128,-1,11
 670 664 670 664 710 648 c 0,12,13
 806 610 806 610 841 610 c 128,-1,14
 876 610 876 610 901 625.5 c 128,-1,15
 926 641 926 641 947 662.5 c 128,-1,16
 968 684 968 684 985 705.5 c 128,-1,17
 1002 727 1002 727 1016 739 c 1,18,19
 1054 739 1054 739 1076 718 c 0,20,21
 1114 682 1114 682 1114 647 c 1,22,23
 1060 526 1060 526 947 467 c 0,24,25
 899 442 899 442 850 442 c 128,-1,26
 801 442 801 442 760 452 c 128,-1,27
 719 462 719 462 675.5 476.5 c 128,-1,28
 632 491 632 491 588.5 508.5 c 128,-1,29
 545 526 545 526 505 540 c 0,30,31
 410 574 410 574 374 574 c 0,32,33
 373 574 373 574 372 575 c 0,34,35
 338 575 338 575 312 561 c 0,36,37
 286 547 286 547 265 529 c 128,-1,38
 244 511 244 511 229 492.5 c 128,-1,39
 214 474 214 474 203 465 c 1,0,1
EndSplineSet
EndChar

StartChar: exclamdown
Encoding: 161 161 99
Width: 568
Flags: HW
HStem: -439 21G<229.75 321.25> 761 279<181.141 385.929>
VStem: 150 266<-427.719 -241.614 793.852 1007.15> 200 169<300.574 620.797>
LayerCount: 2
Fore
SplineSet
286 761 m 256,0,1
 228 761 228 761 186 801 c 128,-1,2
 144 841 144 841 144 886 c 128,-1,3
 144 931 144 931 155 956.5 c 128,-1,4
 166 982 166 982 186 1000 c 0,5,6
 228 1040 228 1040 286 1040 c 256,7,8
 376 1040 376 1040 409 956 c 0,9,10
 419 930 419 930 419 900 c 0,11,12
 419 872 419 872 409 846 c 0,13,14
 400 820 400 820 382 801 c 0,15,16
 346 761 346 761 286 761 c 256,0,1
416 -409 m 1,17,18
 367 -439 367 -439 275.5 -439 c 128,-1,19
 184 -439 184 -439 150 -407 c 1,20,-1
 200 585 l 1,21,22
 200 612 200 612 254 623 c 0,23,24
 268 626 268 626 283 626 c 0,25,26
 369 626 369 626 369 582 c 1,27,-1
 416 -409 l 1,17,18
EndSplineSet
EndChar

StartChar: cent
Encoding: 162 162 100
Width: 1002
Flags: HW
HStem: 176 152<394.817 467 608 705.405> 1075 134<406.997 467 608 637.868>
VStem: 65 205<466.766 921.145> 467 141<-24.093 181.438 1210.59 1428.88> 629 264<926.193 1073.88>
LayerCount: 2
Fore
SplineSet
608 0 m 1,0,1
 583 -27 583 -27 538.5 -27 c 128,-1,2
 494 -27 494 -27 467 0 c 1,3,-1
 467 176 l 1,4,5
 225 196 225 196 124 408 c 0,6,7
 65 532 65 532 65 674 c 0,8,9
 66 816 66 816 96 904 c 0,10,11
 126 990 126 990 180 1054 c 0,12,13
 286 1179 286 1179 467 1209 c 1,14,-1
 467 1403 l 1,15,16
 496 1432 496 1432 537.5 1432 c 128,-1,17
 579 1432 579 1432 608 1403 c 1,18,-1
 608 1214 l 1,19,20
 804 1203 804 1203 876 1108 c 0,21,22
 903 1072 903 1072 903 1029 c 0,23,24
 902 991 902 991 892 968 c 0,25,26
 882 943 882 943 864 925 c 0,27,28
 824 886 824 886 766 886 c 256,29,30
 708 886 708 886 668 925 c 0,31,32
 629 962 629 962 629 1020 c 0,33,34
 629 1039 629 1039 638 1075 c 1,35,-1
 545 1075 l 2,36,37
 441 1075 441 1075 366 996 c 0,38,39
 270 895 270 895 270 705 c 0,40,41
 270 426 270 426 425 352 c 0,42,43
 474 328 474 328 525.5 328 c 128,-1,44
 577 328 577 328 617.5 339.5 c 128,-1,45
 658 351 658 351 697 369 c 0,46,47
 736 386 736 386 772 408 c 2,48,-1
 844 451 l 2,49,50
 848 454 848 454 857.5 454 c 128,-1,51
 867 454 867 454 881 442 c 0,52,53
 894 430 894 430 906 414 c 0,54,55
 932 376 932 376 933 350 c 0,56,57
 932 326 932 326 914 312 c 0,58,59
 896 298 896 298 864 277 c 128,-1,60
 832 256 832 256 794 238 c 0,61,62
 704 195 704 195 608 182 c 1,63,-1
 608 0 l 1,0,1
EndSplineSet
EndChar

StartChar: sterling
Encoding: 163 163 101
Width: 1164
Flags: HW
HStem: -20 310<107.411 344.844> -20 154<531.928 879.617> 606 154<119.672 388 599 886.048> 1345 180<639.009 921.06>
VStem: 388 211<319.323 606 760 1298.2> 966 139<209.566 296.401>
LayerCount: 2
Fore
SplineSet
499 190 m 1,0,1
 648 134 648 134 750 134 c 0,2,3
 833 134 833 134 864 153 c 0,4,5
 917 185 917 185 966 282 c 0,6,7
 978 305 978 305 1004 305 c 128,-1,8
 1030 305 1030 305 1045 301 c 0,9,10
 1060 298 1060 298 1072 290 c 0,11,12
 1101 273 1101 273 1105 247 c 1,13,14
 1040 37 1040 37 912 -6 c 0,15,16
 870 -20 870 -20 827 -20 c 128,-1,17
 784 -20 784 -20 734 -14 c 0,18,19
 682 -10 682 -10 626 0 c 0,20,21
 504 21 504 21 396 52 c 1,22,23
 383 46 383 46 362.5 34 c 128,-1,24
 342 22 342 22 318 10 c 0,25,26
 257 -20 257 -20 203.5 -20 c 128,-1,27
 150 -20 150 -20 106 24 c 0,28,29
 61 69 61 69 61 134 c 256,30,31
 61 200 61 200 106 245 c 128,-1,32
 151 290 151 290 215 290 c 0,33,34
 267 290 267 290 301 270 c 2,35,-1
 347 244 l 1,36,37
 388 348 388 348 388 606 c 1,38,-1
 156 606 l 2,39,40
 128 606 128 606 118 657 c 0,41,42
 116 670 116 670 115.5 681.5 c 128,-1,43
 115 693 115 693 117.5 706.5 c 128,-1,44
 120 720 120 720 125 732 c 0,45,46
 137 760 137 760 156 760 c 2,47,-1
 388 760 l 1,48,-1
 388 1193 l 2,49,50
 388 1360 388 1360 506 1450 c 0,51,52
 604 1525 604 1525 743 1525 c 0,53,-1
 747 1525 l 0,54,55
 912 1525 912 1525 986 1479 c 0,56,57
 1007 1465 1007 1465 1007 1420 c 256,58,59
 1006 1351 1006 1351 966 1309 c 0,60,61
 954 1296 954 1296 941.5 1296 c 128,-1,62
 929 1296 929 1296 900 1310 c 0,63,64
 828 1345 828 1345 738 1345 c 0,65,66
 737 1345 737 1345 735 1345 c 0,67,68
 669 1345 669 1345 638 1300 c 0,69,70
 599 1244 599 1244 599 1110 c 0,71,72
 599 1107 599 1107 599 1103 c 2,73,-1
 599 760 l 1,74,-1
 862 760 l 2,75,76
 888 760 888 760 898 709 c 0,77,78
 900 696 900 696 901 685 c 256,79,80
 901 639 901 639 886.5 622.5 c 128,-1,81
 872 606 872 606 862 606 c 2,82,-1
 599 606 l 1,83,84
 595 567 595 567 592 521.5 c 128,-1,85
 589 476 589 476 580 424 c 0,86,87
 559 302 559 302 499 190 c 1,0,1
EndSplineSet
EndChar

StartChar: currency
Encoding: 164 164 102
Width: 1184
Flags: HW
HStem: 175 190<446.66 735.825> 938 183<446.642 735.303>
VStem: 133 200<487.52 815.608> 849 191<484.122 818.131>
LayerCount: 2
Fore
SplineSet
820 250 m 1,0,1
 709 175 709 175 587 175 c 128,-1,2
 465 175 465 175 359 244 c 1,3,-1
 246 126 l 1,4,5
 174 126 174 126 125 194 c 0,6,7
 99 230 99 230 99 267 c 1,8,-1
 215 384 l 1,9,10
 133 509 133 509 133 650.5 c 128,-1,11
 133 792 133 792 213 912 c 1,12,-1
 97 1028 l 1,13,14
 98 1087 98 1087 144 1130 c 0,15,16
 188 1171 188 1171 244 1171 c 1,17,-1
 360 1055 l 1,18,19
 463 1121 463 1121 586.5 1121 c 128,-1,20
 710 1121 710 1121 818 1048 c 1,21,-1
 940 1173 l 1,22,23
 941 1173 941 1173 943 1173 c 0,24,25
 997 1173 997 1173 1041 1132 c 0,26,27
 1087 1089 1087 1089 1087 1032 c 1,28,-1
 962 905 l 1,29,30
 1040 781 1040 781 1040 648.5 c 128,-1,31
 1040 516 1040 516 966 395 c 1,32,-1
 1089 271 l 1,33,34
 1089 218 1089 218 1042 172 c 0,35,36
 997 128 997 128 943 128 c 0,37,38
 942 128 942 128 941 128 c 1,39,-1
 820 250 l 1,0,1
333 651.5 m 128,-1,41
 333 532 333 532 404.5 448.5 c 128,-1,42
 476 365 476 365 591 365 c 128,-1,43
 706 365 706 365 777.5 447 c 128,-1,44
 849 529 849 529 849 651 c 128,-1,45
 849 773 849 773 777 855.5 c 128,-1,46
 705 938 705 938 591 938 c 128,-1,47
 477 938 477 938 405 854.5 c 128,-1,40
 333 771 333 771 333 651.5 c 128,-1,41
EndSplineSet
EndChar

StartChar: yen
Encoding: 165 165 103
Width: 1275
Flags: HW
HStem: 0 141<360.25 541.544 757 956.017> 412 154<179.672 543 760 1092.69> 785 154<186.468 381 912 1092.69> 1364 141<73.4368 197 446.026 577.532 819.921 918 1068.54 1212.41>
VStem: 546 211<166.25 412>
LayerCount: 2
Fore
SplineSet
358 0 m 2,0,1
 333 0 333 0 333 60 c 0,2,3
 333 107 333 107 360 134 c 0,4,5
 368 142 368 142 376 141 c 2,6,-1
 437 141 l 2,7,8
 528 141 528 141 542 166 c 0,9,10
 546 174 546 174 546 184 c 2,11,-1
 546 412 l 1,12,-1
 216 412 l 2,13,14
 188 412 188 412 178 464 c 0,15,16
 176 476 176 476 176 488 c 0,17,18
 176 500 176 500 178 514 c 0,19,20
 180 526 180 526 185 538 c 0,21,22
 197 566 197 566 216 566 c 2,23,-1
 543 566 l 1,24,-1
 448 785 l 1,25,-1
 212 785 l 2,26,27
 184 785 184 785 174 837 c 0,28,29
 172 850 172 850 171 861 c 256,30,31
 171 907 171 907 186 923 c 128,-1,32
 201 939 201 939 212 939 c 2,33,-1
 381 939 l 1,34,-1
 197 1364 l 1,35,-1
 85 1364 l 2,36,37
 59 1364 59 1364 59 1424 c 0,38,39
 59 1473 59 1473 73 1489 c 128,-1,40
 87 1505 87 1505 98 1505 c 2,41,-1
 568 1505 l 2,42,43
 593 1505 593 1505 593 1448 c 0,44,45
 593 1396 593 1396 578 1380 c 128,-1,46
 563 1364 563 1364 552 1364 c 0,47,48
 446 1364 446 1364 446 1329 c 0,49,50
 446 1325 446 1325 452 1307 c 1,51,-1
 679 782 l 1,52,-1
 918 1364 l 1,53,-1
 832 1364 l 2,54,55
 806 1364 806 1364 806 1422 c 0,56,57
 806 1474 806 1474 819.5 1489.5 c 128,-1,58
 833 1505 833 1505 842 1505 c 2,59,-1
 1192 1505 l 2,60,61
 1217 1505 1217 1505 1217 1448 c 0,62,63
 1217 1396 1217 1396 1193 1372 c 0,64,65
 1184 1364 1184 1364 1156 1364 c 0,66,67
 1085 1364 1085 1364 1068 1321 c 2,68,-1
 912 939 l 1,69,-1
 1058 939 l 2,70,71
 1084 939 1084 939 1094 888 c 0,72,73
 1096 875 1096 875 1096.5 864 c 128,-1,74
 1097 853 1097 853 1094.5 839 c 128,-1,75
 1092 825 1092 825 1088 813 c 0,76,77
 1078 785 1078 785 1058 785 c 2,78,-1
 849 785 l 1,79,-1
 760 566 l 1,80,-1
 1058 566 l 2,81,82
 1084 566 1084 566 1094 516 c 0,83,84
 1096 503 1096 503 1096.5 491.5 c 128,-1,85
 1097 480 1097 480 1094.5 466 c 128,-1,86
 1092 452 1092 452 1088 440 c 0,87,88
 1078 412 1078 412 1058 412 c 2,89,-1
 757 412 l 1,90,-1
 757 141 l 1,91,-1
 946 141 l 2,92,93
 972 141 972 141 972 80 c 0,94,95
 972 31 972 31 956.5 15.5 c 128,-1,96
 941 0 941 0 931 0 c 2,97,-1
 358 0 l 2,0,1
EndSplineSet
EndChar

StartChar: brokenbar
Encoding: 166 166 104
Width: 522
Flags: HW
VStem: 184 154<-481.25 516 694 1634.25>
LayerCount: 2
Fore
SplineSet
184 1608 m 2,0,1
 184 1636 184 1636 261 1636 c 128,-1,2
 338 1636 338 1636 338 1608 c 2,3,-1
 338 694 l 1,4,-1
 184 694 l 1,5,-1
 184 1608 l 2,0,1
338 -455 m 2,6,7
 338 -483 338 -483 261 -483 c 128,-1,8
 184 -483 184 -483 184 -455 c 2,9,-1
 184 516 l 1,10,-1
 338 516 l 1,11,-1
 338 -455 l 2,6,7
EndSplineSet
EndChar

StartChar: section
Encoding: 167 167 105
Width: 1148
Flags: HW
HStem: -375 153<348.266 717.329> 1144 368<783.328 957.062> 1429 154<415.133 765.757>
VStem: 67 307<-186.56 16.5933> 102 211<681.854 852.172 1101.38 1337.1> 738 307<1189.44 1391.13> 849 211<-101.959 145.443 385.502 556.165>
LayerCount: 2
Fore
SplineSet
1000 238 m 1,0,1
 1060 147 1060 147 1060 47.5 c 128,-1,2
 1060 -52 1060 -52 1022 -128 c 0,3,4
 984 -206 984 -206 916 -260 c 0,5,6
 773 -375 773 -375 555 -375 c 0,7,8
 553 -375 553 -375 551 -375 c 0,9,10
 381 -375 381 -375 236 -304 c 0,11,12
 67 -221 67 -221 67 -95 c 1,13,14
 70 -52 70 -52 83.5 -21.5 c 128,-1,15
 97 9 97 9 135 35 c 128,-1,16
 173 61 173 61 213 61 c 128,-1,17
 253 61 253 61 281 49 c 0,18,19
 310 37 310 37 330 16 c 0,20,21
 374 -30 374 -30 374 -95 c 0,22,23
 374 -125 374 -125 362.5 -149 c 128,-1,24
 351 -173 351 -173 346 -187 c 1,25,26
 411 -222 411 -222 507 -222 c 128,-1,27
 603 -222 603 -222 661 -202 c 0,28,29
 718 -182 718 -182 760 -149 c 0,30,31
 848 -76 848 -76 849 34 c 256,32,33
 848 132 848 132 732 210 c 0,34,35
 680 246 680 246 613 276 c 2,36,-1
 476 342 l 2,37,38
 301 426 301 426 233.5 491.5 c 128,-1,39
 166 557 166 557 134 622 c 128,-1,40
 102 687 102 687 102 748 c 128,-1,41
 102 809 102 809 107 840.5 c 128,-1,42
 112 872 112 872 120 900 c 0,43,44
 130 928 130 928 140 952 c 2,45,-1
 161 1001 l 1,46,47
 101 1092 101 1092 101 1196 c 0,48,49
 101 1300 101 1300 142 1372 c 0,50,51
 184 1444 184 1444 252 1491 c 0,52,53
 386 1583 386 1583 597 1583 c 0,54,55
 752 1582 752 1582 888 1512 c 0,56,57
 1045 1432 1045 1432 1045 1300 c 0,58,59
 1045 1235 1045 1235 1000 1188 c 0,60,61
 957 1144 957 1144 892 1144 c 256,62,63
 827 1144 827 1144 783 1188 c 0,64,65
 738 1233 738 1233 738 1283 c 128,-1,66
 738 1333 738 1333 768 1393 c 1,67,68
 709 1429 709 1429 626.5 1429 c 128,-1,69
 544 1429 544 1429 489 1414.5 c 128,-1,70
 434 1400 434 1400 395 1372 c 0,71,72
 312 1312 312 1312 312 1208 c 0,73,74
 312 1128 312 1128 400 1064 c 0,75,76
 442 1032 442 1032 502 1002 c 2,77,-1
 638 932 l 1,78,79
 859 822 859 822 949 733 c 0,80,81
 1060 624 1060 624 1060 476 c 1,82,-1
 1059 476 l 1,83,84
 1059 392 1059 392 1000 238 c 1,0,1
318 853 m 1,85,86
 313 825 313 825 313 796 c 0,87,88
 313 713 313 713 397 640 c 0,89,90
 471 577 471 577 632 493 c 2,91,-1
 843 384 l 1,92,93
 849 408 849 408 849 451 c 128,-1,94
 849 494 849 494 821 535.5 c 128,-1,95
 793 577 793 577 747.5 613.5 c 128,-1,96
 702 650 702 650 643 682 c 2,97,-1
 318 853 l 1,85,86
EndSplineSet
EndChar

StartChar: dieresis
Encoding: 168 168 106
Width: 1065
Flags: HW
HStem: 1190 276<216.166 415.66 663.641 862.746>
VStem: 178 273<1230.22 1430.44> 630 272<1249.06 1424.81>
LayerCount: 2
Fore
SplineSet
178 1327 m 256,0,1
 178 1422 178 1422 258 1456 c 0,2,3
 282 1466 282 1466 312 1466 c 128,-1,4
 342 1466 342 1466 368 1456 c 0,5,6
 394 1444 394 1444 412 1426 c 0,7,8
 452 1386 452 1386 451 1327 c 256,9,10
 452 1268 452 1268 412 1228 c 0,11,12
 374 1190 374 1190 328 1190 c 0,13,14
 252 1190 252 1190 215 1229 c 128,-1,15
 178 1268 178 1268 178 1327 c 256,0,1
766 1190 m 0,16,17
 690 1190 690 1190 652 1248 c 0,18,19
 630 1281 630 1281 630 1318 c 0,20,21
 630 1355 630 1355 641 1382 c 0,22,23
 650 1408 650 1408 668 1426 c 0,24,25
 705 1466 705 1466 766 1466 c 256,26,27
 824 1466 824 1466 864 1426 c 0,28,29
 902 1388 902 1388 902 1327 c 256,30,31
 902 1233 902 1233 821 1200 c 0,32,33
 796 1190 796 1190 766 1190 c 0,16,17
EndSplineSet
EndChar

StartChar: copyright
Encoding: 169 169 107
Width: 1686
Flags: HW
HStem: -20 118<608.459 1081.51> 223 154<692.948 1003.26> 1113 154<702.034 930.211> 1407 118<601.478 1084.16>
VStem: 68 130<512.926 1001.65> 365 205<514.931 967.44> 929 274<972.429 1110.79> 1488 131<506.355 996.496>
LayerCount: 2
Fore
SplineSet
540 40 m 0,0,1
 252 164 252 164 128 450 c 0,2,3
 67 591 67 591 67 729 c 0,4,5
 66 860 66 860 94 958 c 0,6,7
 122 1057 122 1057 172.5 1143 c 128,-1,8
 223 1229 223 1229 294 1299.5 c 128,-1,9
 365 1370 365 1370 451 1420 c 0,10,11
 632 1525 632 1525 843 1525 c 256,12,13
 1054 1525 1054 1525 1235 1420 c 0,14,15
 1412 1318 1412 1318 1514 1143 c 0,16,17
 1620 963 1620 963 1619 752 c 256,18,19
 1620 541 1620 541 1514 361 c 0,20,21
 1412 188 1412 188 1235 85 c 0,22,23
 1054 -20 1054 -20 867 -20 c 128,-1,24
 680 -20 680 -20 540 40 c 0,0,1
344 335 m 0,25,26
 465 186 465 186 648 128 c 0,27,28
 740 98 740 98 859.5 98 c 128,-1,29
 979 98 979 98 1096.5 149 c 128,-1,30
 1214 200 1214 200 1301 288 c 0,31,32
 1488 478 1488 478 1488 752 c 0,33,34
 1488 1024 1488 1024 1301 1215 c 0,35,36
 1113 1407 1113 1407 843 1407 c 0,37,38
 572 1407 572 1407 384 1215 c 0,39,40
 198 1025 198 1025 198 769.5 c 128,-1,41
 198 514 198 514 344 335 c 0,25,26
931 1103 m 1,42,43
 894 1113 894 1113 848.5 1113 c 128,-1,44
 803 1113 803 1113 755 1096.5 c 128,-1,45
 707 1080 707 1080 666 1039 c 0,46,47
 570 943 570 943 570 753 c 0,48,49
 570 474 570 474 725 400 c 0,50,51
 772 377 772 377 821 377 c 0,52,53
 824 377 824 377 826 377 c 0,54,55
 878 378 878 378 918 388.5 c 128,-1,56
 958 399 958 399 997 417 c 0,57,58
 1036 434 1036 434 1072 456 c 2,59,-1
 1144 499 l 1,60,61
 1178 489 1178 489 1202 458 c 128,-1,62
 1226 427 1226 427 1226 402 c 128,-1,63
 1226 377 1226 377 1222 366 c 1,64,65
 1045 223 1045 223 806 223 c 0,66,67
 599 223 599 223 479 368 c 256,68,69
 365 506 365 506 365 753 c 0,70,71
 365 994 365 994 510 1135 c 0,72,73
 646 1267 646 1267 857 1267 c 0,74,75
 1083 1266 1083 1266 1170 1168 c 0,76,77
 1203 1130 1203 1130 1203 1087 c 128,-1,78
 1203 1044 1203 1044 1192.5 1019 c 128,-1,79
 1182 994 1182 994 1164 976 c 0,80,81
 1124 937 1124 937 1079 937 c 0,82,83
 1076 937 1076 937 1072 937 c 0,84,85
 1032 937 1032 937 1008 948 c 0,86,87
 984 960 984 960 966 980 c 0,88,89
 930 1022 930 1022 929 1086 c 0,90,91
 929 1090 929 1090 929 1094 c 128,-1,92
 929 1098 929 1098 931 1103 c 1,42,43
EndSplineSet
EndChar

StartChar: ordfeminine
Encoding: 170 170 108
Width: 915
Flags: HW
HStem: 600 127<120.817 777.142> 859 116<271.713 498.876 664 783.461> 1160 97<284.652 541> 1435 90<326 496.647>
VStem: 131 129<988.425 1136.78> 161 172<1335.27 1430.5> 541 123<1013.12 1160 1257 1393.22>
LayerCount: 2
Fore
SplineSet
150 600 m 2,0,1
 129 600 129 600 121 642 c 0,2,3
 119 652 119 652 119 662 c 128,-1,4
 119 672 119 672 121 683 c 0,5,6
 122 694 122 694 126 704 c 0,7,8
 134 727 134 727 150 727 c 2,9,-1
 759 727 l 2,10,11
 779 728 779 728 787 686 c 0,12,13
 789 676 789 676 789 666 c 256,14,15
 789 627 789 627 777.5 613.5 c 128,-1,16
 766 600 766 600 759 600 c 2,17,-1
 150 600 l 2,0,1
770 962 m 2,18,19
 786 962 786 962 786 934 c 0,20,21
 786 876 786 876 760 871 c 0,22,23
 720 862 720 862 604 862 c 0,24,25
 583 862 583 862 571 880 c 128,-1,26
 559 898 559 898 547 933 c 1,27,28
 492 889 492 889 380 866 c 0,29,30
 346 859 346 859 308 859 c 128,-1,31
 270 859 270 859 234 873 c 0,32,33
 198 888 198 888 175 912 c 0,34,35
 131 959 131 959 131 1024 c 128,-1,36
 131 1089 131 1089 150.5 1130 c 128,-1,37
 170 1171 170 1171 202 1199 c 0,38,39
 269 1257 269 1257 359 1257 c 2,40,-1
 541 1257 l 1,41,42
 541 1354 541 1354 498 1394.5 c 128,-1,43
 455 1435 455 1435 374 1435 c 0,44,45
 345 1435 345 1435 326 1431 c 1,46,47
 333 1415 333 1415 333 1387 c 128,-1,48
 333 1359 333 1359 309 1334.5 c 128,-1,49
 285 1310 285 1310 247.5 1310 c 128,-1,50
 210 1310 210 1310 185.5 1334.5 c 128,-1,51
 161 1359 161 1359 161 1392 c 128,-1,52
 161 1425 161 1425 175 1445 c 128,-1,53
 189 1465 189 1465 212 1479.5 c 128,-1,54
 235 1494 235 1494 264 1503 c 0,55,56
 292 1512 292 1512 322 1516 c 0,57,58
 378 1524 378 1524 436 1525 c 0,59,60
 439 1525 439 1525 441 1525 c 0,61,62
 494 1525 494 1525 538 1505 c 0,63,64
 584 1484 584 1484 612 1450 c 0,65,66
 664 1387 664 1387 664 1283 c 2,67,-1
 664 962 l 1,68,-1
 770 962 l 2,18,19
269 1094 m 128,-1,70
 260 1075 260 1075 260 1041.5 c 128,-1,71
 260 1008 260 1008 279 995 c 0,72,73
 306 975 306 975 340 975 c 128,-1,74
 374 975 374 975 402 981.5 c 128,-1,75
 430 988 430 988 457 998 c 0,76,77
 509 1016 509 1016 541 1037 c 1,78,-1
 541 1160 l 1,79,-1
 380 1160 l 2,80,81
 330 1160 330 1160 304 1136.5 c 128,-1,69
 278 1113 278 1113 269 1094 c 128,-1,70
EndSplineSet
EndChar

StartChar: guillemotleft
Encoding: 171 171 109
Width: 1186
Flags: HW
LayerCount: 2
Fore
SplineSet
581 429 m 2,0,1
 542 460 542 460 542 513 c 256,2,3
 542 568 542 568 582 601 c 2,4,-1
 1003 935 l 1,5,6
 1035 935 1035 935 1056 913 c 0,7,8
 1093 874 1093 874 1093 840 c 1,9,-1
 786 535 l 1,10,-1
 1093 184 l 1,11,12
 1093 150 1093 150 1073 129 c 0,13,14
 1037 90 1037 90 1004 90 c 1,15,-1
 581 429 l 2,0,1
84 429 m 2,16,17
 43 462 43 462 43 502 c 0,18,19
 43 570 43 570 84 602 c 2,20,-1
 505 935 l 1,21,22
 535 935 535 935 556 913 c 0,23,24
 593 874 593 874 593 840 c 1,25,-1
 287 535 l 1,26,-1
 593 184 l 1,27,28
 593 150 593 150 574 128 c 0,29,30
 540 90 540 90 506 90 c 1,31,-1
 84 429 l 2,16,17
EndSplineSet
EndChar

StartChar: logicalnot
Encoding: 172 172 110
Width: 1119
Flags: HW
HStem: 575 154<87.6724 851>
VStem: 851 154<260.952 575>
LayerCount: 2
Fore
SplineSet
933 729 m 2,0,1
 1005 729 1005 729 1005 645 c 2,2,-1
 1005 285 l 2,3,4
 1005 258 1005 258 955 248 c 0,5,6
 942 246 942 246 931 246 c 256,7,8
 884 246 884 246 867.5 260.5 c 128,-1,9
 851 275 851 275 851 285 c 2,10,-1
 851 575 l 1,11,-1
 124 575 l 2,12,13
 96 575 96 575 86 627 c 0,14,15
 83 644 83 644 83 655 c 0,16,17
 84 664 84 664 86 676 c 0,18,19
 88 690 88 690 93 702 c 0,20,21
 105 729 105 729 123 729 c 0,22,23
 124 729 l 2,24,-1
 933 729 l 2,0,1
EndSplineSet
EndChar

StartChar: uni00AD
Encoding: 173 173 111
Width: 750
Flags: HW
HStem: 513 176<165.564 670.048>
VStem: 162 523<533.117 688.96>
LayerCount: 2
Fore
SplineSet
200 513 m 2,0,1
 199 513 l 0,2,3
 172 513 172 513 162 574 c 0,4,5
 159 592 159 592 159 604 c 0,6,7
 160 614 160 614 162 627 c 0,8,9
 164 642 164 642 169 656 c 0,10,11
 181 689 181 689 200 689 c 2,12,-1
 646 689 l 2,13,14
 647 689 l 0,15,16
 672 689 672 689 682 630 c 0,17,18
 684 616 684 616 685 604 c 256,19,20
 685 552 685 552 670.5 532.5 c 128,-1,21
 656 513 656 513 646 513 c 2,22,-1
 200 513 l 2,0,1
EndSplineSet
EndChar

StartChar: registered
Encoding: 174 174 112
Width: 1088
Flags: HW
HStem: 506 98<372.125 715.156> 693 63<349.25 384.75 491 584.985> 930 71<491 543.187> 1195 63<331.01 393 491 619.908> 1359 97<372.247 716.105>
VStem: 68 108<800.109 1162.57> 393 98<760.549 930 1001 1191.9> 652 107<1015.49 1170.89> 913 107<803.209 1158.12>
LayerCount: 2
Fore
SplineSet
68 992 m 0,0,1
 68 1078 68 1078 106 1165 c 128,-1,2
 144 1252 144 1252 208 1316 c 0,3,4
 348 1456 348 1456 545 1456 c 0,5,6
 741 1456 741 1456 880.5 1316.5 c 128,-1,7
 1020 1177 1020 1177 1020 980 c 256,8,9
 1020 784 1020 784 880 644 c 0,10,11
 742 506 742 506 558 506 c 0,12,13
 556 505 l 0,14,15
 373 505 373 505 253 604 c 0,16,17
 68 755 68 755 68 992 c 0,0,1
832 746 m 1,18,19
 913 850 913 850 913 981 c 0,20,21
 912 1138 912 1138 804 1248 c 0,22,23
 694 1359 694 1359 544 1359 c 256,24,25
 393 1359 393 1359 284 1248 c 0,26,27
 176 1138 176 1138 176 981 c 256,28,29
 176 824 176 824 284 714 c 1,30,31
 394 604 394 604 544 604 c 0,32,33
 679 604 679 604 781 693 c 1,34,-1
 738 693 l 2,35,36
 696 693 696 693 671 732 c 2,37,-1
 544 932 l 1,38,39
 518 930 518 930 491 930 c 1,40,-1
 491 756 l 1,41,-1
 575 756 l 1,42,43
 585 752 585 752 585 725.5 c 128,-1,44
 585 699 585 699 570 693 c 1,45,-1
 350 693 l 1,46,47
 341 702 341 702 341 721.5 c 128,-1,48
 341 741 341 741 349 748.5 c 128,-1,49
 357 756 357 756 367 757.5 c 128,-1,50
 377 759 377 759 385 760.5 c 128,-1,51
 393 762 393 762 393 773 c 2,52,-1
 393 1189 l 2,53,54
 393 1195 393 1195 388 1195 c 2,55,-1
 346 1195 l 1,56,57
 331 1199 331 1199 331 1225.5 c 128,-1,58
 331 1252 331 1252 341 1258 c 1,59,-1
 569 1258 l 2,60,61
 656 1258 656 1258 707.5 1216.5 c 128,-1,62
 759 1175 759 1175 759 1103 c 0,63,64
 759 987 759 987 645 947 c 1,65,-1
 754 779 l 2,66,67
 772 751 772 751 832 746 c 1,18,19
491 1001 m 1,68,69
 576 1001 576 1001 602 1012 c 0,70,71
 652 1034 652 1034 652 1102 c 0,72,73
 652 1192 652 1192 491 1192 c 1,74,-1
 491 1001 l 1,68,69
EndSplineSet
EndChar

StartChar: macron
Encoding: 175 175 113
Width: 1065
Flags: HW
HStem: 1237 134<192.562 859.531>
VStem: 192 668<1237 1371>
LayerCount: 2
Fore
SplineSet
858 1353.5 m 128,-1,1
 860 1336 860 1336 860 1286.5 c 128,-1,2
 860 1237 860 1237 845 1237 c 2,3,-1
 208 1237 l 2,4,5
 192 1237 192 1237 192 1304 c 128,-1,6
 192 1371 192 1371 208 1371 c 2,7,-1
 845 1371 l 2,8,0
 856 1371 856 1371 858 1353.5 c 128,-1,1
EndSplineSet
EndChar

StartChar: degree
Encoding: 176 176 114
Width: 855
Flags: HW
HStem: 785 154<296.137 560.65> 1347 157<301.261 554.996>
VStem: 67 160<1009.32 1272.78> 628 160<1005.91 1274.02>
LayerCount: 2
Fore
SplineSet
260 1023.5 m 128,-1,1
 293 976 293 976 339.5 957.5 c 128,-1,2
 386 939 386 939 428.5 939 c 128,-1,3
 471 939 471 939 508 953.5 c 128,-1,4
 545 968 545 968 572 994 c 0,5,6
 628 1048 628 1048 628 1140 c 0,7,8
 628 1229 628 1229 572 1287 c 0,9,10
 514 1347 514 1347 426 1347 c 0,11,12
 342 1347 342 1347 284 1287 c 0,13,14
 227 1228 227 1228 227 1149.5 c 128,-1,0
 227 1071 227 1071 260 1023.5 c 128,-1,1
428 785 m 0,15,16
 349 785 349 785 283.5 811 c 128,-1,17
 218 837 218 837 170 884 c 0,18,19
 67 985 67 985 67 1140 c 0,20,21
 67 1294 67 1294 170 1399 c 128,-1,22
 273 1504 273 1504 426 1504 c 0,23,24
 586 1504 586 1504 688 1399 c 0,25,26
 788 1295 788 1295 788 1140 c 0,27,28
 788 983 788 983 688 884 c 128,-1,29
 588 785 588 785 428 785 c 0,15,16
EndSplineSet
EndChar

StartChar: plusminus
Encoding: 177 177 115
Width: 1093
Flags: HW
HStem: 0 154<100.468 1002.69> 646 144<81.8135 474 618 1010.23>
VStem: 474 144<292.766 646 790 1113.23>
LayerCount: 2
Fore
SplineSet
126 0 m 2,0,1
 98 0 98 0 88 52 c 0,2,3
 86 65 86 65 85 76 c 256,4,5
 85 122 85 122 100 138 c 128,-1,6
 115 154 115 154 126 154 c 2,7,-1
 968 154 l 2,8,9
 994 154 994 154 1004 104 c 0,10,11
 1006 91 1006 91 1006.5 79.5 c 128,-1,12
 1007 68 1007 68 1004.5 54 c 128,-1,13
 1002 40 1002 40 998 28 c 0,14,15
 988 0 988 0 968 0 c 2,16,-1
 126 0 l 2,0,1
618 308 m 2,17,18
 618 292 618 292 546 292 c 128,-1,19
 474 292 474 292 474 308 c 2,20,-1
 474 646 l 1,21,-1
 98 646 l 2,22,23
 81 646 81 646 81 718 c 128,-1,24
 81 790 81 790 98 790 c 2,25,-1
 474 790 l 1,26,-1
 474 1098 l 2,27,28
 474 1114 474 1114 546 1114 c 128,-1,29
 618 1114 618 1114 618 1098 c 2,30,-1
 618 790 l 1,31,-1
 995 790 l 2,32,33
 1011 790 1011 790 1011 718 c 128,-1,34
 1011 646 1011 646 995 646 c 2,35,-1
 618 646 l 1,36,-1
 618 308 l 2,17,18
EndSplineSet
EndChar

StartChar: uni00B2
Encoding: 178 178 116
Width: 808
Flags: HW
HStem: 647 146<267 595> 1436 89<252.702 476.749>
VStem: 93 205<1233.43 1393.7> 510 186<1184.48 1403.99>
LayerCount: 2
Fore
SplineSet
113 647 m 1,0,-1
 113 690 l 2,1,2
 114 884 114 884 312 1044 c 0,3,4
 438 1145 438 1145 474 1195.5 c 128,-1,5
 510 1246 510 1246 510 1290 c 128,-1,6
 510 1334 510 1334 498 1360 c 128,-1,7
 486 1386 486 1386 466 1404 c 0,8,9
 427 1436 427 1436 376 1436 c 128,-1,10
 325 1436 325 1436 299 1427 c 128,-1,11
 273 1418 273 1418 250 1395 c 1,12,13
 282 1382 282 1382 294 1334 c 0,14,15
 298 1320 298 1320 298 1308 c 0,16,17
 298 1260 298 1260 269 1231.5 c 128,-1,18
 240 1203 240 1203 196 1203 c 128,-1,19
 152 1203 152 1203 122.5 1232.5 c 128,-1,20
 93 1262 93 1262 93 1310 c 128,-1,21
 93 1358 93 1358 115 1398 c 128,-1,22
 137 1438 137 1438 177 1466 c 0,23,24
 259 1524 259 1524 396 1525 c 0,25,-1
 399 1525 l 0,26,27
 610 1525 610 1525 674 1404 c 0,28,29
 696 1364 696 1364 696 1301.5 c 128,-1,30
 696 1239 696 1239 670 1190.5 c 128,-1,31
 644 1142 644 1142 604.5 1105.5 c 128,-1,32
 565 1069 565 1069 515.5 1038.5 c 128,-1,33
 466 1008 466 1008 418 974 c 0,34,35
 304 894 304 894 267 793 c 1,36,-1
 595 793 l 1,37,-1
 623 871 l 1,38,39
 639 884 639 884 667.5 884 c 128,-1,40
 696 884 696 884 713 855 c 1,41,-1
 682 647 l 1,42,-1
 113 647 l 1,0,-1
EndSplineSet
EndChar

StartChar: uni00B3
Encoding: 179 179 117
Width: 800
Flags: HW
HStem: 634 88<253.293 475.164> 1435 90<248.775 466.283>
VStem: 89 207<765.066 921.117 1232.94 1392.64> 504 186<1195.8 1397.99> 517 202<773.507 999.021>
LayerCount: 2
Fore
SplineSet
252 764 m 1,0,1
 293 723 293 723 382 722 c 0,2,3
 383 722 383 722 384 722 c 0,4,5
 442 722 442 722 480 772 c 0,6,7
 517 820 517 820 517 897 c 0,8,9
 517 900 517 900 517 903 c 0,10,11
 517 970 517 970 496 1000 c 0,12,13
 456 1058 456 1058 370 1067 c 1,14,-1
 370 1121 l 1,15,16
 437 1155 437 1155 460 1181 c 0,17,18
 504 1232 504 1232 504 1306 c 0,19,20
 504 1360 504 1360 463 1398 c 0,21,22
 423 1435 423 1435 378 1435 c 0,23,24
 377 1435 377 1435 376 1435 c 0,25,26
 287 1435 287 1435 247 1395 c 1,27,28
 267 1385 267 1385 281.5 1360.5 c 128,-1,29
 296 1336 296 1336 296 1299 c 128,-1,30
 296 1262 296 1262 267 1232 c 128,-1,31
 238 1202 238 1202 193 1202 c 256,32,33
 148 1202 148 1202 118.5 1232 c 128,-1,34
 89 1262 89 1262 89 1314 c 128,-1,35
 89 1366 89 1366 117.5 1405 c 128,-1,36
 146 1444 146 1444 191 1470 c 0,37,38
 284 1524 284 1524 406 1525 c 0,39,40
 610 1525 610 1525 672 1398 c 0,41,42
 690 1360 690 1360 690 1318 c 128,-1,43
 690 1276 690 1276 676 1243 c 0,44,45
 660 1210 660 1210 636 1184 c 0,46,47
 589 1134 589 1134 517 1108 c 1,48,49
 616 1067 616 1067 648 1039 c 0,50,51
 719 977 719 977 719 880 c 0,52,53
 719 698 719 698 531 650 c 0,54,55
 473 634 473 634 412 634 c 0,56,57
 410 634 410 634 408 634 c 0,58,59
 346 634 346 634 297 646.5 c 128,-1,60
 248 659 248 659 212 676.5 c 128,-1,61
 176 694 176 694 148 718 c 0,62,63
 88 771 88 771 88 831 c 0,64,65
 88 893 88 893 120 922 c 0,66,67
 152 950 152 950 185 950 c 128,-1,68
 218 950 218 950 236 942.5 c 128,-1,69
 254 935 254 935 268 921 c 0,70,71
 298 891 298 891 298 844.5 c 128,-1,72
 298 798 298 798 252 764 c 1,0,1
EndSplineSet
EndChar

StartChar: acute
Encoding: 180 180 118
Width: 1065
Flags: HW
HStem: 1188 393
VStem: 440 422
LayerCount: 2
Fore
SplineSet
539 1188 m 1,0,1
 497 1188 497 1188 476 1212 c 0,2,3
 440 1253 440 1253 440 1296 c 1,4,-1
 713 1581 l 1,5,6
 716 1581 l 0,7,8
 778 1581 778 1581 819 1538 c 0,9,10
 862 1494 862 1494 862 1423 c 1,11,-1
 539 1188 l 1,0,1
EndSplineSet
EndChar

StartChar: uni00B5
Encoding: 181 181 119
Width: 1239
Flags: HW
HStem: -439 21G<207 272.5> -20 186<438.699 650.842> -14 155<1032.99 1169.78> 981 20G<164 359 789 958.5>
VStem: 164 195<-425.157 -102.236 269.723 1001> 789 194<375.285 1000.91>
LayerCount: 2
Fore
SplineSet
525 -20 m 0,0,1
 340 -20 340 -20 281 139 c 1,2,-1
 289 58 l 1,3,4
 318 -143 318 -143 369 -365 c 1,5,6
 361 -397 361 -397 328 -418 c 128,-1,7
 295 -439 295 -439 250 -439 c 0,8,9
 164 -439 164 -439 164 -380 c 2,10,-1
 164 1001 l 1,11,-1
 359 1001 l 1,12,-1
 359 635 l 2,13,14
 359 270 359 270 454 194 c 0,15,16
 488 166 488 166 541 166 c 128,-1,17
 594 166 594 166 640.5 201 c 128,-1,18
 687 236 687 236 720 308 c 0,19,20
 789 459 789 459 789 754 c 2,21,-1
 789 1001 l 1,22,-1
 934 1001 l 2,23,24
 983 1001 983 1001 983 961 c 2,25,-1
 983 315 l 2,26,27
 983 210 983 210 1000 181.5 c 128,-1,28
 1017 153 1017 153 1032.5 147 c 128,-1,29
 1048 141 1048 141 1067 141 c 2,30,-1
 1151 141 l 1,31,32
 1180 132 1180 132 1180 94 c 0,33,34
 1180 12 1180 12 1137 0 c 1,35,36
 1039 -14 1039 -14 981 -14 c 128,-1,37
 923 -14 923 -14 894.5 -2 c 128,-1,38
 866 10 866 10 845 36 c 0,39,40
 799 94 799 94 799 203 c 1,41,42
 767 105 767 105 728 64 c 0,43,44
 648 -20 648 -20 525 -20 c 0,0,1
EndSplineSet
EndChar

StartChar: paragraph
Encoding: 182 182 120
Width: 1579
Flags: HW
HStem: 0 141<552.255 715 926 1076.44 1294 1472.02> 629 150<466.483 715> 1364 141<435.625 715 926 1083 1294 1507.44>
VStem: 59 233<925.205 1247.59> 715 211<147.104 629 779 1351> 1083 211<164.251 1364>
LayerCount: 2
Fore
SplineSet
549 0 m 2,0,1
 524 0 524 0 524 57 c 0,2,3
 524 106 524 106 552 134 c 0,4,5
 560 142 560 142 586.5 141.5 c 128,-1,6
 613 141 613 141 642 143.5 c 128,-1,7
 671 146 671 146 687 151 c 0,8,9
 715 160 715 160 715 184 c 2,10,-1
 715 629 l 1,11,-1
 563 629 l 2,12,13
 332 630 332 630 196 740 c 0,14,15
 59 851 59 851 59 1044 c 0,16,17
 59 1276 59 1276 228.5 1390.5 c 128,-1,18
 398 1505 398 1505 718 1505 c 2,19,-1
 1484 1505 l 2,20,21
 1509 1505 1509 1505 1509 1434.5 c 128,-1,22
 1509 1364 1509 1364 1474 1364 c 2,23,-1
 1294 1364 l 1,24,-1
 1294 141 l 1,25,-1
 1462 141 l 2,26,27
 1488 141 1488 141 1488 80 c 0,28,29
 1488 31 1488 31 1472.5 15.5 c 128,-1,30
 1457 0 1457 0 1447 0 c 2,31,-1
 549 0 l 2,0,1
292 1087 m 0,32,33
 292 925 292 925 418 847 c 256,34,35
 528 779 528 779 715 779 c 1,36,-1
 715 1351 l 1,37,38
 498 1351 498 1351 426.5 1316.5 c 128,-1,39
 355 1282 355 1282 323.5 1229.5 c 128,-1,40
 292 1177 292 1177 292 1087 c 0,32,33
1083 1348 m 2,41,42
 1083 1364 1083 1364 1070 1364 c 2,43,-1
 926 1364 l 1,44,-1
 926 141 l 1,45,-1
 935 141 l 2,46,47
 940 141 940 141 945 141 c 0,48,49
 1061 141 1061 141 1077 164 c 0,50,51
 1083 172 1083 172 1083 184 c 2,52,-1
 1083 1348 l 2,41,42
EndSplineSet
EndChar

StartChar: periodcentered
Encoding: 183 183 121
Width: 522
Flags: HW
HStem: 428 272<157.633 364.208>
VStem: 124 274<461.999 665.116>
LayerCount: 2
Fore
SplineSet
147 486 m 0,0,1
 124 518 124 518 124 556 c 128,-1,2
 124 594 124 594 134 619 c 0,3,4
 146 644 146 644 164 662 c 0,5,6
 203 700 203 700 261 700 c 256,7,8
 354 700 354 700 388 619 c 0,9,10
 398 594 398 594 398 564 c 128,-1,11
 398 534 398 534 388 509 c 0,12,13
 376 484 376 484 358 466 c 0,14,15
 319 428 319 428 253.5 428 c 128,-1,16
 188 428 188 428 147 486 c 0,0,1
EndSplineSet
EndChar

StartChar: cedilla
Encoding: 184 184 122
Width: 1188
Flags: HW
HStem: -440 112<410.197 618.535> -179 194<526 646.311>
VStem: 649 168<-294.77 -190.676>
LayerCount: 2
Fore
SplineSet
649 -240 m 0,0,1
 649 -179 649 -179 513 -179 c 1,2,-1
 474 -131 l 1,3,-1
 526 15 l 1,4,-1
 685 15 l 1,5,-1
 649 -90 l 1,6,7
 764 -110 764 -110 804 -182 c 0,8,9
 817 -204 817 -204 817 -232 c 0,10,11
 817 -440 817 -440 449 -440 c 0,12,13
 429 -440 429 -440 419 -420 c 0,14,15
 409 -402 409 -402 409 -382 c 0,16,17
 409 -328 409 -328 438 -328 c 0,18,19
 580 -328 580 -328 632 -278 c 0,20,21
 650 -262 650 -262 649 -240 c 0,0,1
EndSplineSet
EndChar

StartChar: uni00B9
Encoding: 185 185 123
Width: 720
Flags: HW
HStem: 647 103<118.917 291 476 631.872> 1505 20G<382.78 457.5>
VStem: 291 185<750.61 1317.99>
LayerCount: 2
Fore
SplineSet
617 750 m 2,0,1
 632 750 632 750 632 698.5 c 128,-1,2
 632 647 632 647 611 647 c 2,3,-1
 131 647 l 2,4,5
 130 647 l 0,6,7
 118 647 118 647 118 682 c 0,8,9
 118 750 118 750 142 750 c 2,10,-1
 228 750 l 2,11,12
 291 750 291 750 291 775 c 2,13,-1
 291 1283 l 2,14,15
 291 1318 291 1318 281.5 1318 c 128,-1,16
 272 1318 272 1318 250 1309 c 2,17,-1
 158 1270 l 2,18,19
 136 1261 136 1261 127.5 1261 c 128,-1,20
 119 1261 119 1261 110.5 1270.5 c 128,-1,21
 102 1280 102 1280 94 1293 c 0,22,23
 76 1322 76 1322 76 1338 c 0,24,25
 76 1355 76 1355 86 1361 c 1,26,-1
 424 1525 l 1,27,-1
 439 1525 l 2,28,29
 476 1525 476 1525 476 1513 c 2,30,-1
 476 750 l 1,31,-1
 617 750 l 2,0,1
EndSplineSet
EndChar

StartChar: ordmasculine
Encoding: 186 186 124
Width: 913
Flags: HW
HStem: 600 127<126.817 783.142> 837 102<330.773 572.115> 1423 102<329.396 574.778>
VStem: 112 149<1011.99 1352.25> 642 150<1013.93 1351.97>
LayerCount: 2
Fore
SplineSet
156 600 m 2,0,1
 135 600 135 600 127 642 c 0,2,3
 125 652 125 652 125 662 c 128,-1,4
 125 672 125 672 127 683 c 0,5,6
 128 694 128 694 132 704 c 0,7,8
 140 727 140 727 156 727 c 2,9,-1
 765 727 l 2,10,11
 785 728 785 728 793 686 c 0,12,13
 795 676 795 676 795 666 c 256,14,15
 795 627 795 627 783.5 613.5 c 128,-1,16
 772 600 772 600 765 600 c 2,17,-1
 156 600 l 2,0,1
430 837 m 0,18,19
 352 838 352 838 294 864 c 0,20,21
 234 890 234 890 194 937 c 0,22,23
 112 1033 112 1033 112 1187 c 0,24,25
 112 1349 112 1349 224 1442 c 0,26,27
 324 1525 324 1525 477 1525 c 0,28,29
 480 1525 l 0,30,31
 625 1525 625 1525 710 1426 c 0,32,33
 792 1331 792 1331 792 1182 c 0,34,35
 792 1016 792 1016 690 924 c 0,36,37
 594 837 594 837 434 837 c 0,38,-1
 430 837 l 0,18,19
261 1186 m 0,39,40
 261 1062 261 1062 313.5 1000.5 c 128,-1,41
 366 939 366 939 454 939 c 0,42,43
 546 939 546 939 596 1011 c 0,44,45
 642 1077 642 1077 642 1161.5 c 128,-1,46
 642 1246 642 1246 627.5 1291 c 128,-1,47
 613 1336 613 1336 587 1366 c 0,48,49
 537 1423 537 1423 452 1423 c 0,50,-1
 449 1423 l 0,51,52
 326 1423 326 1423 279 1304 c 0,53,54
 261 1258 261 1258 261 1186 c 0,39,40
EndSplineSet
EndChar

StartChar: guillemotright
Encoding: 187 187 125
Width: 1184
Flags: HW
LayerCount: 2
Fore
SplineSet
182 90 m 1,0,1
 169 90 169 90 148.5 101 c 128,-1,2
 128 112 128 112 110.5 135.5 c 128,-1,3
 93 159 93 159 93 185 c 1,4,-1
 399 490 l 1,5,-1
 93 841 l 1,6,7
 92 874 92 874 112 896 c 0,8,9
 147 935 147 935 181 935 c 1,10,-1
 603 595 l 2,11,12
 643 563 643 563 643 523 c 0,13,14
 643 455 643 455 602 423 c 2,15,-1
 182 90 l 1,0,1
681 90 m 1,16,17
 656 90 656 90 624 115.5 c 128,-1,18
 592 141 592 141 592 185 c 1,19,-1
 898 490 l 1,20,-1
 592 841 l 1,21,22
 592 874 592 874 612 896 c 0,23,24
 647 935 647 935 680 935 c 1,25,-1
 1102 595 l 2,26,27
 1143 563 1143 563 1143 523 c 0,28,29
 1143 456 1143 456 1101 423 c 2,30,-1
 681 90 l 1,16,17
EndSplineSet
EndChar

StartChar: onequarter
Encoding: 188 188 126
Width: 1770
Flags: HW
HStem: 0 103<1194.06 1382 1567 1688.85> 228 113<1137 1382 1567 1712.71> 647 103<110.917 283 468 623.872> 1505 20G<374.78 449.5>
VStem: 283 185<750.61 1317.99> 1382 185<104.373 228 341 571.451>
LayerCount: 2
Fore
SplineSet
334 0 m 1,0,-1
 1326 1505 l 2,1,2
 1346 1537 1346 1537 1422 1537 c 0,3,4
 1484 1537 1484 1537 1484 1505 c 1,5,-1
 500 0 l 1,6,7
 478 -30 478 -30 397 -30 c 0,8,9
 334 -30 334 -30 334 0 c 1,0,-1
609 750 m 2,10,11
 624 750 624 750 624 698.5 c 128,-1,12
 624 647 624 647 603 647 c 2,13,-1
 123 647 l 2,14,15
 110 646 110 646 110 682 c 0,16,17
 110 750 110 750 134 750 c 2,18,-1
 220 750 l 2,19,20
 283 750 283 750 283 775 c 2,21,-1
 283 1283 l 2,22,23
 283 1318 283 1318 273.5 1318 c 128,-1,24
 264 1318 264 1318 242 1309 c 2,25,-1
 150 1270 l 2,26,27
 128 1261 128 1261 119.5 1261 c 128,-1,28
 111 1261 111 1261 102.5 1270.5 c 128,-1,29
 94 1280 94 1280 86 1293 c 0,30,31
 68 1322 68 1322 68 1338 c 0,32,33
 68 1355 68 1355 78 1361 c 1,34,-1
 416 1525 l 1,35,-1
 431 1525 l 2,36,37
 468 1525 468 1525 468 1513 c 2,38,-1
 468 750 l 1,39,-1
 609 750 l 2,10,11
1018 228 m 1,40,41
 992 240 992 240 986 280 c 1,42,-1
 1304 880 l 1,43,44
 1373 880 1373 880 1423 842 c 0,45,46
 1467 808 1467 808 1467 776 c 1,47,-1
 1137 341 l 1,48,-1
 1382 341 l 1,49,-1
 1382 530 l 2,50,51
 1382 575 1382 575 1506 586 c 0,52,53
 1538 589 1538 589 1567 589 c 1,54,-1
 1567 341 l 1,55,-1
 1697 341 l 2,56,57
 1714 341 1714 341 1714 293 c 0,58,59
 1714 258 1714 258 1702 243 c 128,-1,60
 1690 228 1690 228 1683 228 c 2,61,-1
 1567 228 l 1,62,-1
 1567 103 l 1,63,-1
 1672 103 l 2,64,65
 1689 103 1689 103 1689 51.5 c 128,-1,66
 1689 0 1689 0 1664 0 c 2,67,-1
 1209 0 l 2,68,69
 1193 0 1193 0 1193 42 c 0,70,71
 1193 72 1193 72 1205 87.5 c 128,-1,72
 1217 103 1217 103 1223 103 c 2,73,-1
 1306 103 l 2,74,75
 1382 103 1382 103 1382 128 c 2,76,-1
 1382 228 l 1,77,-1
 1018 228 l 1,40,41
EndSplineSet
EndChar

StartChar: onehalf
Encoding: 189 189 127
Width: 1767
Flags: HW
HStem: -3 146<1250 1578> 647 103<102.917 275 460 615.872> 786 89<1235.7 1459.38> 1505 20G<366.78 441.5>
VStem: 275 185<750.61 1317.99> 1076 205<583.426 743.704> 1493 185<535.036 754.492>
LayerCount: 2
Fore
SplineSet
326 0 m 1,0,-1
 1318 1505 l 2,1,2
 1338 1537 1338 1537 1414 1537 c 0,3,4
 1476 1537 1476 1537 1476 1505 c 1,5,-1
 492 0 l 1,6,7
 470 -30 470 -30 389 -30 c 0,8,9
 326 -30 326 -30 326 0 c 1,0,-1
601 750 m 2,10,11
 616 750 616 750 616 698.5 c 128,-1,12
 616 647 616 647 595 647 c 2,13,-1
 115 647 l 2,14,15
 102 646 102 646 102 682 c 0,16,17
 102 750 102 750 126 750 c 2,18,-1
 212 750 l 2,19,20
 275 750 275 750 275 775 c 2,21,-1
 275 1283 l 2,22,23
 275 1318 275 1318 265.5 1318 c 128,-1,24
 256 1318 256 1318 234 1309 c 2,25,-1
 142 1270 l 2,26,27
 120 1261 120 1261 111.5 1261 c 128,-1,28
 103 1261 103 1261 94.5 1270.5 c 128,-1,29
 86 1280 86 1280 78 1293 c 0,30,31
 60 1322 60 1322 60 1338 c 0,32,33
 60 1355 60 1355 70 1361 c 1,34,-1
 408 1525 l 1,35,-1
 423 1525 l 2,36,37
 460 1525 460 1525 460 1513 c 2,38,-1
 460 750 l 1,39,-1
 601 750 l 2,10,11
1096 -3 m 1,40,-1
 1096 40 l 2,41,42
 1096 234 1096 234 1294 394 c 0,43,44
 1420 495 1420 495 1456.5 545.5 c 128,-1,45
 1493 596 1493 596 1493 640 c 128,-1,46
 1493 684 1493 684 1481.5 710.5 c 128,-1,47
 1470 737 1470 737 1450 754 c 0,48,49
 1411 786 1411 786 1359.5 786 c 128,-1,50
 1308 786 1308 786 1282 777 c 128,-1,51
 1256 768 1256 768 1233 745 c 1,52,53
 1266 732 1266 732 1278 684 c 0,54,55
 1282 670 1282 670 1281 658 c 0,56,57
 1281 610 1281 610 1252 581.5 c 128,-1,58
 1223 553 1223 553 1179 553 c 128,-1,59
 1135 553 1135 553 1105.5 582.5 c 128,-1,60
 1076 612 1076 612 1076 660 c 128,-1,61
 1076 708 1076 708 1098 748 c 128,-1,62
 1120 788 1120 788 1160 816 c 0,63,64
 1242 874 1242 874 1379 875 c 0,65,-1
 1382 875 l 0,66,67
 1592 875 1592 875 1656 754 c 0,68,69
 1678 714 1678 714 1678 651.5 c 128,-1,70
 1678 589 1678 589 1652.5 540.5 c 0,71,72
 1628 492 1628 492 1588 456 c 0,73,74
 1548 418 1548 418 1498 388 c 0,75,76
 1450 358 1450 358 1402 324 c 0,77,78
 1288 244 1288 244 1250 143 c 1,79,-1
 1578 143 l 1,80,-1
 1606 221 l 1,81,82
 1622 234 1622 234 1650.5 234 c 128,-1,83
 1679 234 1679 234 1696 205 c 1,84,-1
 1665 -3 l 1,85,-1
 1096 -3 l 1,40,-1
EndSplineSet
EndChar

StartChar: threequarters
Encoding: 190 190 128
Width: 1831
Flags: HW
HStem: 0 103<1256.06 1444 1629 1750.85> 228 113<1199 1444 1629 1774.71> 634 88<246.293 468.164> 1435 90<241.775 459.571>
VStem: 82 209<765.066 921.117 1232.94 1391.52> 497 187<1195.32 1399.73> 510 202<767.925 1004.61> 1444 185<104.373 228 341 571.451>
LayerCount: 2
Fore
SplineSet
346 0 m 1,0,-1
 1338 1505 l 2,1,2
 1358 1537 1358 1537 1434 1537 c 0,3,4
 1496 1537 1496 1537 1496 1505 c 1,5,-1
 512 0 l 1,6,7
 490 -30 490 -30 409 -30 c 0,8,9
 346 -30 346 -30 346 0 c 1,0,-1
1080 228 m 1,10,11
 1054 240 1054 240 1048 280 c 1,12,-1
 1366 880 l 1,13,14
 1435 880 1435 880 1485 842 c 0,15,16
 1529 808 1529 808 1529 776 c 1,17,-1
 1199 341 l 1,18,-1
 1444 341 l 1,19,-1
 1444 530 l 2,20,21
 1444 575 1444 575 1568 586 c 0,22,23
 1600 589 1600 589 1629 589 c 1,24,-1
 1629 341 l 1,25,-1
 1759 341 l 2,26,27
 1776 341 1776 341 1776 293 c 0,28,29
 1776 258 1776 258 1764 243 c 128,-1,30
 1752 228 1752 228 1745 228 c 2,31,-1
 1629 228 l 1,32,-1
 1629 103 l 1,33,-1
 1734 103 l 2,34,35
 1751 103 1751 103 1751 51.5 c 128,-1,36
 1751 0 1751 0 1726 0 c 2,37,-1
 1271 0 l 2,38,39
 1255 0 1255 0 1255 42 c 0,40,41
 1255 72 1255 72 1267 87.5 c 128,-1,42
 1279 103 1279 103 1285 103 c 2,43,-1
 1368 103 l 2,44,45
 1444 103 1444 103 1444 128 c 2,46,-1
 1444 228 l 1,47,-1
 1080 228 l 1,10,11
245 764 m 1,48,49
 286 723 286 723 375 722 c 0,50,51
 376 722 376 722 377 722 c 0,52,53
 435 722 435 722 473 772 c 0,54,55
 510 820 510 820 510 897 c 0,56,57
 510 969 510 969 488 1000 c 0,58,59
 448 1058 448 1058 363 1067 c 1,60,-1
 363 1121 l 1,61,62
 430 1155 430 1155 453 1181 c 0,63,64
 497 1232 497 1232 497 1306 c 0,65,66
 497 1360 497 1360 456 1398 c 0,67,68
 416 1435 416 1435 371 1435 c 0,69,70
 370 1435 370 1435 369 1435 c 0,71,72
 280 1435 280 1435 240 1395 c 1,73,74
 260 1385 260 1385 274.5 1360.5 c 128,-1,75
 289 1336 289 1336 289 1299 c 128,-1,76
 289 1262 289 1262 260 1232 c 128,-1,77
 231 1202 231 1202 186 1202 c 256,78,79
 141 1202 141 1202 111.5 1232 c 128,-1,80
 82 1262 82 1262 82 1314 c 128,-1,81
 82 1366 82 1366 110.5 1405 c 128,-1,82
 139 1444 139 1444 184 1470 c 0,83,84
 277 1524 277 1524 399 1525 c 0,85,86
 604 1525 604 1525 666 1398 c 0,87,88
 684 1360 684 1360 684 1318 c 128,-1,89
 684 1276 684 1276 669 1243 c 128,-1,90
 654 1210 654 1210 630 1184 c 0,91,92
 583 1134 583 1134 510 1108 c 1,93,94
 609 1067 609 1067 641 1039 c 0,95,96
 712 977 712 977 712 880 c 0,97,98
 712 698 712 698 524 650 c 0,99,100
 466 634 466 634 405 634 c 0,101,102
 404 634 404 634 402 634 c 0,103,104
 340 634 340 634 290 647 c 0,105,106
 241 658 241 658 205 676 c 0,107,108
 170 694 170 694 142 718 c 0,109,110
 82 771 82 771 82 832.5 c 128,-1,111
 82 894 82 894 113.5 922 c 128,-1,112
 145 950 145 950 178 950 c 128,-1,113
 211 950 211 950 229 942.5 c 128,-1,114
 247 935 247 935 261 921 c 0,115,116
 291 891 291 891 291 844.5 c 128,-1,117
 291 798 291 798 245 764 c 1,48,49
EndSplineSet
EndChar

StartChar: questiondown
Encoding: 191 191 129
Width: 949
Flags: HW
HStem: -438 154<381.675 651.094> 739 279<441.939 647.663>
VStem: 83 217<-203.252 90.4187> 405 269<776.231 981.318> 445 195<395 603.387> 630 280<-271.719 -82.6909>
LayerCount: 2
Fore
SplineSet
653 -273 m 1,0,1
 630 -232 630 -232 630 -194 c 128,-1,2
 630 -156 630 -156 641 -130 c 128,-1,3
 652 -104 652 -104 671 -86 c 0,4,5
 712 -47 712 -47 756 -47 c 0,6,7
 800 -48 800 -48 826 -58 c 128,-1,8
 852 -68 852 -68 870 -86 c 0,9,10
 910 -126 910 -126 910 -179.5 c 128,-1,11
 910 -233 910 -233 888 -269.5 c 128,-1,12
 866 -306 866 -306 830 -333.5 c 128,-1,13
 794 -361 794 -361 750 -381 c 0,14,15
 706 -402 706 -402 659 -414 c 0,16,17
 569 -438 569 -438 483.5 -438 c 128,-1,18
 398 -438 398 -438 320 -409 c 128,-1,19
 242 -380 242 -380 190 -331 c 0,20,21
 84 -232 84 -232 83 -80 c 0,22,23
 83 68 83 68 200 190 c 0,24,25
 252 244 252 244 316 294 c 1,26,-1
 445 395 l 1,27,-1
 445 550 l 2,28,29
 445 595 445 595 508 609 c 0,30,31
 526 613 526 613 546 613 c 0,32,33
 640 613 640 613 640 550 c 2,34,-1
 640 372 l 1,35,36
 585 323 585 323 525 281 c 0,37,38
 465 240 465 240 415 192 c 0,39,40
 300 83 300 83 300 -60 c 0,41,42
 300 -162 300 -162 363 -224 c 0,43,44
 425 -284 425 -284 529 -284 c 0,45,46
 609 -284 609 -284 653 -273 c 1,0,1
429 800 m 0,47,48
 405 834 405 834 405 871.5 c 128,-1,49
 405 909 405 909 416 934.5 c 128,-1,50
 427 960 427 960 446 978 c 0,51,52
 487 1018 487 1018 531 1018 c 0,53,54
 574 1018 574 1018 600 1008 c 0,55,56
 626 996 626 996 644 978 c 0,57,58
 685 937 685 937 685 890 c 0,59,60
 685 849 685 849 674 824 c 0,61,62
 662 798 662 798 644 779 c 0,63,64
 605 739 605 739 538.5 739 c 128,-1,65
 472 739 472 739 429 800 c 0,47,48
EndSplineSet
EndChar

StartChar: Agrave
Encoding: 192 192 130
Width: 1424
Flags: HW
HStem: 0 141<-7.40625 138.453 287 471.079 910.468 1059.97 1301 1429.05> 499 154<485 874> 1505 20G<685.5 733.5>
LayerCount: 2
Fore
SplineSet
459 141 m 2,0,1
 485 141 485 141 485 83 c 0,2,3
 485 31 485 31 471.5 15.5 c 128,-1,4
 458 0 458 0 449 0 c 2,5,-1
 13 0 l 2,6,7
 -12 0 -12 0 -12 57 c 0,8,9
 -12 109 -12 109 12 133 c 0,10,11
 20 141 20 141 48 141 c 0,12,13
 122 141 122 141 145 198 c 2,14,-1
 654 1505 l 2,15,16
 662 1525 662 1525 709 1525 c 0,17,18
 758 1525 758 1525 768 1505 c 1,19,-1
 1301 141 l 1,20,-1
 1418 141 l 2,21,22
 1444 141 1444 141 1444 81 c 0,23,24
 1444 31 1444 31 1429.5 15.5 c 128,-1,25
 1415 0 1415 0 1405 0 c 2,26,-1
 920 0 l 2,27,28
 895 0 895 0 895 55 c 0,29,30
 895 107 895 107 910 124 c 128,-1,31
 925 141 925 141 936 141 c 0,32,33
 1060 141 1060 141 1060 165 c 0,34,35
 1060 174 1060 174 1052 190 c 1,36,-1
 933 499 l 1,37,-1
 426 499 l 1,38,-1
 287 141 l 1,39,-1
 459 141 l 2,0,1
485 653 m 1,40,-1
 874 653 l 1,41,-1
 681 1157 l 1,42,-1
 485 653 l 1,40,-1
645 1598 m 1,43,-1
 321 1833 l 1,44,45
 321 1942 321 1942 411 1980 c 0,46,47
 436 1991 436 1991 465 1991 c 0,48,49
 467 1991 467 1991 470 1991 c 1,50,-1
 743 1706 l 1,51,52
 742 1663 742 1663 722 1640 c 0,53,54
 686 1598 686 1598 645 1598 c 1,43,-1
EndSplineSet
EndChar

StartChar: Aacute
Encoding: 193 193 131
Width: 1424
Flags: HW
HStem: 0 141<-7.40625 138.453 287 471.079 910.468 1059.97 1301 1429.05> 499 154<485 874> 1505 20G<685.5 733.5>
LayerCount: 2
Fore
SplineSet
459 141 m 2,0,1
 485 141 485 141 485 83 c 0,2,3
 485 31 485 31 471.5 15.5 c 128,-1,4
 458 0 458 0 449 0 c 2,5,-1
 13 0 l 2,6,7
 -12 0 -12 0 -12 57 c 0,8,9
 -12 109 -12 109 12 133 c 0,10,11
 20 141 20 141 48 141 c 0,12,13
 122 141 122 141 145 198 c 2,14,-1
 654 1505 l 2,15,16
 662 1525 662 1525 709 1525 c 0,17,18
 758 1525 758 1525 768 1505 c 1,19,-1
 1301 141 l 1,20,-1
 1418 141 l 2,21,22
 1444 141 1444 141 1444 81 c 0,23,24
 1444 31 1444 31 1429.5 15.5 c 128,-1,25
 1415 0 1415 0 1405 0 c 2,26,-1
 920 0 l 2,27,28
 895 0 895 0 895 55 c 0,29,30
 895 107 895 107 910 124 c 128,-1,31
 925 141 925 141 936 141 c 0,32,33
 1060 141 1060 141 1060 165 c 0,34,35
 1060 174 1060 174 1052 190 c 1,36,-1
 933 499 l 1,37,-1
 426 499 l 1,38,-1
 287 141 l 1,39,-1
 459 141 l 2,0,1
485 653 m 1,40,-1
 874 653 l 1,41,-1
 681 1157 l 1,42,-1
 485 653 l 1,40,-1
782 1598 m 1,43,44
 740 1598 740 1598 719 1622 c 0,45,46
 683 1663 683 1663 683 1706 c 1,47,-1
 956 1991 l 1,48,49
 959 1991 l 0,50,51
 1021 1991 1021 1991 1062 1948 c 0,52,53
 1105 1904 1105 1904 1105 1833 c 1,54,-1
 782 1598 l 1,43,44
EndSplineSet
EndChar

StartChar: Acircumflex
Encoding: 194 194 132
Width: 1424
Flags: HW
HStem: 0 141<-7.40625 138.453 287 471.079 910.468 1059.97 1301 1429.05> 499 154<485 874> 1505 20G<685.5 733.5>
LayerCount: 2
Fore
SplineSet
465 1610 m 1,0,1
 431 1610 431 1610 412 1632 c 0,2,3
 381 1670 381 1670 381 1710 c 1,4,-1
 637 1886 l 2,5,6
 678 1915 678 1915 707 1915 c 0,7,8
 743 1915 743 1915 787 1886 c 2,9,-1
 1043 1710 l 1,10,11
 1043 1646 1043 1646 992 1618 c 0,12,13
 977 1610 977 1610 959 1610 c 1,14,-1
 713 1726 l 1,15,-1
 465 1610 l 1,0,1
459 141 m 2,16,17
 485 141 485 141 485 83 c 0,18,19
 485 31 485 31 471.5 15.5 c 128,-1,20
 458 0 458 0 449 0 c 2,21,-1
 13 0 l 2,22,23
 -12 0 -12 0 -12 57 c 0,24,25
 -12 109 -12 109 12 133 c 0,26,27
 20 141 20 141 48 141 c 0,28,29
 122 141 122 141 145 198 c 2,30,-1
 654 1505 l 2,31,32
 662 1525 662 1525 709 1525 c 0,33,34
 758 1525 758 1525 768 1505 c 1,35,-1
 1301 141 l 1,36,-1
 1418 141 l 2,37,38
 1444 141 1444 141 1444 81 c 0,39,40
 1444 31 1444 31 1429.5 15.5 c 128,-1,41
 1415 0 1415 0 1405 0 c 2,42,-1
 920 0 l 2,43,44
 895 0 895 0 895 55 c 0,45,46
 895 107 895 107 910 124 c 128,-1,47
 925 141 925 141 936 141 c 0,48,49
 1060 141 1060 141 1060 165 c 0,50,51
 1060 174 1060 174 1052 190 c 1,52,-1
 933 499 l 1,53,-1
 426 499 l 1,54,-1
 287 141 l 1,55,-1
 459 141 l 2,16,17
485 653 m 1,56,-1
 874 653 l 1,57,-1
 681 1157 l 1,58,-1
 485 653 l 1,56,-1
EndSplineSet
EndChar

StartChar: Atilde
Encoding: 195 195 133
Width: 1424
Flags: HW
HStem: 0 141<-7.40625 138.453 287 471.079 910.468 1059.97 1301 1429.05> 499 154<485 874> 1505 20G<685.5 733.5> 1604 168<762.305 960.332> 1736 180<445.056 658.057>
LayerCount: 2
Fore
SplineSet
381 1627 m 1,0,1
 342 1628 342 1628 322 1648 c 0,2,3
 288 1682 288 1682 287 1719 c 1,4,5
 352 1836 352 1836 466 1893 c 0,6,7
 513 1917 513 1917 563 1917 c 0,8,-1
 566 1916 l 0,9,10
 618 1916 618 1916 654 1894 c 128,-1,11
 690 1872 690 1872 725 1844.5 c 128,-1,12
 760 1817 760 1817 795.5 1794.5 c 128,-1,13
 831 1772 831 1772 865 1772 c 128,-1,14
 899 1772 899 1772 923.5 1787.5 c 128,-1,15
 948 1803 948 1803 968.5 1824.5 c 128,-1,16
 989 1846 989 1846 1006.5 1867.5 c 128,-1,17
 1024 1889 1024 1889 1038 1901 c 1,18,19
 1076 1901 1076 1901 1098 1880 c 0,20,21
 1136 1844 1136 1844 1136 1809 c 1,22,23
 1082 1688 1082 1688 969 1629 c 0,24,25
 921 1604 921 1604 872 1604 c 128,-1,26
 823 1604 823 1604 793.5 1614 c 128,-1,27
 764 1624 764 1624 738 1638 c 0,28,29
 712 1652 712 1652 688 1670 c 128,-1,30
 664 1688 664 1688 642 1702 c 0,31,32
 588 1736 588 1736 553 1736 c 0,33,-1
 551 1737 l 0,34,35
 517 1737 517 1737 491 1723 c 0,36,37
 464 1709 464 1709 443 1691 c 128,-1,38
 422 1673 422 1673 406.5 1654.5 c 128,-1,39
 391 1636 391 1636 381 1627 c 1,0,1
459 141 m 2,40,41
 485 141 485 141 485 83 c 0,42,43
 485 31 485 31 471.5 15.5 c 128,-1,44
 458 0 458 0 449 0 c 2,45,-1
 13 0 l 2,46,47
 -12 0 -12 0 -12 57 c 0,48,49
 -12 109 -12 109 12 133 c 0,50,51
 20 141 20 141 48 141 c 0,52,53
 122 141 122 141 145 198 c 2,54,-1
 654 1505 l 2,55,56
 662 1525 662 1525 709 1525 c 0,57,58
 758 1525 758 1525 768 1505 c 1,59,-1
 1301 141 l 1,60,-1
 1418 141 l 2,61,62
 1444 141 1444 141 1444 81 c 0,63,64
 1444 31 1444 31 1429.5 15.5 c 128,-1,65
 1415 0 1415 0 1405 0 c 2,66,-1
 920 0 l 2,67,68
 895 0 895 0 895 55 c 0,69,70
 895 107 895 107 910 124 c 128,-1,71
 925 141 925 141 936 141 c 0,72,73
 1060 141 1060 141 1060 165 c 0,74,75
 1060 174 1060 174 1052 190 c 1,76,-1
 933 499 l 1,77,-1
 426 499 l 1,78,-1
 287 141 l 1,79,-1
 459 141 l 2,40,41
485 653 m 1,80,-1
 874 653 l 1,81,-1
 681 1157 l 1,82,-1
 485 653 l 1,80,-1
EndSplineSet
EndChar

StartChar: Adieresis
Encoding: 196 196 134
Width: 1424
Flags: HW
HStem: 0 141<-7.40625 138.453 287 471.079 910.468 1059.97 1301 1429.05> 499 154<485 874> 1505 20G<685.5 733.5> 1620 276<392.65 591.662 841.625 1040.75>
VStem: 355 273<1660.22 1860.4> 808 272<1679.06 1854.81>
LayerCount: 2
Fore
SplineSet
459 141 m 2,0,1
 485 141 485 141 485 83 c 0,2,3
 485 31 485 31 471.5 15.5 c 128,-1,4
 458 0 458 0 449 0 c 2,5,-1
 13 0 l 2,6,7
 -12 0 -12 0 -12 57 c 0,8,9
 -12 109 -12 109 12 133 c 0,10,11
 20 141 20 141 48 141 c 0,12,13
 122 141 122 141 145 198 c 2,14,-1
 654 1505 l 2,15,16
 662 1525 662 1525 709 1525 c 0,17,18
 758 1525 758 1525 768 1505 c 1,19,-1
 1301 141 l 1,20,-1
 1418 141 l 2,21,22
 1444 141 1444 141 1444 81 c 0,23,24
 1444 31 1444 31 1429.5 15.5 c 128,-1,25
 1415 0 1415 0 1405 0 c 2,26,-1
 920 0 l 2,27,28
 895 0 895 0 895 55 c 0,29,30
 895 107 895 107 910 124 c 128,-1,31
 925 141 925 141 936 141 c 0,32,33
 1060 141 1060 141 1060 165 c 0,34,35
 1060 174 1060 174 1052 190 c 1,36,-1
 933 499 l 1,37,-1
 426 499 l 1,38,-1
 287 141 l 1,39,-1
 459 141 l 2,0,1
485 653 m 1,40,-1
 874 653 l 1,41,-1
 681 1157 l 1,42,-1
 485 653 l 1,40,-1
355 1759 m 0,43,44
 355 1852 355 1852 434 1886 c 0,45,46
 458 1896 458 1896 488 1896 c 0,47,48
 518 1896 518 1896 544 1886 c 0,49,50
 570 1874 570 1874 588 1856 c 0,51,52
 628 1816 628 1816 628 1757 c 256,53,54
 628 1698 628 1698 588 1658 c 0,55,56
 550 1620 550 1620 504 1620 c 0,57,58
 428 1620 428 1620 391.5 1659 c 128,-1,59
 355 1698 355 1698 355 1759 c 0,43,44
943 1620 m 0,60,61
 868 1620 868 1620 830 1678 c 0,62,63
 808 1712 808 1712 808 1749.5 c 128,-1,64
 808 1787 808 1787 818 1812.5 c 128,-1,65
 828 1838 828 1838 846 1856 c 0,66,67
 883 1896 883 1896 943 1896 c 256,68,69
 1002 1896 1002 1896 1042 1856 c 0,70,71
 1080 1818 1080 1818 1080 1757 c 256,72,73
 1080 1663 1080 1663 998 1630 c 0,74,75
 973 1620 973 1620 943 1620 c 0,60,61
EndSplineSet
EndChar

StartChar: Aring
Encoding: 197 197 135
Width: 1420
Flags: HW
HStem: 0 141<-9.40625 136.453 285 469.079 908.468 1057.97 1299 1427.05> 499 154<483 872> 1696 125<643.527 774.286>
VStem: 488 139<1545.23 1679.14> 791 131<1544.9 1678.76>
LayerCount: 2
Fore
SplineSet
457 141 m 2,0,1
 483 141 483 141 483 83 c 0,2,3
 483 31 483 31 469.5 15.5 c 128,-1,4
 456 0 456 0 447 0 c 2,5,-1
 11 0 l 2,6,7
 -14 0 -14 0 -14 57 c 0,8,9
 -14 109 -14 109 10 133 c 0,10,11
 18 141 18 141 46 141 c 0,12,13
 120 141 120 141 143 198 c 2,14,-1
 616 1413 l 1,15,16
 556 1438 556 1438 522 1490 c 128,-1,17
 488 1542 488 1542 488 1596.5 c 128,-1,18
 488 1651 488 1651 504 1690 c 0,19,20
 520 1729 520 1729 548 1758 c 0,21,22
 610 1821 610 1821 705 1821 c 256,23,24
 800 1821 800 1821 862 1758 c 0,25,26
 922 1697 922 1697 922 1621 c 0,27,28
 922 1471 922 1471 800 1416 c 1,29,-1
 1299 141 l 1,30,-1
 1416 141 l 2,31,32
 1442 141 1442 141 1442 81 c 0,33,34
 1442 31 1442 31 1427.5 15.5 c 128,-1,35
 1413 0 1413 0 1403 0 c 2,36,-1
 918 0 l 2,37,38
 893 0 893 0 893 55 c 0,39,40
 893 107 893 107 908 124 c 128,-1,41
 923 141 923 141 934 141 c 0,42,43
 1058 141 1058 141 1058 165 c 0,44,45
 1058 174 1058 174 1050 190 c 1,46,-1
 931 499 l 1,47,-1
 424 499 l 1,48,-1
 285 141 l 1,49,-1
 457 141 l 2,0,1
483 653 m 1,50,-1
 872 653 l 1,51,-1
 679 1157 l 1,52,-1
 483 653 l 1,50,-1
650 1552 m 1,53,54
 674 1528 674 1528 709 1528 c 256,55,56
 744 1528 744 1528 767.5 1552.5 c 128,-1,57
 791 1577 791 1577 791 1612 c 256,58,59
 791 1647 791 1647 767.5 1671.5 c 128,-1,60
 744 1696 744 1696 709 1696 c 256,61,62
 674 1696 674 1696 650.5 1671.5 c 128,-1,63
 627 1647 627 1647 627 1612.5 c 128,-1,64
 627 1578 627 1578 650 1552 c 1,53,54
EndSplineSet
EndChar

StartChar: AE
Encoding: 198 198 136
Width: 1875
Flags: HW
HStem: 0 142<-20.5017 114.465 273 397.079 690.271 875 1068 1595.68> 631 154<526 852 1068 1393.74> 1180 325<1643.02 1784> 1351 154<735.004 828.996 1040 1619.77>
VStem: 829 211<997.833 1350.86> 852 188<785 1137.17> 858 210<254.048 631> 875 193<154.316 560.952> 1405 144<454.962 631 808.016 944.564> 1643 141<1181.4 1309.24> 1682 143<217.39 316.315>
LayerCount: 2
Fore
SplineSet
385 141 m 2,0,1
 411 141 411 141 411 83 c 0,2,3
 411 31 411 31 397.5 15.5 c 128,-1,4
 384 0 384 0 375 0 c 2,5,-1
 -12 0 l 2,6,7
 -37 0 -37 0 -37 57 c 0,8,9
 -37 108 -37 108 -21 125 c 128,-1,10
 -5 142 -5 142 4 143 c 0,11,12
 52 148 52 148 80 157.5 c 128,-1,13
 108 167 108 167 120 198 c 2,14,-1
 615 1469 l 2,15,16
 629 1505 629 1505 671 1505 c 2,17,-1
 1784 1505 l 1,18,-1
 1784 1214 l 2,19,20
 1784 1180 1784 1180 1713.5 1180 c 128,-1,21
 1643 1180 1643 1180 1643 1202 c 0,22,23
 1643 1286 1643 1286 1621 1310 c 0,24,25
 1582 1351 1582 1351 1479 1351 c 2,26,-1
 1040 1351 l 1,27,-1
 1040 785 l 1,28,-1
 1340 785 l 2,29,30
 1386 785 1386 785 1394 807 c 0,31,32
 1407 839 1407 839 1407 936 c 0,33,34
 1407 959 1407 959 1467 959 c 0,35,36
 1519 959 1519 959 1534 945 c 128,-1,37
 1549 931 1549 931 1549 922 c 2,38,-1
 1549 494 l 2,39,40
 1549 453 1549 453 1477 453 c 128,-1,41
 1405 453 1405 453 1405 480 c 2,42,-1
 1405 631 l 1,43,-1
 1068 631 l 1,44,-1
 1068 154 l 1,45,-1
 1370 154 l 2,46,47
 1513 154 1513 154 1561 171 c 128,-1,48
 1609 188 1609 188 1638.5 218 c 128,-1,49
 1668 248 1668 248 1682 303 c 1,50,51
 1686 323 1686 323 1725 323 c 0,52,53
 1740 324 1740 324 1762 320 c 0,54,55
 1824 311 1824 311 1825 282 c 2,56,-1
 1825 274 l 1,57,58
 1811 169 1811 169 1779.5 95 c 128,-1,59
 1748 21 1748 21 1733 0 c 1,60,-1
 713 0 l 2,61,62
 686 0 686 0 686 59 c 0,63,64
 686 110 686 110 710 134 c 0,65,66
 718 142 718 142 745 142 c 128,-1,67
 772 142 772 142 800 143 c 0,68,69
 830 145 830 145 846 150 c 0,70,71
 876 159 876 159 875 184 c 2,72,-1
 858 631 l 1,73,-1
 467 631 l 1,74,-1
 273 141 l 1,75,-1
 385 141 l 2,0,1
829 1350 m 2,76,77
 829 1364 829 1364 811 1364 c 0,78,79
 756 1364 756 1364 735 1313 c 2,80,-1
 526 785 l 1,81,-1
 852 785 l 1,82,-1
 829 1350 l 2,76,77
EndSplineSet
EndChar

StartChar: Ccedilla
Encoding: 199 199 137
Width: 1277
Flags: HW
HStem: -440 112<546.197 754.535> 1371 154<585.812 923.994>
VStem: 103 233<461.289 1060.33> 785 168<-294.77 -190.676> 904 307<1132.44 1333.78>
LayerCount: 2
Fore
SplineSet
785 -240 m 0,0,1
 785 -179 785 -179 649 -179 c 1,2,-1
 610 -131 l 1,3,-1
 651 -16 l 1,4,5
 410 9 410 9 263 191 c 256,6,7
 103 389 103 389 103 734 c 0,8,9
 103 1120 103 1120 297 1330 c 0,10,11
 477 1525 477 1525 775 1525 c 0,12,-1
 778 1525 l 0,13,14
 935 1525 935 1525 1066 1449 c 0,15,16
 1211 1365 1211 1365 1211 1241 c 0,17,18
 1210 1177 1210 1177 1166 1131 c 0,19,20
 1123 1087 1123 1087 1058 1087 c 256,21,22
 993 1087 993 1087 949 1131 c 0,23,24
 904 1176 904 1176 904 1236 c 128,-1,25
 904 1296 904 1296 926 1335 c 1,26,27
 867 1371 867 1371 771 1371 c 128,-1,28
 675 1371 675 1371 595.5 1332 c 128,-1,29
 516 1293 516 1293 458 1221 c 0,30,31
 336 1068 336 1068 336 823 c 0,32,33
 336 316 336 316 585 186 c 0,34,35
 664 144 664 144 746 144 c 0,36,37
 748 144 l 0,38,39
 830 144 830 144 878.5 157.5 c 128,-1,40
 927 171 927 171 965.5 189.5 c 128,-1,41
 1004 208 1004 208 1034 228 c 0,42,43
 1093 268 1093 268 1107.5 268 c 128,-1,44
 1122 268 1122 268 1136 257 c 128,-1,45
 1150 246 1150 246 1162 230 c 0,46,47
 1189 195 1189 195 1189 168.5 c 128,-1,48
 1189 142 1189 142 1172 126.5 c 128,-1,49
 1155 111 1155 111 1123 89.5 c 128,-1,50
 1091 68 1091 68 1045 47 c 0,51,52
 936 -3 936 -3 810 -15 c 1,53,-1
 785 -90 l 1,54,55
 900 -110 900 -110 940 -182 c 0,56,57
 954 -206 954 -206 953 -236 c 0,58,59
 953 -440 953 -440 585 -440 c 0,60,61
 565 -440 565 -440 555 -420 c 0,62,63
 545 -402 545 -402 545 -382 c 0,64,65
 545 -328 545 -328 574 -328 c 0,66,67
 716 -328 716 -328 768 -278 c 0,68,69
 786 -262 786 -262 785 -240 c 0,0,1
EndSplineSet
EndChar

StartChar: Egrave
Encoding: 200 200 138
Width: 1288
Flags: HW
HStem: 0 134<104.19 289.665> 694 154<501 808.741> 1002 20G<852 908> 1180 325<1058.02 1199> 1351 154<81.2363 290 501 1034.77>
VStem: 290 211<154.179 694 848 1350.86> 820 144<517.962 694 871.016 1007.56> 1058 141<1181.4 1309.24>
LayerCount: 2
Fore
SplineSet
128 0 m 2,0,1
 101 0 101 0 101 59 c 0,2,3
 102 110 102 110 126 134 c 0,4,5
 134 142 134 142 161 141.5 c 128,-1,6
 188 141 188 141 217 143.5 c 128,-1,7
 246 146 246 146 262 151 c 0,8,9
 290 160 290 160 290 184 c 2,10,-1
 290 1350 l 2,11,12
 290 1364 290 1364 278 1364 c 2,13,-1
 114 1364 l 2,14,15
 86 1364 86 1364 76 1416 c 0,16,17
 74 1430 74 1430 73 1442 c 0,18,19
 73 1505 73 1505 99 1505 c 2,20,-1
 1199 1505 l 1,21,-1
 1199 1214 l 2,22,23
 1199 1180 1199 1180 1128.5 1180 c 128,-1,24
 1058 1180 1058 1180 1058 1202 c 0,25,26
 1058 1286 1058 1286 1036 1310 c 0,27,28
 997 1351 997 1351 894 1351 c 2,29,-1
 501 1351 l 1,30,-1
 501 848 l 1,31,-1
 755 848 l 2,32,33
 801 848 801 848 809 870 c 0,34,35
 822 902 822 902 822 999 c 0,36,37
 822 1022 822 1022 882 1022 c 0,38,39
 934 1022 934 1022 949 1008 c 128,-1,40
 964 994 964 994 964 985 c 2,41,-1
 964 557 l 2,42,43
 964 516 964 516 892 516 c 128,-1,44
 820 516 820 516 820 543 c 2,45,-1
 820 694 l 1,46,-1
 501 694 l 1,47,-1
 501 154 l 1,48,-1
 1031 154 l 1,49,-1
 1107 303 l 2,50,51
 1117 322 1117 322 1144.5 322 c 128,-1,52
 1172 322 1172 322 1187 319 c 128,-1,53
 1202 316 1202 316 1214 311 c 0,54,55
 1241 300 1241 300 1241 281 c 0,56,57
 1241 275 1241 275 1240 274 c 2,58,-1
 1148 0 l 1,59,-1
 128 0 l 2,0,1
735 1598 m 1,60,-1
 411 1833 l 1,61,62
 411 1942 411 1942 501 1980 c 0,63,64
 526 1991 526 1991 555 1991 c 0,65,66
 557 1991 557 1991 560 1991 c 1,67,-1
 833 1706 l 1,68,69
 832 1663 832 1663 812 1640 c 0,70,71
 776 1598 776 1598 735 1598 c 1,60,-1
EndSplineSet
EndChar

StartChar: Eacute
Encoding: 201 201 139
Width: 1288
Flags: HW
HStem: 0 134<104.19 289.665> 694 154<501 808.741> 1002 20G<852 908> 1180 325<1058.02 1199> 1351 154<81.2363 290 501 1034.77>
VStem: 290 211<154.179 694 848 1350.86> 820 144<517.962 694 871.016 1007.56> 1058 141<1181.4 1309.24>
LayerCount: 2
Fore
SplineSet
128 0 m 2,0,1
 101 0 101 0 101 59 c 0,2,3
 102 110 102 110 126 134 c 0,4,5
 134 142 134 142 161 141.5 c 128,-1,6
 188 141 188 141 217 143.5 c 128,-1,7
 246 146 246 146 262 151 c 0,8,9
 290 160 290 160 290 184 c 2,10,-1
 290 1350 l 2,11,12
 290 1364 290 1364 278 1364 c 2,13,-1
 114 1364 l 2,14,15
 86 1364 86 1364 76 1416 c 0,16,17
 74 1430 74 1430 73 1442 c 0,18,19
 73 1505 73 1505 99 1505 c 2,20,-1
 1199 1505 l 1,21,-1
 1199 1214 l 2,22,23
 1199 1180 1199 1180 1128.5 1180 c 128,-1,24
 1058 1180 1058 1180 1058 1202 c 0,25,26
 1058 1286 1058 1286 1036 1310 c 0,27,28
 997 1351 997 1351 894 1351 c 2,29,-1
 501 1351 l 1,30,-1
 501 848 l 1,31,-1
 755 848 l 2,32,33
 801 848 801 848 809 870 c 0,34,35
 822 902 822 902 822 999 c 0,36,37
 822 1022 822 1022 882 1022 c 0,38,39
 934 1022 934 1022 949 1008 c 128,-1,40
 964 994 964 994 964 985 c 2,41,-1
 964 557 l 2,42,43
 964 516 964 516 892 516 c 128,-1,44
 820 516 820 516 820 543 c 2,45,-1
 820 694 l 1,46,-1
 501 694 l 1,47,-1
 501 154 l 1,48,-1
 1031 154 l 1,49,-1
 1107 303 l 2,50,51
 1117 322 1117 322 1144.5 322 c 128,-1,52
 1172 322 1172 322 1187 319 c 128,-1,53
 1202 316 1202 316 1214 311 c 0,54,55
 1241 300 1241 300 1241 281 c 0,56,57
 1241 275 1241 275 1240 274 c 2,58,-1
 1148 0 l 1,59,-1
 128 0 l 2,0,1
683 1598 m 1,60,61
 641 1598 641 1598 620 1622 c 0,62,63
 584 1663 584 1663 584 1706 c 1,64,-1
 857 1991 l 1,65,66
 860 1991 l 0,67,68
 922 1991 922 1991 963 1948 c 0,69,70
 1006 1904 1006 1904 1006 1833 c 1,71,-1
 683 1598 l 1,60,61
EndSplineSet
EndChar

StartChar: Ecircumflex
Encoding: 202 202 140
Width: 1288
Flags: HW
HStem: 0 134<104.19 289.665> 694 154<501 808.741> 1002 20G<852 908> 1180 325<1058.02 1199> 1351 154<81.2363 290 501 1034.77>
VStem: 290 211<154.179 694 848 1350.86> 820 144<517.962 694 871.016 1007.56> 1058 141<1181.4 1309.24>
LayerCount: 2
Fore
SplineSet
450 1610 m 1,0,1
 394 1610 394 1610 372 1673 c 0,2,3
 366 1691 366 1691 366 1710 c 1,4,-1
 622 1886 l 2,5,6
 666 1915 666 1915 693 1915 c 0,7,8
 728 1915 728 1915 771 1886 c 2,9,-1
 1027 1710 l 1,10,11
 1027 1646 1027 1646 976 1618 c 0,12,13
 961 1610 961 1610 943 1610 c 1,14,-1
 697 1726 l 1,15,-1
 450 1610 l 1,0,1
128 0 m 2,16,17
 101 0 101 0 101 59 c 0,18,19
 102 110 102 110 126 134 c 0,20,21
 134 142 134 142 161 141.5 c 128,-1,22
 188 141 188 141 217 143.5 c 128,-1,23
 246 146 246 146 262 151 c 0,24,25
 290 160 290 160 290 184 c 2,26,-1
 290 1350 l 2,27,28
 290 1364 290 1364 278 1364 c 2,29,-1
 114 1364 l 2,30,31
 86 1364 86 1364 76 1416 c 0,32,33
 74 1430 74 1430 73 1442 c 0,34,35
 73 1505 73 1505 99 1505 c 2,36,-1
 1199 1505 l 1,37,-1
 1199 1214 l 2,38,39
 1199 1180 1199 1180 1128.5 1180 c 128,-1,40
 1058 1180 1058 1180 1058 1202 c 0,41,42
 1058 1286 1058 1286 1036 1310 c 0,43,44
 997 1351 997 1351 894 1351 c 2,45,-1
 501 1351 l 1,46,-1
 501 848 l 1,47,-1
 755 848 l 2,48,49
 801 848 801 848 809 870 c 0,50,51
 822 902 822 902 822 999 c 0,52,53
 822 1022 822 1022 882 1022 c 0,54,55
 934 1022 934 1022 949 1008 c 128,-1,56
 964 994 964 994 964 985 c 2,57,-1
 964 557 l 2,58,59
 964 516 964 516 892 516 c 128,-1,60
 820 516 820 516 820 543 c 2,61,-1
 820 694 l 1,62,-1
 501 694 l 1,63,-1
 501 154 l 1,64,-1
 1031 154 l 1,65,-1
 1107 303 l 2,66,67
 1117 322 1117 322 1144.5 322 c 128,-1,68
 1172 322 1172 322 1187 319 c 128,-1,69
 1202 316 1202 316 1214 311 c 0,70,71
 1241 300 1241 300 1241 281 c 0,72,73
 1241 275 1241 275 1240 274 c 2,74,-1
 1148 0 l 1,75,-1
 128 0 l 2,16,17
EndSplineSet
EndChar

StartChar: Edieresis
Encoding: 203 203 141
Width: 1288
Flags: HW
HStem: 0 134<104.19 289.665> 694 154<501 808.741> 1002 20G<852 908> 1180 325<1058.02 1199> 1351 154<81.2363 290 501 1034.77> 1620 276<362.166 561.66 809.641 1008.75>
VStem: 290 211<154.179 694 848 1350.86> 324 273<1660.22 1860.44> 776 272<1679.06 1854.81> 820 144<517.962 694 871.016 1007.56> 1058 141<1181.4 1309.24>
LayerCount: 2
Fore
SplineSet
128 0 m 2,0,1
 101 0 101 0 101 59 c 0,2,3
 102 110 102 110 126 134 c 0,4,5
 134 142 134 142 161 141.5 c 128,-1,6
 188 141 188 141 217 143.5 c 128,-1,7
 246 146 246 146 262 151 c 0,8,9
 290 160 290 160 290 184 c 2,10,-1
 290 1350 l 2,11,12
 290 1364 290 1364 278 1364 c 2,13,-1
 114 1364 l 2,14,15
 86 1364 86 1364 76 1416 c 0,16,17
 74 1430 74 1430 73 1442 c 0,18,19
 73 1505 73 1505 99 1505 c 2,20,-1
 1199 1505 l 1,21,-1
 1199 1214 l 2,22,23
 1199 1180 1199 1180 1128.5 1180 c 128,-1,24
 1058 1180 1058 1180 1058 1202 c 0,25,26
 1058 1286 1058 1286 1036 1310 c 0,27,28
 997 1351 997 1351 894 1351 c 2,29,-1
 501 1351 l 1,30,-1
 501 848 l 1,31,-1
 755 848 l 2,32,33
 801 848 801 848 809 870 c 0,34,35
 822 902 822 902 822 999 c 0,36,37
 822 1022 822 1022 882 1022 c 0,38,39
 934 1022 934 1022 949 1008 c 128,-1,40
 964 994 964 994 964 985 c 2,41,-1
 964 557 l 2,42,43
 964 516 964 516 892 516 c 128,-1,44
 820 516 820 516 820 543 c 2,45,-1
 820 694 l 1,46,-1
 501 694 l 1,47,-1
 501 154 l 1,48,-1
 1031 154 l 1,49,-1
 1107 303 l 2,50,51
 1117 322 1117 322 1144.5 322 c 128,-1,52
 1172 322 1172 322 1187 319 c 128,-1,53
 1202 316 1202 316 1214 311 c 0,54,55
 1241 300 1241 300 1241 281 c 0,56,57
 1241 275 1241 275 1240 274 c 2,58,-1
 1148 0 l 1,59,-1
 128 0 l 2,0,1
324 1757 m 256,60,61
 324 1852 324 1852 404 1886 c 0,62,63
 428 1896 428 1896 458 1896 c 128,-1,64
 488 1896 488 1896 514 1886 c 0,65,66
 540 1874 540 1874 558 1856 c 0,67,68
 598 1816 598 1816 597 1757 c 256,69,70
 598 1698 598 1698 558 1658 c 0,71,72
 520 1620 520 1620 474 1620 c 0,73,74
 398 1620 398 1620 361 1659 c 128,-1,75
 324 1698 324 1698 324 1757 c 256,60,61
912 1620 m 0,76,77
 836 1620 836 1620 798 1678 c 0,78,79
 776 1711 776 1711 776 1748 c 0,80,81
 776 1785 776 1785 787 1812 c 0,82,83
 796 1838 796 1838 814 1856 c 0,84,85
 851 1896 851 1896 912 1896 c 256,86,87
 970 1896 970 1896 1010 1856 c 0,88,89
 1048 1818 1048 1818 1048 1757 c 256,90,91
 1048 1663 1048 1663 967 1630 c 0,92,93
 942 1620 942 1620 912 1620 c 0,76,77
EndSplineSet
EndChar

StartChar: Igrave
Encoding: 204 204 142
Width: 791
Flags: HW
HStem: 0 141<128.255 291 502 680.017> 1364 141<78.042 291 502 715.438>
VStem: 291 211<147.104 1364>
LayerCount: 2
Fore
SplineSet
123 0 m 2,0,1
 100 0 100 0 100 57 c 0,2,3
 100 106 100 106 128 134 c 0,4,5
 136 142 136 142 162.5 141.5 c 128,-1,6
 189 141 189 141 218 143.5 c 128,-1,7
 247 146 247 146 263 151 c 0,8,9
 291 160 291 160 291 184 c 2,10,-1
 291 1348 l 2,11,12
 291 1364 291 1364 278 1364 c 2,13,-1
 115 1364 l 2,14,15
 86 1364 86 1364 76 1418 c 0,16,17
 74 1432 74 1432 74 1446 c 0,18,19
 74 1505 74 1505 100 1505 c 2,20,-1
 692 1505 l 2,21,22
 717 1505 717 1505 717 1434.5 c 128,-1,23
 717 1364 717 1364 682 1364 c 2,24,-1
 502 1364 l 1,25,-1
 502 141 l 1,26,-1
 670 141 l 2,27,28
 696 141 696 141 696 80 c 0,29,30
 696 31 696 31 680.5 15.5 c 128,-1,31
 665 0 665 0 655 0 c 2,32,-1
 123 0 l 2,0,1
381 1598 m 1,33,-1
 57 1833 l 1,34,35
 57 1942 57 1942 147 1980 c 0,36,37
 172 1991 172 1991 201 1991 c 0,38,39
 203 1991 203 1991 206 1991 c 1,40,-1
 479 1706 l 1,41,42
 478 1663 478 1663 458 1640 c 0,43,44
 422 1598 422 1598 381 1598 c 1,33,-1
EndSplineSet
EndChar

StartChar: Iacute
Encoding: 205 205 143
Width: 791
Flags: HW
HStem: 0 141<128.255 291 502 680.017> 1364 141<78.042 291 502 715.438>
VStem: 291 211<147.104 1364>
LayerCount: 2
Fore
SplineSet
123 0 m 2,0,1
 100 0 100 0 100 57 c 0,2,3
 100 106 100 106 128 134 c 0,4,5
 136 142 136 142 162.5 141.5 c 128,-1,6
 189 141 189 141 218 143.5 c 128,-1,7
 247 146 247 146 263 151 c 0,8,9
 291 160 291 160 291 184 c 2,10,-1
 291 1348 l 2,11,12
 291 1364 291 1364 278 1364 c 2,13,-1
 115 1364 l 2,14,15
 86 1364 86 1364 76 1418 c 0,16,17
 74 1432 74 1432 74 1446 c 0,18,19
 74 1505 74 1505 100 1505 c 2,20,-1
 692 1505 l 2,21,22
 717 1505 717 1505 717 1434.5 c 128,-1,23
 717 1364 717 1364 682 1364 c 2,24,-1
 502 1364 l 1,25,-1
 502 141 l 1,26,-1
 670 141 l 2,27,28
 696 141 696 141 696 80 c 0,29,30
 696 31 696 31 680.5 15.5 c 128,-1,31
 665 0 665 0 655 0 c 2,32,-1
 123 0 l 2,0,1
412 1598 m 1,33,34
 370 1598 370 1598 349 1622 c 0,35,36
 313 1663 313 1663 313 1706 c 1,37,-1
 586 1991 l 1,38,39
 589 1991 l 0,40,41
 651 1991 651 1991 692 1948 c 0,42,43
 735 1904 735 1904 735 1833 c 1,44,-1
 412 1598 l 1,33,34
EndSplineSet
EndChar

StartChar: Icircumflex
Encoding: 206 206 144
Width: 791
Flags: HW
HStem: 0 141<128.255 291 502 680.017> 1364 141<78.042 291 502 715.438>
VStem: 291 211<147.104 1364>
LayerCount: 2
Fore
SplineSet
123 0 m 2,0,1
 100 0 100 0 100 57 c 0,2,3
 100 106 100 106 128 134 c 0,4,5
 136 142 136 142 162.5 141.5 c 128,-1,6
 189 141 189 141 218 143.5 c 128,-1,7
 247 146 247 146 263 151 c 0,8,9
 291 160 291 160 291 184 c 2,10,-1
 291 1348 l 2,11,12
 291 1364 291 1364 278 1364 c 2,13,-1
 115 1364 l 2,14,15
 86 1364 86 1364 76 1418 c 0,16,17
 74 1432 74 1432 74 1446 c 0,18,19
 74 1505 74 1505 100 1505 c 2,20,-1
 692 1505 l 2,21,22
 717 1505 717 1505 717 1434.5 c 128,-1,23
 717 1364 717 1364 682 1364 c 2,24,-1
 502 1364 l 1,25,-1
 502 141 l 1,26,-1
 670 141 l 2,27,28
 696 141 696 141 696 80 c 0,29,30
 696 31 696 31 680.5 15.5 c 128,-1,31
 665 0 665 0 655 0 c 2,32,-1
 123 0 l 2,0,1
145 1610 m 1,33,34
 111 1610 111 1610 92 1632 c 0,35,36
 61 1670 61 1670 61 1710 c 1,37,-1
 317 1886 l 2,38,39
 358 1915 358 1915 387 1915 c 0,40,41
 423 1915 423 1915 467 1886 c 2,42,-1
 723 1710 l 1,43,44
 723 1646 723 1646 672 1618 c 0,45,46
 657 1610 657 1610 639 1610 c 1,47,-1
 393 1726 l 1,48,-1
 145 1610 l 1,33,34
EndSplineSet
EndChar

StartChar: Idieresis
Encoding: 207 207 145
Width: 791
Flags: HW
HStem: 0 141<128.255 291 502 680.017> 1364 141<78.042 291 502 715.438> 1620 276<72.6503 271.662 519.694 720.745>
VStem: 35 273<1660.22 1860.4> 291 211<147.104 1364> 488 272<1652.03 1854.81>
LayerCount: 2
Fore
SplineSet
123 0 m 2,0,1
 100 0 100 0 100 57 c 0,2,3
 100 106 100 106 128 134 c 0,4,5
 136 142 136 142 162.5 141.5 c 128,-1,6
 189 141 189 141 218 143.5 c 128,-1,7
 247 146 247 146 263 151 c 0,8,9
 291 160 291 160 291 184 c 2,10,-1
 291 1348 l 2,11,12
 291 1364 291 1364 278 1364 c 2,13,-1
 115 1364 l 2,14,15
 86 1364 86 1364 76 1418 c 0,16,17
 74 1432 74 1432 74 1446 c 0,18,19
 74 1505 74 1505 100 1505 c 2,20,-1
 692 1505 l 2,21,22
 717 1505 717 1505 717 1434.5 c 128,-1,23
 717 1364 717 1364 682 1364 c 2,24,-1
 502 1364 l 1,25,-1
 502 141 l 1,26,-1
 670 141 l 2,27,28
 696 141 696 141 696 80 c 0,29,30
 696 31 696 31 680.5 15.5 c 128,-1,31
 665 0 665 0 655 0 c 2,32,-1
 123 0 l 2,0,1
35 1759 m 0,33,34
 35 1852 35 1852 114 1886 c 0,35,36
 138 1896 138 1896 168 1896 c 0,37,38
 198 1896 198 1896 224 1886 c 0,39,40
 250 1874 250 1874 268 1856 c 0,41,42
 308 1816 308 1816 308 1757 c 256,43,44
 308 1698 308 1698 268 1658 c 0,45,46
 230 1620 230 1620 184 1620 c 0,47,48
 108 1620 108 1620 71.5 1659 c 128,-1,49
 35 1698 35 1698 35 1759 c 0,33,34
623 1620 m 256,50,51
 531 1620 531 1620 498 1702 c 0,52,53
 488 1727 488 1727 488 1757 c 256,54,55
 488 1852 488 1852 568 1886 c 0,56,57
 593 1896 593 1896 623 1896 c 256,58,59
 682 1896 682 1896 722 1856 c 0,60,61
 760 1818 760 1818 760 1757 c 256,62,63
 760 1663 760 1663 678 1630 c 0,64,65
 653 1620 653 1620 623 1620 c 256,50,51
EndSplineSet
EndChar

StartChar: Eth
Encoding: 208 208 146
Width: 1527
Flags: HW
HStem: 0 154<137.224 300 511 877.872> 694 154<130 300 511 765> 1351 154<91.2363 300 511 906.053>
VStem: 300 211<154.179 694 848 1350.86> 1190 233<477.662 1033.25>
LayerCount: 2
Fore
SplineSet
138 0 m 2,0,1
 111 0 111 0 111 57 c 0,2,3
 111 103 111 103 137 133 c 0,4,5
 144 141 144 141 170 141 c 0,6,7
 196 142 196 142 226 144 c 0,8,9
 256 146 256 146 272 151 c 0,10,11
 300 160 300 160 300 184 c 2,12,-1
 300 694 l 1,13,-1
 130 694 l 1,14,-1
 130 848 l 1,15,-1
 300 848 l 1,16,-1
 300 1350 l 2,17,18
 300 1364 300 1364 288 1364 c 2,19,-1
 124 1364 l 2,20,21
 96 1364 96 1364 86 1416 c 0,22,23
 84 1430 84 1430 83 1442 c 0,24,25
 83 1505 83 1505 109 1505 c 2,26,-1
 691 1505 l 2,27,28
 1086 1505 1086 1505 1260 1315 c 0,29,30
 1423 1137 1423 1137 1423 755 c 0,31,32
 1423 375 1423 375 1194 176 c 0,33,34
 992 1 992 1 691 0 c 2,35,-1
 138 0 l 2,0,1
511 154 m 1,36,-1
 658 154 l 2,37,38
 872 154 872 154 1022 293 c 0,39,40
 1190 450 1190 450 1190 723 c 0,41,42
 1190 1191 1190 1191 898 1312 c 0,43,44
 804 1351 804 1351 683 1351 c 2,45,-1
 511 1351 l 1,46,-1
 511 848 l 1,47,-1
 765 848 l 1,48,-1
 765 694 l 1,49,-1
 511 694 l 1,50,-1
 511 154 l 1,36,-1
EndSplineSet
EndChar

StartChar: Ntilde
Encoding: 209 209 147
Width: 1667
Flags: HW
HStem: 0 141<128.255 291 445 624.532> 1364 141<78.042 291 1028.04 1241 1395 1607.44> 1604 168<896.305 1094.33> 1736 180<579.056 792.057>
VStem: 291 154<147.104 1127> 1241 154<345 1364>
LayerCount: 2
Fore
SplineSet
515 1627 m 1,0,1
 476 1628 476 1628 456 1648 c 0,2,3
 422 1682 422 1682 421 1719 c 1,4,5
 486 1836 486 1836 600 1893 c 0,6,7
 647 1917 647 1917 697 1917 c 0,8,-1
 700 1916 l 0,9,10
 752 1916 752 1916 788 1894 c 128,-1,11
 824 1872 824 1872 859 1844.5 c 128,-1,12
 894 1817 894 1817 929.5 1794.5 c 128,-1,13
 965 1772 965 1772 999 1772 c 128,-1,14
 1033 1772 1033 1772 1057.5 1787.5 c 128,-1,15
 1082 1803 1082 1803 1102.5 1824.5 c 128,-1,16
 1123 1846 1123 1846 1140.5 1867.5 c 128,-1,17
 1158 1889 1158 1889 1172 1901 c 1,18,19
 1210 1901 1210 1901 1232 1880 c 0,20,21
 1270 1844 1270 1844 1270 1809 c 1,22,23
 1216 1688 1216 1688 1103 1629 c 0,24,25
 1055 1604 1055 1604 1006 1604 c 128,-1,26
 957 1604 957 1604 927.5 1614 c 128,-1,27
 898 1624 898 1624 872 1638 c 0,28,29
 846 1652 846 1652 822 1670 c 128,-1,30
 798 1688 798 1688 776 1702 c 0,31,32
 722 1736 722 1736 687 1736 c 0,33,-1
 685 1737 l 0,34,35
 651 1737 651 1737 625 1723 c 0,36,37
 598 1709 598 1709 577 1691 c 128,-1,38
 556 1673 556 1673 540.5 1654.5 c 128,-1,39
 525 1636 525 1636 515 1627 c 1,0,1
125 0 m 2,40,41
 100 0 100 0 100 57 c 0,42,43
 100 106 100 106 128 134 c 0,44,45
 136 142 136 142 162.5 141.5 c 128,-1,46
 189 141 189 141 218 143.5 c 128,-1,47
 247 146 247 146 263 151 c 0,48,49
 291 160 291 160 291 184 c 2,50,-1
 291 1348 l 2,51,52
 291 1364 291 1364 278 1364 c 2,53,-1
 115 1364 l 2,54,55
 86 1364 86 1364 76 1418 c 0,56,57
 74 1432 74 1432 74 1446 c 0,58,59
 74 1505 74 1505 100 1505 c 2,60,-1
 448 1505 l 1,61,-1
 1241 345 l 1,62,-1
 1241 1348 l 2,63,64
 1241 1364 1241 1364 1228 1364 c 2,65,-1
 1065 1364 l 2,66,67
 1036 1364 1036 1364 1026 1418 c 0,68,69
 1024 1432 1024 1432 1024 1446 c 0,70,71
 1024 1505 1024 1505 1050 1505 c 2,72,-1
 1584 1505 l 2,73,74
 1609 1505 1609 1505 1609 1434.5 c 128,-1,75
 1609 1364 1609 1364 1574 1364 c 2,76,-1
 1395 1364 l 1,77,-1
 1395 -2 l 2,78,79
 1395 -20 1395 -20 1321 -20 c 0,80,81
 1250 -20 1250 -20 1239 -2 c 1,82,-1
 445 1127 l 1,83,-1
 445 141 l 1,84,-1
 613 141 l 2,85,86
 640 141 640 141 640 80 c 0,87,88
 640 30 640 30 625 15 c 128,-1,89
 610 0 610 0 598 0 c 2,90,-1
 125 0 l 2,40,41
EndSplineSet
EndChar

StartChar: Ograve
Encoding: 210 210 148
Width: 1501
Flags: HW
HStem: -20 164<580.769 943.105> 1360 165<566.622 901.393>
VStem: 102 230<467.79 1061.78> 1168 230<422.508 1011.35>
LayerCount: 2
Fore
SplineSet
287 161 m 1,0,1
 102 363 102 363 102 731 c 0,2,3
 102 1117 102 1117 294 1328 c 0,4,5
 473 1525 473 1525 774 1525 c 0,6,7
 1077 1524 1077 1524 1239 1310 c 0,8,9
 1398 1100 1398 1100 1398 716 c 0,10,11
 1398 350 1398 350 1198 154 c 0,12,13
 1020 -20 1020 -20 738 -20 c 0,14,15
 737 -20 l 0,16,17
 456 -20 456 -20 287 161 c 1,0,1
332 823 m 0,18,19
 332 488 332 488 445 313 c 1,20,21
 557 145 557 145 763 144 c 0,22,23
 1044 145 1044 145 1135 454 c 0,24,25
 1168 566 1168 566 1168 713 c 128,-1,26
 1168 860 1168 860 1136 975 c 128,-1,27
 1104 1090 1104 1090 1046 1176 c 0,28,29
 922 1360 922 1360 741 1360 c 0,30,31
 566 1360 566 1360 452 1215 c 0,32,33
 332 1064 332 1064 332 823 c 0,18,19
703 1598 m 1,34,-1
 379 1833 l 1,35,36
 379 1942 379 1942 469 1980 c 0,37,38
 494 1991 494 1991 523 1991 c 0,39,40
 525 1991 525 1991 528 1991 c 1,41,-1
 801 1706 l 1,42,43
 800 1663 800 1663 780 1640 c 0,44,45
 744 1598 744 1598 703 1598 c 1,34,-1
EndSplineSet
EndChar

StartChar: Oacute
Encoding: 211 211 149
Width: 1501
Flags: HW
HStem: -20 164<580.769 943.105> 1360 165<566.622 901.393>
VStem: 102 230<467.79 1061.78> 1168 230<422.508 1011.35>
LayerCount: 2
Fore
SplineSet
287 161 m 1,0,1
 102 363 102 363 102 731 c 0,2,3
 102 1117 102 1117 294 1328 c 0,4,5
 473 1525 473 1525 774 1525 c 0,6,7
 1077 1524 1077 1524 1239 1310 c 0,8,9
 1398 1100 1398 1100 1398 716 c 0,10,11
 1398 350 1398 350 1198 154 c 0,12,13
 1020 -20 1020 -20 738 -20 c 0,14,15
 737 -20 l 0,16,17
 456 -20 456 -20 287 161 c 1,0,1
332 823 m 0,18,19
 332 488 332 488 445 313 c 1,20,21
 557 145 557 145 763 144 c 0,22,23
 1044 145 1044 145 1135 454 c 0,24,25
 1168 566 1168 566 1168 713 c 128,-1,26
 1168 860 1168 860 1136 975 c 128,-1,27
 1104 1090 1104 1090 1046 1176 c 0,28,29
 922 1360 922 1360 741 1360 c 0,30,31
 566 1360 566 1360 452 1215 c 0,32,33
 332 1064 332 1064 332 823 c 0,18,19
775 1598 m 1,34,35
 733 1598 733 1598 712 1622 c 0,36,37
 676 1663 676 1663 676 1706 c 1,38,-1
 949 1991 l 1,39,-1
 952 1991 l 0,40,41
 1014 1991 1014 1991 1055 1948 c 0,42,43
 1098 1904 1098 1904 1098 1833 c 1,44,-1
 775 1598 l 1,34,35
EndSplineSet
EndChar

StartChar: Ocircumflex
Encoding: 212 212 150
Width: 1501
Flags: HW
HStem: -20 164<580.769 943.105> 1360 165<566.622 901.393>
VStem: 102 230<467.79 1061.78> 1168 230<422.508 1011.35>
LayerCount: 2
Fore
SplineSet
509 1610 m 1,0,1
 475 1610 475 1610 456 1632 c 0,2,3
 425 1670 425 1670 425 1710 c 1,4,-1
 681 1886 l 2,5,6
 722 1915 722 1915 751 1915 c 0,7,8
 789 1915 789 1915 831 1886 c 2,9,-1
 1087 1710 l 1,10,11
 1087 1646 1087 1646 1036 1618 c 0,12,13
 1021 1610 1021 1610 1003 1610 c 1,14,-1
 757 1726 l 1,15,-1
 509 1610 l 1,0,1
287 161 m 1,16,17
 102 363 102 363 102 731 c 0,18,19
 102 1117 102 1117 294 1328 c 0,20,21
 473 1525 473 1525 774 1525 c 0,22,23
 1077 1524 1077 1524 1239 1310 c 0,24,25
 1398 1100 1398 1100 1398 716 c 0,26,27
 1398 350 1398 350 1198 154 c 0,28,29
 1020 -20 1020 -20 738 -20 c 0,30,31
 737 -20 l 0,32,33
 456 -20 456 -20 287 161 c 1,16,17
332 823 m 0,34,35
 332 488 332 488 445 313 c 1,36,37
 557 145 557 145 763 144 c 0,38,39
 1044 145 1044 145 1135 454 c 0,40,41
 1168 566 1168 566 1168 713 c 128,-1,42
 1168 860 1168 860 1136 975 c 128,-1,43
 1104 1090 1104 1090 1046 1176 c 0,44,45
 922 1360 922 1360 741 1360 c 0,46,47
 566 1360 566 1360 452 1215 c 0,48,49
 332 1064 332 1064 332 823 c 0,34,35
EndSplineSet
EndChar

StartChar: Otilde
Encoding: 213 213 151
Width: 1501
Flags: HW
HStem: -20 164<580.769 943.105> 1360 165<566.622 901.393> 1604 168<802.305 1000.33> 1736 180<485.056 698.057>
VStem: 102 230<467.79 1061.78> 1168 230<422.508 1011.35>
LayerCount: 2
Fore
SplineSet
421 1627 m 1,0,1
 382 1628 382 1628 362 1648 c 0,2,3
 328 1682 328 1682 327 1719 c 1,4,5
 392 1836 392 1836 506 1893 c 0,6,7
 553 1917 553 1917 603 1917 c 0,8,-1
 606 1916 l 0,9,10
 658 1916 658 1916 694 1894 c 128,-1,11
 730 1872 730 1872 765 1844.5 c 128,-1,12
 800 1817 800 1817 835.5 1794.5 c 128,-1,13
 871 1772 871 1772 905 1772 c 128,-1,14
 939 1772 939 1772 963.5 1787.5 c 128,-1,15
 988 1803 988 1803 1008.5 1824.5 c 128,-1,16
 1029 1846 1029 1846 1046.5 1867.5 c 128,-1,17
 1064 1889 1064 1889 1078 1901 c 1,18,19
 1116 1901 1116 1901 1138 1880 c 0,20,21
 1176 1844 1176 1844 1176 1809 c 1,22,23
 1122 1688 1122 1688 1009 1629 c 0,24,25
 961 1604 961 1604 912 1604 c 128,-1,26
 863 1604 863 1604 833.5 1614 c 128,-1,27
 804 1624 804 1624 778 1638 c 0,28,29
 752 1652 752 1652 728 1670 c 128,-1,30
 704 1688 704 1688 682 1702 c 0,31,32
 628 1736 628 1736 593 1736 c 0,33,-1
 591 1737 l 0,34,35
 557 1737 557 1737 531 1723 c 0,36,37
 504 1709 504 1709 483 1691 c 128,-1,38
 462 1673 462 1673 446.5 1654.5 c 128,-1,39
 431 1636 431 1636 421 1627 c 1,0,1
287 161 m 1,40,41
 102 363 102 363 102 731 c 0,42,43
 102 1117 102 1117 294 1328 c 0,44,45
 473 1525 473 1525 774 1525 c 0,46,47
 1077 1524 1077 1524 1239 1310 c 0,48,49
 1398 1100 1398 1100 1398 716 c 0,50,51
 1398 350 1398 350 1198 154 c 0,52,53
 1020 -20 1020 -20 738 -20 c 0,54,55
 737 -20 l 0,56,57
 456 -20 456 -20 287 161 c 1,40,41
332 823 m 0,58,59
 332 488 332 488 445 313 c 1,60,61
 557 145 557 145 763 144 c 0,62,63
 1044 145 1044 145 1135 454 c 0,64,65
 1168 566 1168 566 1168 713 c 128,-1,66
 1168 860 1168 860 1136 975 c 128,-1,67
 1104 1090 1104 1090 1046 1176 c 0,68,69
 922 1360 922 1360 741 1360 c 0,70,71
 566 1360 566 1360 452 1215 c 0,72,73
 332 1064 332 1064 332 823 c 0,58,59
EndSplineSet
EndChar

StartChar: Odieresis
Encoding: 214 214 152
Width: 1501
Flags: HW
HStem: -20 164<580.769 943.105> 1360 165<566.622 901.393> 1620 276<424.166 623.66 871.641 1070.75>
VStem: 102 230<467.79 1061.78> 386 273<1660.22 1860.44> 838 272<1679.06 1854.81> 1168 230<422.508 1011.35>
LayerCount: 2
Fore
SplineSet
287 161 m 1,0,1
 102 363 102 363 102 731 c 0,2,3
 102 1117 102 1117 294 1328 c 0,4,5
 473 1525 473 1525 774 1525 c 0,6,7
 1077 1524 1077 1524 1239 1310 c 0,8,9
 1398 1100 1398 1100 1398 716 c 0,10,11
 1398 350 1398 350 1198 154 c 0,12,13
 1020 -20 1020 -20 738 -20 c 0,14,15
 737 -20 l 0,16,17
 456 -20 456 -20 287 161 c 1,0,1
332 823 m 0,18,19
 332 488 332 488 445 313 c 1,20,21
 557 145 557 145 763 144 c 0,22,23
 1044 145 1044 145 1135 454 c 0,24,25
 1168 566 1168 566 1168 713 c 128,-1,26
 1168 860 1168 860 1136 975 c 128,-1,27
 1104 1090 1104 1090 1046 1176 c 0,28,29
 922 1360 922 1360 741 1360 c 0,30,31
 566 1360 566 1360 452 1215 c 0,32,33
 332 1064 332 1064 332 823 c 0,18,19
386 1757 m 256,34,35
 386 1852 386 1852 466 1886 c 0,36,37
 490 1896 490 1896 520 1896 c 128,-1,38
 550 1896 550 1896 576 1886 c 0,39,40
 602 1874 602 1874 620 1856 c 0,41,42
 660 1816 660 1816 659 1757 c 256,43,44
 660 1698 660 1698 620 1658 c 0,45,46
 582 1620 582 1620 536 1620 c 0,47,48
 460 1620 460 1620 423 1659 c 128,-1,49
 386 1698 386 1698 386 1757 c 256,34,35
974 1620 m 0,50,51
 898 1620 898 1620 860 1678 c 0,52,53
 838 1711 838 1711 838 1748 c 0,54,55
 838 1785 838 1785 849 1812 c 0,56,57
 858 1838 858 1838 876 1856 c 0,58,59
 913 1896 913 1896 974 1896 c 256,60,61
 1032 1896 1032 1896 1072 1856 c 0,62,63
 1110 1818 1110 1818 1110 1757 c 256,64,65
 1110 1663 1110 1663 1029 1630 c 0,66,67
 1004 1620 1004 1620 974 1620 c 0,50,51
EndSplineSet
EndChar

StartChar: multiply
Encoding: 215 215 153
Width: 1143
Flags: HW
LayerCount: 2
Fore
SplineSet
191 178 m 1,0,1
 175 178 175 178 150.5 189 c 128,-1,2
 126 200 126 200 105.5 225.5 c 128,-1,3
 85 251 85 251 85 285 c 1,4,-1
 460 653 l 1,5,-1
 93 1004 l 1,6,7
 93 1087 93 1087 161 1108 c 0,8,9
 180 1114 180 1114 199 1114 c 1,10,-1
 568 762 l 1,11,-1
 943 1128 l 1,12,13
 1049 1122 1049 1122 1049 1022 c 1,14,-1
 679 657 l 1,15,-1
 1058 295 l 1,16,17
 1058 184 1058 184 951 184 c 1,18,-1
 568 549 l 1,19,-1
 191 178 l 1,0,1
EndSplineSet
EndChar

StartChar: Oslash
Encoding: 216 216 154
Width: 1522
Flags: HW
HStem: -20 165<588.82 958.586> 1360 165<577.224 912.299>
VStem: 113 230<470.441 1059.68> 1179 230<425.8 1004.73>
LayerCount: 2
Fore
SplineSet
742 -20 m 0,0,1
 519 -20 519 -20 360 104 c 1,2,-1
 248 -39 l 1,3,4
 176 -66 176 -66 150.5 -66 c 128,-1,5
 125 -66 125 -66 112 -66 c 0,6,7
 99 -64 99 -64 88 -62 c 0,8,9
 63 -56 63 -56 63 -39 c 1,10,-1
 259 208 l 1,11,12
 113 405 113 405 113 731 c 0,13,14
 113 1117 113 1117 305 1328 c 0,15,16
 484 1525 484 1525 785 1525 c 0,17,18
 1034 1525 1034 1525 1188 1379 c 1,19,-1
 1288 1506 l 1,20,21
 1343 1532 1343 1532 1367.5 1532 c 128,-1,22
 1392 1532 1392 1532 1404.5 1531 c 128,-1,23
 1417 1530 1417 1530 1428 1528 c 0,24,25
 1454 1522 1454 1522 1454 1506 c 1,26,-1
 1274 1275 l 1,27,28
 1409 1068 1409 1068 1409 712 c 0,29,30
 1409 349 1409 349 1210 154 c 0,31,32
 1032 -20 1032 -20 742 -20 c 0,0,1
1042 1196 m 1,33,34
 922 1360 922 1360 752 1360 c 0,35,36
 576 1360 576 1360 462 1215 c 0,37,38
 343 1065 343 1065 343 827 c 0,39,40
 343 567 343 567 411 400 c 1,41,-1
 1042 1196 l 1,33,34
489 270 m 1,42,43
 596 145 596 145 774 145 c 0,44,45
 1055 146 1055 146 1146 454 c 0,46,47
 1179 566 1179 566 1179 694 c 0,48,49
 1179 914 1179 914 1113 1069 c 1,50,-1
 489 270 l 1,42,43
EndSplineSet
EndChar

